Playpen-Rg00ShortSlow.ufo
<glyph name="exclam" format="2">
	<unicode hex="0021"/>
	<advance width="272"/>
	<outline>
		<contour>
			<point x="136" y="173" type="curve" smooth="yes"/>
			<point x="159" y="173"/>
			<point x="171" y="180"/>
			<point x="171" y="195" type="curve" smooth="yes"/>
			<point x="171" y="690" type="line" smooth="yes"/>
			<point x="171" y="705"/>
			<point x="159" y="712"/>
			<point x="136" y="712" type="curve" smooth="yes"/>
			<point x="113" y="712"/>
			<point x="101" y="705"/>
			<point x="101" y="690" type="curve" smooth="yes"/>
			<point x="101" y="195" type="line" smooth="yes"/>
			<point x="101" y="180"/>
			<point x="113" y="173"/>
		</contour>
		<contour>
			<point x="136" y="-11" type="curve" smooth="yes"/>
			<point x="165" y="-11"/>
			<point x="181" y="5"/>
			<point x="180" y="39" type="curve" smooth="yes"/>
			<point x="180" y="73"/>
			<point x="165" y="90"/>
			<point x="136" y="90" type="curve" smooth="yes"/>
			<point x="106" y="90"/>
			<point x="91" y="73"/>
			<point x="91" y="39" type="curve" smooth="yes"/>
			<point x="91" y="5"/>
			<point x="106" y="-11"/>
		</contour>
	</outline>
</glyph>
<glyph name="dollar" format="2">
  <advance width="668"/>
  <unicode hex="0024"/>
  <outline>
    <contour>
      <point x="304" y="-19" type="curve" smooth="yes"/>
      <point x="483" y="-19"/>
      <point x="599" y="66"/>
      <point x="599" y="233" type="curve" smooth="yes"/>
      <point x="599" y="400"/>
      <point x="463" y="453"/>
      <point x="350" y="486" type="curve" smooth="yes"/>
      <point x="241" y="519"/>
      <point x="168" y="563"/>
      <point x="168" y="670" type="curve" smooth="yes"/>
      <point x="168" y="761"/>
      <point x="229" y="805"/>
      <point x="335" y="805" type="curve" smooth="yes"/>
      <point x="419" y="805"/>
      <point x="474" y="773"/>
      <point x="524" y="731" type="curve" smooth="yes"/>
      <point x="539" y="720"/>
      <point x="554" y="729"/>
      <point x="570" y="746" type="curve"/>
      <point x="584" y="761"/>
      <point x="588" y="775"/>
      <point x="574" y="788" type="curve" smooth="yes"/>
      <point x="510" y="846"/>
      <point x="435" y="890"/>
      <point x="335" y="890" type="curve" smooth="yes"/>
      <point x="186" y="890"/>
      <point x="75" y="810"/>
      <point x="75" y="670" type="curve" smooth="yes"/>
      <point x="75" y="498"/>
      <point x="211" y="436"/>
      <point x="329" y="400" type="curve" smooth="yes"/>
      <point x="436" y="368"/>
      <point x="506" y="325"/>
      <point x="506" y="233" type="curve" smooth="yes"/>
      <point x="506" y="116"/>
      <point x="441" y="66"/>
      <point x="304" y="66" type="curve" smooth="yes"/>
      <point x="219" y="66"/>
      <point x="156" y="93"/>
      <point x="115" y="131" type="curve" smooth="yes"/>
      <point x="90" y="154"/>
      <point x="81" y="150"/>
      <point x="63" y="130" type="curve" smooth="yes"/>
      <point x="44" y="111"/>
      <point x="45" y="101"/>
      <point x="55" y="88" type="curve" smooth="yes"/>
      <point x="114" y="9"/>
      <point x="229" y="-19"/>
    </contour>
    <contour>
      <point x="333" y="-150" type="curve" smooth="yes"/>
      <point x="359" y="-150"/>
      <point x="373" y="-141"/>
      <point x="373" y="-122" type="curve" smooth="yes"/>
      <point x="373" y="1009" type="line" smooth="yes"/>
      <point x="373" y="1028"/>
      <point x="359" y="1036"/>
      <point x="333" y="1036" type="curve" smooth="yes"/>
      <point x="306" y="1036"/>
      <point x="293" y="1028"/>
      <point x="293" y="1009" type="curve" smooth="yes"/>
      <point x="293" y="-122" type="line" smooth="yes"/>
      <point x="293" y="-141"/>
      <point x="306" y="-150"/>
    </contour>
  </outline>
</glyph>
<glyph name="percent" format="2">
  <advance width="660"/>
  <unicode hex="0025"/>
  <outline>
    <contour>
      <point x="171" y="404" type="curve" smooth="yes"/>
      <point x="245" y="404"/>
      <point x="304" y="468"/>
      <point x="304" y="558" type="curve" smooth="yes"/>
      <point x="304" y="648"/>
      <point x="247" y="712"/>
      <point x="171" y="712" type="curve" smooth="yes"/>
      <point x="92" y="712"/>
      <point x="36" y="647"/>
      <point x="36" y="558" type="curve" smooth="yes"/>
      <point x="36" y="468"/>
      <point x="96" y="404"/>
    </contour>
    <contour>
      <point x="171" y="465" type="curve" smooth="yes"/>
      <point x="129" y="465"/>
      <point x="103" y="497"/>
      <point x="103" y="558" type="curve" smooth="yes"/>
      <point x="103" y="619"/>
      <point x="129" y="651"/>
      <point x="171" y="651" type="curve" smooth="yes"/>
      <point x="212" y="651"/>
      <point x="237" y="620"/>
      <point x="237" y="558" type="curve" smooth="yes"/>
      <point x="237" y="496"/>
      <point x="212" y="465"/>
    </contour>
    <contour>
      <point x="143" y="-7" type="curve" smooth="yes"/>
      <point x="560" y="672" type="line" smooth="yes"/>
      <point x="568" y="685"/>
      <point x="564" y="692"/>
      <point x="544" y="704" type="curve" smooth="yes"/>
      <point x="525" y="716"/>
      <point x="515" y="716"/>
      <point x="507" y="704" type="curve" smooth="yes"/>
      <point x="90" y="25" type="line" smooth="yes"/>
      <point x="82" y="12"/>
      <point x="86" y="5"/>
      <point x="106" y="-7" type="curve" smooth="yes"/>
      <point x="125" y="-19"/>
      <point x="135" y="-19"/>
    </contour>
    <contour>
      <point x="485" y="-15" type="curve" smooth="yes"/>
      <point x="559" y="-15"/>
      <point x="618" y="49"/>
      <point x="618" y="139" type="curve" smooth="yes"/>
      <point x="618" y="229"/>
      <point x="561" y="293"/>
      <point x="485" y="293" type="curve" smooth="yes"/>
      <point x="406" y="293"/>
      <point x="350" y="228"/>
      <point x="350" y="139" type="curve" smooth="yes"/>
      <point x="350" y="49"/>
      <point x="410" y="-15"/>
    </contour>
    <contour>
      <point x="485" y="46" type="curve" smooth="yes"/>
      <point x="443" y="46"/>
      <point x="417" y="78"/>
      <point x="417" y="139" type="curve" smooth="yes"/>
      <point x="417" y="200"/>
      <point x="443" y="232"/>
      <point x="485" y="232" type="curve" smooth="yes"/>
      <point x="526" y="232"/>
      <point x="551" y="201"/>
      <point x="551" y="139" type="curve" smooth="yes"/>
      <point x="551" y="77"/>
      <point x="526" y="46"/>
    </contour>
  </outline>
</glyph>
<glyph name="ampersand" format="2">
  <advance width="682"/>
  <unicode hex="0026"/>
  <outline>
    <contour>
      <point x="58" y="201" type="curve" smooth="yes"/>
      <point x="58" y="73"/>
      <point x="148" y="-15"/>
      <point x="275" y="-15" type="curve" smooth="yes"/>
      <point x="420" y="-15"/>
      <point x="593" y="110"/>
      <point x="593" y="357" type="curve" smooth="yes"/>
      <point x="593" y="372"/>
      <point x="581" y="379"/>
      <point x="558" y="379" type="curve" smooth="yes"/>
      <point x="535" y="379"/>
      <point x="523" y="372"/>
      <point x="523" y="357" type="curve" smooth="yes"/>
      <point x="523" y="149"/>
      <point x="390" y="51"/>
      <point x="277" y="51" type="curve" smooth="yes"/>
      <point x="194" y="51"/>
      <point x="132" y="107"/>
      <point x="132" y="201" type="curve" smooth="yes"/>
      <point x="132" y="397"/>
      <point x="458" y="359"/>
      <point x="458" y="561" type="curve" smooth="yes"/>
      <point x="458" y="648"/>
      <point x="390" y="712"/>
      <point x="290" y="712" type="curve" smooth="yes"/>
      <point x="184" y="712"/>
      <point x="117" y="637"/>
      <point x="117" y="546" type="curve" smooth="yes"/>
      <point x="117" y="476"/>
      <point x="154" y="429"/>
      <point x="203" y="377" type="curve" smooth="yes"/>
      <point x="563" y="-11" type="line" smooth="yes"/>
      <point x="574" y="-22"/>
      <point x="587" y="-19"/>
      <point x="604" y="-3" type="curve" smooth="yes"/>
      <point x="620" y="13"/>
      <point x="624" y="27"/>
      <point x="614" y="37" type="curve" smooth="yes"/>
      <point x="250" y="422" type="line" smooth="yes"/>
      <point x="212" y="462"/>
      <point x="191" y="495"/>
      <point x="191" y="545" type="curve" smooth="yes"/>
      <point x="191" y="608"/>
      <point x="231" y="646"/>
      <point x="290" y="646" type="curve" smooth="yes"/>
      <point x="343" y="646"/>
      <point x="384" y="616"/>
      <point x="384" y="561" type="curve" smooth="yes"/>
      <point x="384" y="400"/>
      <point x="58" y="439"/>
    </contour>
  </outline>
</glyph>
<glyph name="plus" format="2">
	<unicode hex="002B"/>
	<advance width="610"/>
	<outline>
		<contour>
			<point x="305" y="124" type="curve" smooth="yes"/>
			<point x="328" y="124"/>
			<point x="339" y="131"/>
			<point x="339" y="145" type="curve" smooth="yes"/>
			<point x="339" y="553" type="line" smooth="yes"/>
			<point x="339" y="567"/>
			<point x="328" y="574"/>
			<point x="305" y="574" type="curve" smooth="yes"/>
			<point x="282" y="574"/>
			<point x="271" y="567"/>
			<point x="271" y="553" type="curve" smooth="yes"/>
			<point x="271" y="145" type="line" smooth="yes"/>
			<point x="271" y="131"/>
			<point x="282" y="124"/>
		</contour>
		<component base="minus"/>
	</outline>
</glyph>
<glyph name="comma" format="2">
	<unicode hex="002C"/>
	<advance width="250"/>
	<outline>
		<contour>
			<point x="82" y="-151" type="curve" smooth="yes"/>
			<point x="93" y="-151"/>
			<point x="100" y="-144"/>
			<point x="105" y="-138" type="curve" smooth="yes"/>
			<point x="147" y="-87"/>
			<point x="163" y="-21"/>
			<point x="163" y="35" type="curve" smooth="yes"/>
			<point x="163" y="55"/>
			<point x="148" y="67"/>
			<point x="124" y="67" type="curve" smooth="yes"/>
			<point x="101" y="67"/>
			<point x="86" y="57"/>
			<point x="86" y="37" type="curve" smooth="yes"/>
			<point x="86" y="-37"/>
			<point x="82" y="-59"/>
			<point x="59" y="-106" type="curve" smooth="yes"/>
			<point x="54" y="-115"/>
			<point x="51" y="-122"/>
			<point x="51" y="-126" type="curve" smooth="yes"/>
			<point x="51" y="-140"/>
			<point x="67" y="-151"/>
		</contour>
	</outline>
</glyph>
<glyph name="period" format="2">
	<unicode hex="002E"/>
	<advance width="250"/>
	<outline>
		<contour>
			<point x="125" y="-27" type="curve" smooth="yes"/>
			<point x="158" y="-27"/>
			<point x="175" y="-10"/>
			<point x="175" y="25" type="curve" smooth="yes"/>
			<point x="175" y="60"/>
			<point x="158" y="77"/>
			<point x="125" y="77" type="curve" smooth="yes"/>
			<point x="92" y="77"/>
			<point x="75" y="60"/>
			<point x="75" y="25" type="curve" smooth="yes"/>
			<point x="75" y="-10"/>
			<point x="92" y="-27"/>
		</contour>
	</outline>
</glyph>
<glyph name="zero" format="2">
  <advance width="610"/>
  <unicode hex="0030"/>
  <outline>
    <contour>
      <point x="307" y="-15" type="curve" smooth="yes"/>
      <point x="455" y="-15"/>
      <point x="566" y="97"/>
      <point x="566" y="349" type="curve" smooth="yes"/>
      <point x="566" y="600"/>
      <point x="455" y="712"/>
      <point x="307" y="712" type="curve" smooth="yes"/>
      <point x="155" y="712"/>
      <point x="44" y="600"/>
      <point x="44" y="349" type="curve" smooth="yes"/>
      <point x="44" y="97"/>
      <point x="155" y="-15"/>
    </contour>
    <contour>
      <point x="305" y="53" type="curve" smooth="yes"/>
      <point x="196" y="53"/>
      <point x="119" y="146"/>
      <point x="119" y="349" type="curve" smooth="yes"/>
      <point x="119" y="552"/>
      <point x="196" y="644"/>
      <point x="305" y="644" type="curve" smooth="yes"/>
      <point x="414" y="644"/>
      <point x="491" y="552"/>
      <point x="491" y="349" type="curve" smooth="yes"/>
      <point x="491" y="146"/>
      <point x="414" y="53"/>
    </contour>
  </outline>
</glyph>
<glyph name="one" format="2">
  <advance width="450"/>
  <unicode hex="0031"/>
  <outline>
    <contour>
      <point x="243" y="-14" type="curve" smooth="yes"/>
      <point x="274" y="-14"/>
      <point x="286" y="-4"/>
      <point x="286" y="14" type="curve" smooth="yes"/>
      <point x="286" y="863" type="line" smooth="yes"/>
      <point x="286" y="876"/>
      <point x="278" y="890"/>
      <point x="246" y="890" type="curve" smooth="yes"/>
      <point x="216" y="890"/>
      <point x="208" y="885"/>
      <point x="190" y="868" type="curve" smooth="yes"/>
      <point x="125" y="804"/>
      <point x="83" y="775"/>
      <point x="28" y="739" type="curve" smooth="yes"/>
      <point x="-1" y="720"/>
      <point x="-2" y="708"/>
      <point x="15" y="681" type="curve" smooth="yes"/>
      <point x="33" y="656"/>
      <point x="49" y="660"/>
      <point x="68" y="670" type="curve" smooth="yes"/>
      <point x="106" y="693"/>
      <point x="155" y="729"/>
      <point x="199" y="766" type="curve"/>
      <point x="199" y="14" type="line" smooth="yes"/>
      <point x="199" y="-4"/>
      <point x="211" y="-14"/>
    </contour>
  </outline>
</glyph>
<glyph name="two" format="2">
	<unicode hex="0032"/>
	<advance width="530"/>
	<outline>
		<contour>
			<point x="57" y="0" type="curve" smooth="yes"/>
			<point x="461" y="0" type="line" smooth="yes"/>
			<point x="479" y="0"/>
			<point x="483" y="12"/>
			<point x="483" y="34" type="curve" smooth="yes"/>
			<point x="483" y="57"/>
			<point x="476" y="64"/>
			<point x="461" y="64" type="curve" smooth="yes"/>
			<point x="142" y="64" type="line"/>
			<point x="248" y="169" type="line" smooth="yes"/>
			<point x="410" y="329"/>
			<point x="472" y="428"/>
			<point x="472" y="532" type="curve" smooth="yes"/>
			<point x="472" y="653"/>
			<point x="377" y="712"/>
			<point x="258" y="712" type="curve" smooth="yes"/>
			<point x="165" y="712"/>
			<point x="85" y="667"/>
			<point x="52" y="627" type="curve" smooth="yes"/>
			<point x="42" y="615"/>
			<point x="35" y="602"/>
			<point x="54" y="585" type="curve" smooth="yes"/>
			<point x="70" y="571"/>
			<point x="81" y="570"/>
			<point x="99" y="585" type="curve" smooth="yes"/>
			<point x="143" y="622"/>
			<point x="186" y="647"/>
			<point x="249" y="647" type="curve" smooth="yes"/>
			<point x="345" y="647"/>
			<point x="402" y="616"/>
			<point x="402" y="527" type="curve" smooth="yes"/>
			<point x="402" y="443"/>
			<point x="347" y="357"/>
			<point x="201" y="213" type="curve" smooth="yes"/>
			<point x="39" y="53" type="line" smooth="yes"/>
			<point x="16" y="30"/>
			<point x="36" y="0"/>
		</contour>
	</outline>
</glyph>
<glyph name="three" format="2">
	<unicode hex="0033"/>
	<advance width="530"/>
	<outline>
		<contour>
			<point x="250" y="-15" type="curve" smooth="yes"/>
			<point x="399" y="-15"/>
			<point x="484" y="66"/>
			<point x="484" y="196" type="curve" smooth="yes"/>
			<point x="484" y="278"/>
			<point x="436" y="354"/>
			<point x="334" y="378" type="curve"/>
			<point x="419" y="405"/>
			<point x="454" y="469"/>
			<point x="454" y="535" type="curve" smooth="yes"/>
			<point x="454" y="651"/>
			<point x="362" y="712"/>
			<point x="247" y="712" type="curve" smooth="yes"/>
			<point x="163" y="712"/>
			<point x="89" y="671"/>
			<point x="48" y="629" type="curve" smooth="yes"/>
			<point x="37" y="618"/>
			<point x="32" y="604"/>
			<point x="50" y="587" type="curve" smooth="yes"/>
			<point x="65" y="572"/>
			<point x="76" y="573"/>
			<point x="95" y="587" type="curve" smooth="yes"/>
			<point x="140" y="622"/>
			<point x="190" y="648"/>
			<point x="247" y="648" type="curve" smooth="yes"/>
			<point x="310" y="648"/>
			<point x="382" y="613"/>
			<point x="382" y="533" type="curve" smooth="yes"/>
			<point x="382" y="470"/>
			<point x="338" y="409"/>
			<point x="239" y="409" type="curve" smooth="yes"/>
			<point x="193" y="409" type="line" smooth="yes"/>
			<point x="178" y="409"/>
			<point x="171" y="402"/>
			<point x="171" y="379" type="curve" smooth="yes"/>
			<point x="171" y="357"/>
			<point x="175" y="345"/>
			<point x="193" y="345" type="curve" smooth="yes"/>
			<point x="237" y="345" type="line" smooth="yes"/>
			<point x="343" y="345"/>
			<point x="411" y="281"/>
			<point x="411" y="198" type="curve" smooth="yes"/>
			<point x="411" y="100"/>
			<point x="345" y="49"/>
			<point x="249" y="49" type="curve" smooth="yes"/>
			<point x="186" y="49"/>
			<point x="123" y="85"/>
			<point x="73" y="144" type="curve" smooth="yes"/>
			<point x="59" y="161"/>
			<point x="45" y="159"/>
			<point x="29" y="145" type="curve" smooth="yes"/>
			<point x="10" y="128"/>
			<point x="16" y="114"/>
			<point x="26" y="102" type="curve" smooth="yes"/>
			<point x="89" y="23"/>
			<point x="170" y="-15"/>
		</contour>
	</outline>
</glyph>
<glyph name="four" format="2">
  <advance width="540"/>
  <unicode hex="0034"/>
  <outline>
    <contour>
      <point x="54" y="178" type="curve" smooth="yes"/>
      <point x="504" y="178" type="line" smooth="yes"/>
      <point x="522" y="178"/>
      <point x="526" y="190"/>
      <point x="526" y="212" type="curve" smooth="yes"/>
      <point x="526" y="235"/>
      <point x="519" y="242"/>
      <point x="504" y="242" type="curve" smooth="yes"/>
      <point x="109" y="242" type="line"/>
      <point x="311" y="677" type="line" smooth="yes"/>
      <point x="323" y="702"/>
      <point x="309" y="712"/>
      <point x="285" y="712" type="curve" smooth="yes"/>
      <point x="259" y="712"/>
      <point x="251" y="706"/>
      <point x="243" y="688" type="curve" smooth="yes"/>
      <point x="29" y="221" type="line" smooth="yes"/>
      <point x="19" y="199"/>
      <point x="34" y="178"/>
    </contour>
    <contour>
      <point x="399" y="-11" type="curve" smooth="yes"/>
      <point x="422" y="-11"/>
      <point x="434" y="-4"/>
      <point x="434" y="11" type="curve" smooth="yes"/>
      <point x="434" y="470" type="line" smooth="yes"/>
      <point x="434" y="485"/>
      <point x="422" y="492"/>
      <point x="399" y="492" type="curve" smooth="yes"/>
      <point x="376" y="492"/>
      <point x="364" y="485"/>
      <point x="364" y="470" type="curve" smooth="yes"/>
      <point x="364" y="11" type="line" smooth="yes"/>
      <point x="364" y="-4"/>
      <point x="376" y="-11"/>
    </contour>
  </outline>
</glyph>
<glyph name="five" format="2">
  <advance width="663"/>
  <unicode hex="0035"/>
  <outline>
    <contour>
      <point x="319" y="-19" type="curve" smooth="yes"/>
      <point x="494" y="-19"/>
      <point x="606" y="85"/>
      <point x="606" y="275" type="curve" smooth="yes"/>
      <point x="606" y="443"/>
      <point x="503" y="565"/>
      <point x="324" y="565" type="curve" smooth="yes"/>
      <point x="264" y="565"/>
      <point x="214" y="543"/>
      <point x="178" y="515" type="curve"/>
      <point x="188" y="795" type="line"/>
      <point x="553" y="795" type="line" smooth="yes"/>
      <point x="575" y="795"/>
      <point x="580" y="810"/>
      <point x="580" y="838" type="curve" smooth="yes"/>
      <point x="580" y="866"/>
      <point x="571" y="875"/>
      <point x="553" y="875" type="curve" smooth="yes"/>
      <point x="135" y="875" type="line" smooth="yes"/>
      <point x="120" y="875"/>
      <point x="110" y="865"/>
      <point x="110" y="854" type="curve" smooth="yes"/>
      <point x="94" y="431" type="line" smooth="yes"/>
      <point x="93" y="408"/>
      <point x="131" y="383"/>
      <point x="168" y="423" type="curve" smooth="yes"/>
      <point x="201" y="460"/>
      <point x="256" y="485"/>
      <point x="321" y="485" type="curve" smooth="yes"/>
      <point x="449" y="485"/>
      <point x="515" y="393"/>
      <point x="515" y="275" type="curve" smooth="yes"/>
      <point x="515" y="135"/>
      <point x="456" y="61"/>
      <point x="318" y="61" type="curve" smooth="yes"/>
      <point x="229" y="61"/>
      <point x="175" y="106"/>
      <point x="116" y="180" type="curve" smooth="yes"/>
      <point x="99" y="201"/>
      <point x="81" y="199"/>
      <point x="61" y="181" type="curve" smooth="yes"/>
      <point x="38" y="160"/>
      <point x="46" y="143"/>
      <point x="58" y="128" type="curve" smooth="yes"/>
      <point x="133" y="29"/>
      <point x="218" y="-19"/>
    </contour>
  </outline>
</glyph>
<glyph name="six" format="2">
	<unicode hex="0036"/>
	<advance width="570"/>
	<outline>
		<contour>
			<point x="300" y="-15" type="curve" smooth="yes"/>
			<point x="442" y="-15"/>
			<point x="530" y="78"/>
			<point x="530" y="220" type="curve" smooth="yes"/>
			<point x="530" y="357"/>
			<point x="442" y="442"/>
			<point x="303" y="442" type="curve" smooth="yes"/>
			<point x="204" y="442"/>
			<point x="120" y="381"/>
			<point x="92" y="293" type="curve"/>
			<point x="116" y="256" type="line"/>
			<point x="146" y="325"/>
			<point x="216" y="378"/>
			<point x="302" y="378" type="curve" smooth="yes"/>
			<point x="397" y="378"/>
			<point x="457" y="316"/>
			<point x="457" y="218" type="curve" smooth="yes"/>
			<point x="457" y="116"/>
			<point x="399" y="49"/>
			<point x="300" y="49" type="curve" smooth="yes"/>
			<point x="206" y="49"/>
			<point x="133" y="128"/>
			<point x="133" y="280" type="curve" smooth="yes"/>
			<point x="133" y="503"/>
			<point x="225" y="632"/>
			<point x="431" y="648" type="curve" smooth="yes"/>
			<point x="451" y="650"/>
			<point x="456" y="659"/>
			<point x="454" y="684" type="curve" smooth="yes"/>
			<point x="452" y="706"/>
			<point x="445" y="712"/>
			<point x="404" y="709" type="curve" smooth="yes"/>
			<point x="193" y="691"/>
			<point x="60" y="556"/>
			<point x="60" y="280" type="curve" smooth="yes"/>
			<point x="60" y="104"/>
			<point x="145" y="-15"/>
		</contour>
	</outline>
	<guideline x="-20" y="349" angle="0"/>
	<guideline x="290"/>
	<guideline x="70"/>
	<guideline x="500"/>
</glyph>
<glyph name="seven" format="2">
  <advance width="538"/>
  <unicode hex="0037"/>
  <guideline x="16"/>
  <guideline x="414"/>
  <outline>
    <contour>
      <point x="145" y="-10" type="curve" smooth="yes"/>
      <point x="183" y="-24"/>
      <point x="193" y="-9"/>
      <point x="206" y="25" type="curve" smooth="yes"/>
      <point x="516" y="825" type="line" smooth="yes"/>
      <point x="525" y="849"/>
      <point x="508" y="875"/>
      <point x="484" y="875" type="curve" smooth="yes"/>
      <point x="23" y="875" type="line" smooth="yes"/>
      <point x="0" y="875"/>
      <point x="-5" y="860"/>
      <point x="-5" y="833" type="curve" smooth="yes"/>
      <point x="-5" y="804"/>
      <point x="4" y="795"/>
      <point x="23" y="795" type="curve" smooth="yes"/>
      <point x="414" y="795" type="line"/>
      <point x="120" y="39" type="line" smooth="yes"/>
      <point x="109" y="11"/>
      <point x="114" y="1"/>
    </contour>
  </outline>
</glyph>
<glyph name="eight" format="2">
	<unicode hex="0038"/>
	<advance width="530"/>
	<outline>
		<contour>
			<point x="266" y="-15" type="curve" smooth="yes"/>
			<point x="413" y="-15"/>
			<point x="498" y="60"/>
			<point x="498" y="187" type="curve" smooth="yes"/>
			<point x="498" y="280"/>
			<point x="440" y="347"/>
			<point x="354" y="385" type="curve"/>
			<point x="438" y="424"/>
			<point x="468" y="488"/>
			<point x="468" y="547" type="curve" smooth="yes"/>
			<point x="468" y="664"/>
			<point x="374" y="714"/>
			<point x="266" y="714" type="curve" smooth="yes"/>
			<point x="157" y="714"/>
			<point x="63" y="663"/>
			<point x="63" y="547" type="curve" smooth="yes"/>
			<point x="63" y="465"/>
			<point x="110" y="410"/>
			<point x="178" y="375" type="curve"/>
			<point x="77" y="335"/>
			<point x="33" y="257"/>
			<point x="33" y="188" type="curve" smooth="yes"/>
			<point x="33" y="53"/>
			<point x="119" y="-15"/>
		</contour>
		<contour>
			<point x="266" y="49" type="curve" smooth="yes"/>
			<point x="164" y="49"/>
			<point x="106" y="91"/>
			<point x="106" y="187" type="curve" smooth="yes"/>
			<point x="106" y="257"/>
			<point x="162" y="317"/>
			<point x="255" y="347" type="curve"/>
			<point x="361" y="315"/>
			<point x="425" y="264"/>
			<point x="425" y="187" type="curve" smooth="yes"/>
			<point x="425" y="93"/>
			<point x="368" y="49"/>
		</contour>
		<contour>
			<point x="277" y="410" type="curve"/>
			<point x="182" y="437"/>
			<point x="135" y="487"/>
			<point x="135" y="547" type="curve" smooth="yes"/>
			<point x="135" y="620"/>
			<point x="197" y="650"/>
			<point x="266" y="650" type="curve" smooth="yes"/>
			<point x="335" y="650"/>
			<point x="396" y="619"/>
			<point x="396" y="547" type="curve" smooth="yes"/>
			<point x="396" y="481"/>
			<point x="351" y="433"/>
		</contour>
	</outline>
	<guideline x="478"/>
	<guideline x="53"/>
</glyph>
<glyph name="question" format="2">
  <advance width="398"/>
  <unicode hex="003F"/>
  <guideline x="361"/>
  <guideline x="15"/>
  <outline>
    <contour>
      <point x="156" y="172" type="curve" smooth="yes"/>
      <point x="179" y="172"/>
      <point x="191" y="179"/>
      <point x="191" y="194" type="curve" smooth="yes"/>
      <point x="191" y="306" type="line"/>
      <point x="288" y="323"/>
      <point x="388" y="378"/>
      <point x="388" y="515" type="curve" smooth="yes"/>
      <point x="388" y="645"/>
      <point x="298" y="712"/>
      <point x="192" y="712" type="curve" smooth="yes"/>
      <point x="132" y="712"/>
      <point x="66" y="685"/>
      <point x="19" y="640" type="curve" smooth="yes"/>
      <point x="7" y="629"/>
      <point x="11" y="617"/>
      <point x="23" y="604" type="curve" smooth="yes"/>
      <point x="37" y="590"/>
      <point x="48" y="587"/>
      <point x="61" y="598" type="curve" smooth="yes"/>
      <point x="90" y="624"/>
      <point x="128" y="648"/>
      <point x="192" y="648" type="curve" smooth="yes"/>
      <point x="273" y="648"/>
      <point x="316" y="593"/>
      <point x="316" y="517" type="curve" smooth="yes"/>
      <point x="316" y="405"/>
      <point x="243" y="368"/>
      <point x="148" y="368" type="curve" smooth="yes"/>
      <point x="130" y="368"/>
      <point x="121" y="359"/>
      <point x="121" y="346" type="curve" smooth="yes"/>
      <point x="121" y="194" type="line" smooth="yes"/>
      <point x="121" y="179"/>
      <point x="133" y="172"/>
    </contour>
    <contour>
      <point x="156" y="-11" type="curve" smooth="yes"/>
      <point x="185" y="-11"/>
      <point x="200" y="5"/>
      <point x="200" y="39" type="curve" smooth="yes"/>
      <point x="200" y="73"/>
      <point x="185" y="90"/>
      <point x="156" y="90" type="curve" smooth="yes"/>
      <point x="126" y="90"/>
      <point x="111" y="73"/>
      <point x="111" y="39" type="curve" smooth="yes"/>
      <point x="111" y="5"/>
      <point x="126" y="-11"/>
    </contour>
  </outline>
</glyph>
<glyph name="at" format="2">
  <advance width="878"/>
  <unicode hex="0040"/>
  <outline>
    <contour>
      <point x="261" y="248" type="curve" smooth="yes"/>
      <point x="261" y="115"/>
      <point x="323" y="54"/>
      <point x="411" y="54" type="curve" smooth="yes"/>
      <point x="458" y="54"/>
      <point x="498" y="71"/>
      <point x="530" y="119" type="curve"/>
      <point x="530" y="118"/>
      <point x="530" y="116"/>
      <point x="530" y="115" type="curve" smooth="yes"/>
      <point x="530" y="88"/>
      <point x="555" y="54"/>
      <point x="610" y="54" type="curve" smooth="yes"/>
      <point x="734" y="54"/>
      <point x="833" y="164"/>
      <point x="833" y="311" type="curve" smooth="yes"/>
      <point x="833" y="520"/>
      <point x="686" y="658"/>
      <point x="454" y="658" type="curve" smooth="yes"/>
      <point x="208" y="658"/>
      <point x="60" y="471"/>
      <point x="60" y="255" type="curve" smooth="yes"/>
      <point x="60" y="39"/>
      <point x="195" y="-147"/>
      <point x="444" y="-147" type="curve" smooth="yes"/>
      <point x="525" y="-147"/>
      <point x="606" y="-129"/>
      <point x="670" y="-96" type="curve" smooth="yes"/>
      <point x="683" y="-90"/>
      <point x="686" y="-77"/>
      <point x="676" y="-57" type="curve" smooth="yes"/>
      <point x="668" y="-39"/>
      <point x="655" y="-31"/>
      <point x="643" y="-37" type="curve" smooth="yes"/>
      <point x="584" y="-66"/>
      <point x="515" y="-85"/>
      <point x="444" y="-85" type="curve" smooth="yes"/>
      <point x="228" y="-85"/>
      <point x="126" y="59"/>
      <point x="126" y="255" type="curve" smooth="yes"/>
      <point x="126" y="446"/>
      <point x="238" y="595"/>
      <point x="454" y="595" type="curve" smooth="yes"/>
      <point x="659" y="595"/>
      <point x="766" y="488"/>
      <point x="766" y="306" type="curve" smooth="yes"/>
      <point x="766" y="204"/>
      <point x="711" y="118"/>
      <point x="629" y="118" type="curve" smooth="yes"/>
      <point x="619" y="118"/>
      <point x="609" y="123"/>
      <point x="609" y="139" type="curve" smooth="yes"/>
      <point x="609" y="440" type="line" smooth="yes"/>
      <point x="609" y="456"/>
      <point x="595" y="464"/>
      <point x="570" y="464" type="curve" smooth="yes"/>
      <point x="544" y="464"/>
      <point x="536" y="456"/>
      <point x="531" y="443" type="curve" smooth="yes"/>
      <point x="530" y="439" type="line"/>
      <point x="501" y="455"/>
      <point x="461" y="468"/>
      <point x="431" y="468" type="curve" smooth="yes"/>
      <point x="326" y="468"/>
      <point x="261" y="384"/>
    </contour>
    <contour>
      <point x="341" y="250" type="curve" smooth="yes"/>
      <point x="341" y="350"/>
      <point x="383" y="395"/>
      <point x="441" y="395" type="curve" smooth="yes"/>
      <point x="470" y="395"/>
      <point x="499" y="391"/>
      <point x="530" y="374" type="curve"/>
      <point x="530" y="190" type="line"/>
      <point x="500" y="146"/>
      <point x="464" y="128"/>
      <point x="423" y="128" type="curve" smooth="yes"/>
      <point x="368" y="128"/>
      <point x="341" y="171"/>
    </contour>
  </outline>
</glyph>
<glyph name="A" format="2">
  <advance width="752"/>
  <unicode hex="0041"/>
  <guideline x="44" y="-11" angle="0"/>
  <anchor x="375" y="0" name="bottom"/>
  <anchor x="718" y="-2" name="ogonek"/>
  <anchor x="375" y="838" name="top"/>
  <outline>
    <contour>
      <point x="61" y="-14" type="curve" smooth="yes"/>
      <point x="90" y="-14"/>
      <point x="99" y="-4"/>
      <point x="109" y="23" type="curve" smooth="yes"/>
      <point x="189" y="244" type="line"/>
      <point x="560" y="244" type="line"/>
      <point x="640" y="23" type="line" smooth="yes"/>
      <point x="650" y="-4"/>
      <point x="659" y="-14"/>
      <point x="689" y="-14" type="curve" smooth="yes"/>
      <point x="724" y="-14"/>
      <point x="739" y="4"/>
      <point x="729" y="31" type="curve" smooth="yes"/>
      <point x="431" y="850" type="line" smooth="yes"/>
      <point x="420" y="881"/>
      <point x="408" y="890"/>
      <point x="376" y="890" type="curve" smooth="yes"/>
      <point x="344" y="890"/>
      <point x="331" y="881"/>
      <point x="320" y="850" type="curve" smooth="yes"/>
      <point x="23" y="31" type="line" smooth="yes"/>
      <point x="13" y="4"/>
      <point x="26" y="-14"/>
    </contour>
    <contour>
      <point x="218" y="324" type="line"/>
      <point x="375" y="759" type="line"/>
      <point x="531" y="324" type="line"/>
    </contour>
  </outline>
</glyph>
<glyph name="C" format="2">
	<unicode hex="0043"/>
	<advance width="620"/>
	<outline>
		<contour>
			<point x="371" y="-15" type="curve" smooth="yes"/>
			<point x="450" y="-15"/>
			<point x="529" y="21"/>
			<point x="594" y="114" type="curve" smooth="yes"/>
			<point x="603" y="126"/>
			<point x="599" y="134"/>
			<point x="585" y="146" type="curve" smooth="yes"/>
			<point x="570" y="158"/>
			<point x="558" y="161"/>
			<point x="549" y="151" type="curve" smooth="yes"/>
			<point x="498" y="94"/>
			<point x="444" y="53"/>
			<point x="371" y="53" type="curve" smooth="yes"/>
			<point x="237" y="53"/>
			<point x="140" y="161"/>
			<point x="140" y="349" type="curve" smooth="yes"/>
			<point x="140" y="536"/>
			<point x="237" y="644"/>
			<point x="371" y="644" type="curve" smooth="yes"/>
			<point x="435" y="644"/>
			<point x="492" y="620"/>
			<point x="533" y="579" type="curve" smooth="yes"/>
			<point x="543" y="569"/>
			<point x="553" y="571"/>
			<point x="568" y="584" type="curve" smooth="yes"/>
			<point x="581" y="595"/>
			<point x="586" y="604"/>
			<point x="577" y="617" type="curve" smooth="yes"/>
			<point x="524" y="693"/>
			<point x="444" y="712"/>
			<point x="371" y="712" type="curve" smooth="yes"/>
			<point x="184" y="712"/>
			<point x="65" y="560"/>
			<point x="65" y="349" type="curve" smooth="yes"/>
			<point x="65" y="138"/>
			<point x="184" y="-15"/>
		</contour>
	</outline>
	<anchor name="bottom" x="352" y="0"/>
	<anchor name="top" x="365" y="670"/>
</glyph>
<glyph name="D" format="2">
  <advance width="695"/>
  <unicode hex="0044"/>
  <anchor x="317" y="0" name="bottom"/>
  <anchor x="186" y="355" name="center"/>
  <anchor x="326" y="670" name="top"/>
  <outline>
    <contour>
      <point x="135" y="0" type="curve" smooth="yes"/>
      <point x="235" y="0" type="line" smooth="yes"/>
      <point x="512" y="0"/>
      <point x="630" y="153"/>
      <point x="630" y="386" type="curve" smooth="yes"/>
      <point x="630" y="548"/>
      <point x="522" y="700"/>
      <point x="280" y="700" type="curve" smooth="yes"/>
      <point x="135" y="700" type="line" smooth="yes"/>
      <point x="112" y="700"/>
      <point x="100" y="693"/>
      <point x="100" y="678" type="curve" smooth="yes"/>
      <point x="100" y="22" type="line" smooth="yes"/>
      <point x="100" y="7"/>
      <point x="112" y="0"/>
    </contour>
    <contour>
      <point x="170" y="68" type="line"/>
      <point x="170" y="632" type="line"/>
      <point x="280" y="632" type="line" smooth="yes"/>
      <point x="459" y="632"/>
      <point x="555" y="524"/>
      <point x="555" y="386" type="curve" smooth="yes"/>
      <point x="555" y="176"/>
      <point x="459" y="68"/>
      <point x="235" y="68" type="curve" smooth="yes"/>
    </contour>
  </outline>
</glyph>
<glyph name="E" format="2">
	<unicode hex="0045"/>
	<advance width="530"/>
	<outline>
		<contour>
			<point x="135" y="0" type="curve" smooth="yes"/>
			<point x="478" y="0" type="line" smooth="yes"/>
			<point x="494" y="0"/>
			<point x="500" y="8"/>
			<point x="500" y="32" type="curve" smooth="yes"/>
			<point x="500" y="56"/>
			<point x="494" y="64"/>
			<point x="478" y="64" type="curve" smooth="yes"/>
			<point x="170" y="64" type="line"/>
			<point x="170" y="338" type="line"/>
			<point x="428" y="338" type="line" smooth="yes"/>
			<point x="444" y="338"/>
			<point x="450" y="346"/>
			<point x="450" y="370" type="curve" smooth="yes"/>
			<point x="450" y="394"/>
			<point x="444" y="402"/>
			<point x="428" y="402" type="curve" smooth="yes"/>
			<point x="170" y="402" type="line"/>
			<point x="170" y="636" type="line"/>
			<point x="478" y="636" type="line" smooth="yes"/>
			<point x="494" y="636"/>
			<point x="500" y="644"/>
			<point x="500" y="668" type="curve" smooth="yes"/>
			<point x="500" y="692"/>
			<point x="494" y="700"/>
			<point x="478" y="700" type="curve" smooth="yes"/>
			<point x="135" y="700" type="line" smooth="yes"/>
			<point x="112" y="700"/>
			<point x="100" y="693"/>
			<point x="100" y="678" type="curve" smooth="yes"/>
			<point x="100" y="32" type="line" smooth="yes"/>
			<point x="100" y="10"/>
			<point x="112" y="0"/>
		</contour>
	</outline>
	<anchor name="bottom" x="294" y="0"/>
	<anchor name="ogonek" x="487" y="10"/>
	<anchor name="top" x="309" y="670"/>
</glyph>
<glyph name="F" format="2">
	<unicode hex="0046"/>
	<advance width="500"/>
	<outline>
		<contour>
			<point x="135" y="-11" type="curve"/>
			<point x="158" y="-11"/>
			<point x="170" y="-4"/>
			<point x="170" y="11" type="curve" smooth="yes"/>
			<point x="170" y="318" type="line"/>
			<point x="418" y="318" type="line" smooth="yes"/>
			<point x="434" y="318"/>
			<point x="440" y="326"/>
			<point x="440" y="350" type="curve" smooth="yes"/>
			<point x="440" y="374"/>
			<point x="434" y="382"/>
			<point x="418" y="382" type="curve" smooth="yes"/>
			<point x="170" y="382" type="line"/>
			<point x="170" y="636" type="line"/>
			<point x="468" y="636" type="line" smooth="yes"/>
			<point x="484" y="636"/>
			<point x="490" y="644"/>
			<point x="490" y="668" type="curve" smooth="yes"/>
			<point x="490" y="692"/>
			<point x="484" y="700"/>
			<point x="468" y="700" type="curve" smooth="yes"/>
			<point x="135" y="700" type="line" smooth="yes"/>
			<point x="112" y="700"/>
			<point x="100" y="693"/>
			<point x="100" y="678" type="curve" smooth="yes"/>
			<point x="100" y="11" type="line" smooth="yes"/>
			<point x="100" y="-4"/>
			<point x="112" y="-11"/>
		</contour>
	</outline>
</glyph>
<glyph name="G" format="2">
	<unicode hex="0047"/>
	<advance width="700"/>
	<outline>
		<contour>
			<point x="361" y="-15" type="curve" smooth="yes"/>
			<point x="510" y="-16"/>
			<point x="631" y="85"/>
			<point x="631" y="342" type="curve" smooth="yes"/>
			<point x="631" y="366"/>
			<point x="625" y="374"/>
			<point x="609" y="374" type="curve" smooth="yes"/>
			<point x="378" y="374" type="line" smooth="yes"/>
			<point x="362" y="374"/>
			<point x="356" y="366"/>
			<point x="356" y="342" type="curve" smooth="yes"/>
			<point x="356" y="318"/>
			<point x="362" y="310"/>
			<point x="378" y="310" type="curve" smooth="yes"/>
			<point x="559" y="310" type="line"/>
			<point x="556" y="129"/>
			<point x="492" y="53"/>
			<point x="361" y="53" type="curve" smooth="yes"/>
			<point x="237" y="53"/>
			<point x="140" y="161"/>
			<point x="140" y="349" type="curve" smooth="yes"/>
			<point x="140" y="536"/>
			<point x="237" y="644"/>
			<point x="371" y="644" type="curve" smooth="yes"/>
			<point x="435" y="644"/>
			<point x="492" y="620"/>
			<point x="533" y="579" type="curve" smooth="yes"/>
			<point x="543" y="569"/>
			<point x="553" y="571"/>
			<point x="568" y="584" type="curve" smooth="yes"/>
			<point x="581" y="595"/>
			<point x="586" y="604"/>
			<point x="577" y="617" type="curve" smooth="yes"/>
			<point x="524" y="693"/>
			<point x="444" y="712"/>
			<point x="371" y="712" type="curve" smooth="yes"/>
			<point x="184" y="712"/>
			<point x="65" y="560"/>
			<point x="65" y="349" type="curve" smooth="yes"/>
			<point x="65" y="138"/>
			<point x="184" y="-14"/>
		</contour>
	</outline>
	<anchor name="bottom" x="350" y="0"/>
	<anchor name="top" x="360" y="670"/>
</glyph>
<glyph name="H" format="2">
	<unicode hex="0048"/>
	<advance width="710"/>
	<outline>
		<contour>
			<point x="135" y="-11" type="curve" smooth="yes"/>
			<point x="158" y="-11"/>
			<point x="170" y="-4"/>
			<point x="170" y="11" type="curve" smooth="yes"/>
			<point x="170" y="335" type="line"/>
			<point x="540" y="335" type="line"/>
			<point x="540" y="11" type="line" smooth="yes"/>
			<point x="540" y="-4"/>
			<point x="552" y="-11"/>
			<point x="575" y="-11" type="curve" smooth="yes"/>
			<point x="598" y="-11"/>
			<point x="610" y="-4"/>
			<point x="610" y="11" type="curve" smooth="yes"/>
			<point x="610" y="690" type="line" smooth="yes"/>
			<point x="610" y="705"/>
			<point x="598" y="712"/>
			<point x="575" y="712" type="curve" smooth="yes"/>
			<point x="552" y="712"/>
			<point x="540" y="705"/>
			<point x="540" y="690" type="curve" smooth="yes"/>
			<point x="540" y="399" type="line"/>
			<point x="170" y="399" type="line"/>
			<point x="170" y="690" type="line" smooth="yes"/>
			<point x="170" y="705"/>
			<point x="158" y="712"/>
			<point x="135" y="712" type="curve" smooth="yes"/>
			<point x="112" y="712"/>
			<point x="100" y="705"/>
			<point x="100" y="690" type="curve" smooth="yes"/>
			<point x="100" y="11" type="line" smooth="yes"/>
			<point x="100" y="-4"/>
			<point x="112" y="-11"/>
		</contour>
	</outline>
	<anchor name="bottom" x="355" y="0"/>
	<anchor name="center" x="355" y="541"/>
	<anchor name="top" x="355" y="670"/>
</glyph>
<glyph name="I" format="2">
	<unicode hex="0049"/>
	<advance width="270"/>
	<outline>
		<contour>
			<point x="135" y="-11" type="curve" smooth="yes"/>
			<point x="158" y="-11"/>
			<point x="170" y="-4"/>
			<point x="170" y="11" type="curve" smooth="yes"/>
			<point x="170" y="690" type="line" smooth="yes"/>
			<point x="170" y="705"/>
			<point x="158" y="712"/>
			<point x="135" y="712" type="curve" smooth="yes"/>
			<point x="112" y="712"/>
			<point x="100" y="705"/>
			<point x="100" y="690" type="curve" smooth="yes"/>
			<point x="100" y="11" type="line" smooth="yes"/>
			<point x="100" y="-4"/>
			<point x="112" y="-11"/>
		</contour>
	</outline>
	<anchor name="bottom" x="135" y="0"/>
	<anchor name="ogonek" x="150" y="-4"/>
	<anchor name="top" x="135" y="670"/>
</glyph>
<glyph name="J" format="2">
	<unicode hex="004A"/>
	<advance width="520"/>
	<outline>
		<contour>
			<point x="231" y="-15" type="curve" smooth="yes"/>
			<point x="347" y="-15"/>
			<point x="435" y="67"/>
			<point x="435" y="218" type="curve" smooth="yes"/>
			<point x="435" y="690" type="line" smooth="yes"/>
			<point x="435" y="705"/>
			<point x="423" y="712"/>
			<point x="400" y="712" type="curve" smooth="yes"/>
			<point x="377" y="712"/>
			<point x="365" y="705"/>
			<point x="365" y="690" type="curve" smooth="yes"/>
			<point x="365" y="218" type="line" smooth="yes"/>
			<point x="365" y="99"/>
			<point x="304" y="53"/>
			<point x="231" y="53" type="curve" smooth="yes"/>
			<point x="143" y="53"/>
			<point x="111" y="85"/>
			<point x="86" y="148" type="curve" smooth="yes"/>
			<point x="81" y="162"/>
			<point x="66" y="161"/>
			<point x="51" y="156" type="curve" smooth="yes"/>
			<point x="35" y="151"/>
			<point x="25" y="143"/>
			<point x="29" y="129" type="curve" smooth="yes"/>
			<point x="59" y="34"/>
			<point x="133" y="-15"/>
		</contour>
	</outline>
	<anchor name="bottom" x="240" y="0"/>
	<anchor name="top" x="400" y="670"/>
</glyph>
<glyph name="K" format="2">
  <advance width="688"/>
  <unicode hex="004B"/>
  <guideline x="502" y="-12" angle="0"/>
  <anchor x="381" y="0" name="bottom"/>
  <anchor x="381" y="838" name="top"/>
  <outline>
    <contour>
      <point x="169" y="-14" type="curve" smooth="yes"/>
      <point x="198" y="-14"/>
      <point x="213" y="-5"/>
      <point x="213" y="14" type="curve" smooth="yes"/>
      <point x="213" y="419" type="line"/>
      <point x="320" y="270"/>
      <point x="458" y="113"/>
      <point x="603" y="-5" type="curve" smooth="yes"/>
      <point x="623" y="-21"/>
      <point x="641" y="-20"/>
      <point x="659" y="-4" type="curve" smooth="yes"/>
      <point x="684" y="21"/>
      <point x="676" y="43"/>
      <point x="661" y="54" type="curve" smooth="yes"/>
      <point x="534" y="156"/>
      <point x="415" y="286"/>
      <point x="278" y="461" type="curve"/>
      <point x="654" y="826" type="line" smooth="yes"/>
      <point x="666" y="839"/>
      <point x="666" y="851"/>
      <point x="648" y="873" type="curve" smooth="yes"/>
      <point x="630" y="891"/>
      <point x="616" y="898"/>
      <point x="600" y="881" type="curve" smooth="yes"/>
      <point x="213" y="508" type="line"/>
      <point x="213" y="863" type="line" smooth="yes"/>
      <point x="213" y="881"/>
      <point x="198" y="890"/>
      <point x="169" y="890" type="curve" smooth="yes"/>
      <point x="140" y="890"/>
      <point x="125" y="881"/>
      <point x="125" y="863" type="curve" smooth="yes"/>
      <point x="125" y="14" type="line" smooth="yes"/>
      <point x="125" y="-5"/>
      <point x="140" y="-14"/>
    </contour>
  </outline>
</glyph>
<glyph name="L" format="2">
	<unicode hex="004C"/>
	<advance width="500"/>
	<outline>
		<contour>
			<point x="135" y="0" type="curve" smooth="yes"/>
			<point x="458" y="0" type="line" smooth="yes"/>
			<point x="474" y="0"/>
			<point x="480" y="8"/>
			<point x="480" y="32" type="curve" smooth="yes"/>
			<point x="480" y="56"/>
			<point x="474" y="64"/>
			<point x="458" y="64" type="curve" smooth="yes"/>
			<point x="170" y="64" type="line"/>
			<point x="170" y="690" type="line" smooth="yes"/>
			<point x="170" y="705"/>
			<point x="158" y="712"/>
			<point x="135" y="712" type="curve" smooth="yes"/>
			<point x="112" y="712"/>
			<point x="100" y="705"/>
			<point x="100" y="690" type="curve" smooth="yes"/>
			<point x="100" y="32" type="line" smooth="yes"/>
			<point x="100" y="10"/>
			<point x="112" y="0"/>
		</contour>
	</outline>
	<anchor name="bottom" x="300" y="0"/>
	<anchor name="center" x="135" y="360"/>
	<anchor name="centerCase" x="150" y="360"/>
	<anchor name="top" x="135" y="670"/>
	<anchor name="topright" x="170" y="700"/>
</glyph>
<glyph name="O" format="2">
	<unicode hex="004F"/>
	<advance width="740"/>
	<outline>
		<contour>
			<point x="371" y="-15" type="curve" smooth="yes"/>
			<point x="557" y="-15"/>
			<point x="675" y="138"/>
			<point x="675" y="349" type="curve" smooth="yes"/>
			<point x="675" y="560"/>
			<point x="557" y="712"/>
			<point x="371" y="712" type="curve" smooth="yes"/>
			<point x="184" y="712"/>
			<point x="65" y="560"/>
			<point x="65" y="349" type="curve" smooth="yes"/>
			<point x="65" y="138"/>
			<point x="184" y="-15"/>
		</contour>
		<contour>
			<point x="371" y="53" type="curve" smooth="yes"/>
			<point x="237" y="53"/>
			<point x="140" y="161"/>
			<point x="140" y="349" type="curve" smooth="yes"/>
			<point x="140" y="536"/>
			<point x="237" y="644"/>
			<point x="371" y="644" type="curve" smooth="yes"/>
			<point x="504" y="644"/>
			<point x="600" y="536"/>
			<point x="600" y="349" type="curve" smooth="yes"/>
			<point x="600" y="161"/>
			<point x="504" y="53"/>
		</contour>
	</outline>
	<anchor name="bottom" x="370" y="0"/>
	<anchor name="center" x="370" y="350"/>
	<anchor name="ogonek" x="473" y="5"/>
	<anchor name="top" x="370" y="670"/>
	<anchor name="topright" x="454" y="700"/>
</glyph>
<glyph name="P" format="2">
  <advance width="700"/>
  <unicode hex="0050"/>
  <guideline x="288" y="630" angle="270"/>
  <outline>
    <contour>
      <point x="169" y="-14" type="curve" smooth="yes"/>
      <point x="198" y="-14"/>
      <point x="213" y="-5"/>
      <point x="213" y="14" type="curve" smooth="yes"/>
      <point x="213" y="346" type="line"/>
      <point x="248" y="346"/>
      <point x="295" y="349"/>
      <point x="344" y="356" type="curve" smooth="yes"/>
      <point x="490" y="380"/>
      <point x="663" y="451"/>
      <point x="663" y="656" type="curve" smooth="yes"/>
      <point x="663" y="814"/>
      <point x="559" y="875"/>
      <point x="360" y="875" type="curve" smooth="yes"/>
      <point x="170" y="875" type="line" smooth="yes"/>
      <point x="140" y="875"/>
      <point x="125" y="866"/>
      <point x="125" y="848" type="curve" smooth="yes"/>
      <point x="125" y="14" type="line" smooth="yes"/>
      <point x="125" y="-5"/>
      <point x="140" y="-14"/>
    </contour>
    <contour>
      <point x="213" y="425" type="curve"/>
      <point x="213" y="795" type="line"/>
      <point x="360" y="795" type="line" smooth="yes"/>
      <point x="500" y="795"/>
      <point x="573" y="756"/>
      <point x="573" y="655" type="curve" smooth="yes"/>
      <point x="573" y="511"/>
      <point x="458" y="455"/>
      <point x="344" y="435" type="curve" smooth="yes"/>
      <point x="298" y="428"/>
      <point x="250" y="425"/>
    </contour>
  </outline>
</glyph>
<glyph name="R" format="2">
  <advance width="555"/>
  <unicode hex="0052"/>
  <guideline x="283" y="742" angle="270"/>
  <guideline x="306" y="-13" angle="0"/>
  <anchor x="308" y="0" name="bottom"/>
  <anchor x="278" y="670" name="top"/>
  <outline>
    <contour>
      <point x="135" y="-11" type="curve" smooth="yes"/>
      <point x="158" y="-11"/>
      <point x="170" y="-4"/>
      <point x="170" y="11" type="curve" smooth="yes"/>
      <point x="170" y="303" type="line"/>
      <point x="259" y="199"/>
      <point x="366" y="90"/>
      <point x="482" y="-4" type="curve" smooth="yes"/>
      <point x="498" y="-17"/>
      <point x="513" y="-16"/>
      <point x="527" y="-3" type="curve" smooth="yes"/>
      <point x="547" y="17"/>
      <point x="541" y="34"/>
      <point x="529" y="43" type="curve" smooth="yes"/>
      <point x="423" y="127"/>
      <point x="329" y="220"/>
      <point x="247" y="314" type="curve"/>
      <point x="413" y="326"/>
      <point x="510" y="411"/>
      <point x="510" y="530" type="curve" smooth="yes"/>
      <point x="510" y="655"/>
      <point x="434" y="700"/>
      <point x="267" y="700" type="curve" smooth="yes"/>
      <point x="136" y="700" type="line" smooth="yes"/>
      <point x="112" y="700"/>
      <point x="100" y="693"/>
      <point x="100" y="678" type="curve" smooth="yes"/>
      <point x="100" y="11" type="line" smooth="yes"/>
      <point x="100" y="-4"/>
      <point x="112" y="-11"/>
    </contour>
    <contour>
      <point x="170" y="370" type="curve"/>
      <point x="170" y="636" type="line"/>
      <point x="278" y="636" type="line" smooth="yes"/>
      <point x="387" y="636"/>
      <point x="438" y="609"/>
      <point x="438" y="530" type="curve" smooth="yes"/>
      <point x="438" y="424"/>
      <point x="348" y="370"/>
    </contour>
  </outline>
</glyph>
<glyph name="S" format="2">
	<unicode hex="0053"/>
	<advance width="550"/>
	<outline>
		<contour>
			<point x="260" y="-15" type="curve" smooth="yes"/>
			<point x="408" y="-15"/>
			<point x="496" y="53"/>
			<point x="496" y="186" type="curve" smooth="yes"/>
			<point x="496" y="320"/>
			<point x="387" y="363"/>
			<point x="297" y="390" type="curve" smooth="yes"/>
			<point x="210" y="416"/>
			<point x="151" y="450"/>
			<point x="151" y="536" type="curve" smooth="yes"/>
			<point x="151" y="609"/>
			<point x="200" y="644"/>
			<point x="285" y="644" type="curve" smooth="yes"/>
			<point x="352" y="644"/>
			<point x="396" y="618"/>
			<point x="436" y="585" type="curve" smooth="yes"/>
			<point x="448" y="576"/>
			<point x="460" y="583"/>
			<point x="473" y="597" type="curve" smooth="yes"/>
			<point x="484" y="609"/>
			<point x="487" y="620"/>
			<point x="476" y="630" type="curve" smooth="yes"/>
			<point x="425" y="677"/>
			<point x="365" y="712"/>
			<point x="285" y="712" type="curve" smooth="yes"/>
			<point x="164" y="712"/>
			<point x="77" y="648"/>
			<point x="77" y="536" type="curve" smooth="yes"/>
			<point x="77" y="398"/>
			<point x="186" y="348"/>
			<point x="280" y="319" type="curve" smooth="yes"/>
			<point x="366" y="293"/>
			<point x="422" y="260"/>
			<point x="422" y="186" type="curve" smooth="yes"/>
			<point x="422" y="93"/>
			<point x="370" y="53"/>
			<point x="260" y="53" type="curve" smooth="yes"/>
			<point x="192" y="53"/>
			<point x="142" y="74"/>
			<point x="109" y="105" type="curve" smooth="yes"/>
			<point x="89" y="123"/>
			<point x="82" y="120"/>
			<point x="67" y="104" type="curve" smooth="yes"/>
			<point x="52" y="89"/>
			<point x="53" y="81"/>
			<point x="61" y="70" type="curve" smooth="yes"/>
			<point x="108" y="7"/>
			<point x="200" y="-15"/>
		</contour>
	</outline>
	<anchor name="bottom" x="270" y="0"/>
	<anchor name="top" x="284" y="670"/>
</glyph>
<glyph name="U" format="2">
	<unicode hex="0055"/>
	<advance width="690"/>
	<outline>
		<contour>
			<point x="347" y="-15" type="curve" smooth="yes"/>
			<point x="498" y="-15"/>
			<point x="590" y="73"/>
			<point x="590" y="218" type="curve" smooth="yes"/>
			<point x="590" y="690" type="line" smooth="yes"/>
			<point x="590" y="705"/>
			<point x="578" y="712"/>
			<point x="555" y="712" type="curve" smooth="yes"/>
			<point x="532" y="712"/>
			<point x="520" y="705"/>
			<point x="520" y="690" type="curve" smooth="yes"/>
			<point x="520" y="218" type="line" smooth="yes"/>
			<point x="520" y="115"/>
			<point x="455" y="53"/>
			<point x="347" y="53" type="curve" smooth="yes"/>
			<point x="237" y="53"/>
			<point x="170" y="115"/>
			<point x="170" y="218" type="curve" smooth="yes"/>
			<point x="170" y="690" type="line" smooth="yes"/>
			<point x="170" y="705"/>
			<point x="158" y="712"/>
			<point x="135" y="712" type="curve" smooth="yes"/>
			<point x="112" y="712"/>
			<point x="100" y="705"/>
			<point x="100" y="690" type="curve" smooth="yes"/>
			<point x="100" y="218" type="line" smooth="yes"/>
			<point x="100" y="73"/>
			<point x="194" y="-15"/>
		</contour>
	</outline>
	<anchor name="bottom" x="345" y="0"/>
	<anchor name="ogonek" x="470" y="10"/>
	<anchor name="top" x="345" y="670"/>
	<anchor name="topright" x="566" y="710"/>
</glyph>
<glyph name="V" format="2">
  <advance width="580"/>
  <unicode hex="0056"/>
  <outline>
    <contour>
      <point x="289" y="-11" type="curve" smooth="yes"/>
      <point x="315" y="-11"/>
      <point x="325" y="-4"/>
      <point x="334" y="21" type="curve" smooth="yes"/>
      <point x="568" y="676" type="line" smooth="yes"/>
      <point x="573" y="690"/>
      <point x="566" y="701"/>
      <point x="543" y="709" type="curve" smooth="yes"/>
      <point x="522" y="716"/>
      <point x="508" y="714"/>
      <point x="503" y="700" type="curve" smooth="yes"/>
      <point x="290" y="95" type="line"/>
      <point x="77" y="700" type="line" smooth="yes"/>
      <point x="72" y="714"/>
      <point x="58" y="716"/>
      <point x="37" y="709" type="curve" smooth="yes"/>
      <point x="14" y="701"/>
      <point x="7" y="690"/>
      <point x="12" y="676" type="curve" smooth="yes"/>
      <point x="245" y="21" type="line" smooth="yes"/>
      <point x="254" y="-4"/>
      <point x="264" y="-11"/>
    </contour>
  </outline>
</glyph>
<glyph name="W" format="2">
	<unicode hex="0057"/>
	<advance width="960"/>
	<outline>
		<contour>
			<point x="247" y="-11" type="curve" smooth="yes"/>
			<point x="273" y="-11"/>
			<point x="284" y="-3"/>
			<point x="292" y="21" type="curve" smooth="yes"/>
			<point x="479" y="600" type="line"/>
			<point x="666" y="21" type="line" smooth="yes"/>
			<point x="674" y="-3"/>
			<point x="685" y="-11"/>
			<point x="710" y="-11" type="curve" smooth="yes"/>
			<point x="736" y="-11"/>
			<point x="748" y="-3"/>
			<point x="755" y="21" type="curve" smooth="yes"/>
			<point x="949" y="676" type="line" smooth="yes"/>
			<point x="953" y="690"/>
			<point x="947" y="701"/>
			<point x="924" y="709" type="curve" smooth="yes"/>
			<point x="903" y="716"/>
			<point x="888" y="714"/>
			<point x="883" y="697" type="curve" smooth="yes"/>
			<point x="710" y="101" type="line"/>
			<point x="521" y="683" type="line" smooth="yes"/>
			<point x="514" y="704"/>
			<point x="503" y="712"/>
			<point x="479" y="712" type="curve" smooth="yes"/>
			<point x="456" y="712"/>
			<point x="445" y="704"/>
			<point x="438" y="683" type="curve" smooth="yes"/>
			<point x="249" y="100" type="line"/>
			<point x="77" y="697" type="line" smooth="yes"/>
			<point x="72" y="714"/>
			<point x="57" y="716"/>
			<point x="36" y="709" type="curve" smooth="yes"/>
			<point x="13" y="701"/>
			<point x="7" y="690"/>
			<point x="11" y="676" type="curve" smooth="yes"/>
			<point x="203" y="21" type="line" smooth="yes"/>
			<point x="210" y="-3"/>
			<point x="222" y="-11"/>
		</contour>
	</outline>
	<anchor name="bottom" x="480" y="0"/>
	<anchor name="top" x="480" y="670"/>
</glyph>
<glyph name="Y" format="2">
	<unicode hex="0059"/>
	<advance width="490"/>
	<outline>
		<contour>
			<point x="245" y="-11" type="curve" smooth="yes"/>
			<point x="268" y="-11"/>
			<point x="280" y="-4"/>
			<point x="280" y="11" type="curve" smooth="yes"/>
			<point x="280" y="294" type="line"/>
			<point x="482" y="669" type="line" smooth="yes"/>
			<point x="489" y="682"/>
			<point x="484" y="694"/>
			<point x="462" y="705" type="curve" smooth="yes"/>
			<point x="442" y="715"/>
			<point x="430" y="718"/>
			<point x="420" y="700" type="curve" smooth="yes"/>
			<point x="245" y="371" type="line"/>
			<point x="70" y="700" type="line" smooth="yes"/>
			<point x="61" y="718"/>
			<point x="48" y="715"/>
			<point x="28" y="705" type="curve" smooth="yes"/>
			<point x="6" y="694"/>
			<point x="1" y="682"/>
			<point x="8" y="669" type="curve" smooth="yes"/>
			<point x="210" y="295" type="line"/>
			<point x="210" y="11" type="line" smooth="yes"/>
			<point x="210" y="-4"/>
			<point x="222" y="-11"/>
		</contour>
	</outline>
	<anchor name="bottom" x="240" y="0"/>
	<anchor name="top" x="245" y="670"/>
</glyph>
<glyph name="backslash" format="2">
  <advance width="258"/>
  <unicode hex="005C"/>
  <outline>
    <contour>
      <point x="235" y="-60" type="curve" smooth="yes"/>
      <point x="258" y="-55"/>
      <point x="268" y="-45"/>
      <point x="264" y="-30" type="curve" smooth="yes"/>
      <point x="62" y="747" type="line" smooth="yes"/>
      <point x="58" y="762"/>
      <point x="45" y="766"/>
      <point x="23" y="760" type="curve" smooth="yes"/>
      <point x="0" y="755"/>
      <point x="-10" y="745"/>
      <point x="-6" y="730" type="curve" smooth="yes"/>
      <point x="196" y="-47" type="line" smooth="yes"/>
      <point x="200" y="-62"/>
      <point x="213" y="-66"/>
    </contour>
  </outline>
</glyph>
<glyph name="bracketright" format="2">
  <advance width="375"/>
  <unicode hex="005D"/>
  <outline>
    <contour>
      <point x="34" y="-35" type="curve" smooth="yes"/>
      <point x="34" y="-65"/>
      <point x="41" y="-75"/>
      <point x="61" y="-75" type="curve" smooth="yes"/>
      <point x="206" y="-75" type="line" smooth="yes"/>
      <point x="235" y="-75"/>
      <point x="250" y="-66"/>
      <point x="250" y="-47" type="curve" smooth="yes"/>
      <point x="250" y="923" type="line" smooth="yes"/>
      <point x="250" y="941"/>
      <point x="235" y="950"/>
      <point x="206" y="950" type="curve" smooth="yes"/>
      <point x="61" y="950" type="line" smooth="yes"/>
      <point x="41" y="950"/>
      <point x="34" y="940"/>
      <point x="34" y="910" type="curve" smooth="yes"/>
      <point x="34" y="880"/>
      <point x="41" y="870"/>
      <point x="61" y="870" type="curve" smooth="yes"/>
      <point x="163" y="870" type="line"/>
      <point x="163" y="5" type="line"/>
      <point x="61" y="5" type="line" smooth="yes"/>
      <point x="41" y="5"/>
      <point x="34" y="-5"/>
    </contour>
  </outline>
</glyph>
<glyph name="b" format="2">
	<unicode hex="0062"/>
	<advance width="478"/>
	<outline>
		<contour>
			<point x="114" y="-12" type="curve" smooth="yes"/>
			<point x="137" y="-12"/>
			<point x="149" y="-5"/>
			<point x="149" y="9" type="curve" smooth="yes"/>
			<point x="149" y="12" type="line"/>
			<point x="177" y="-5"/>
			<point x="208" y="-14"/>
			<point x="243" y="-14" type="curve" smooth="yes"/>
			<point x="361" y="-14"/>
			<point x="428" y="74"/>
			<point x="428" y="213" type="curve" smooth="yes"/>
			<point x="428" y="349"/>
			<point x="364" y="415"/>
			<point x="272" y="415" type="curve" smooth="yes"/>
			<point x="232" y="415"/>
			<point x="186" y="402"/>
			<point x="149" y="349" type="curve"/>
			<point x="149" y="689" type="line" smooth="yes"/>
			<point x="149" y="705"/>
			<point x="137" y="712"/>
			<point x="114" y="712" type="curve" smooth="yes"/>
			<point x="91" y="712"/>
			<point x="80" y="705"/>
			<point x="80" y="691" type="curve" smooth="yes"/>
			<point x="80" y="9" type="line" smooth="yes"/>
			<point x="80" y="-5"/>
			<point x="91" y="-12"/>
		</contour>
		<contour>
			<point x="149" y="73" type="curve"/>
			<point x="149" y="278" type="line"/>
			<point x="179" y="330"/>
			<point x="219" y="351"/>
			<point x="262" y="351" type="curve" smooth="yes"/>
			<point x="326" y="351"/>
			<point x="357" y="298"/>
			<point x="357" y="210" type="curve" smooth="yes"/>
			<point x="357" y="102"/>
			<point x="312" y="46"/>
			<point x="243" y="46" type="curve" smooth="yes"/>
			<point x="211" y="46"/>
			<point x="181" y="54"/>
		</contour>
	</outline>
	<anchor name="bottom" x="258" y="0"/>
	<anchor name="center" x="258" y="200"/>
	<anchor name="top" x="258" y="400"/>
</glyph>
<glyph name="c" format="2">
  <advance width="418"/>
  <unicode hex="0063"/>
  <guideline x="336"/>
  <guideline y="128"/>
  <anchor x="229" y="0" name="bottom"/>
  <anchor x="236" y="400" name="top"/>
  <outline>
    <contour>
      <point x="236" y="-15" type="curve" smooth="yes"/>
      <point x="288" y="-15"/>
      <point x="351" y="7"/>
      <point x="394" y="70" type="curve" smooth="yes"/>
      <point x="404" y="84"/>
      <point x="399" y="94"/>
      <point x="384" y="106" type="curve" smooth="yes"/>
      <point x="369" y="118"/>
      <point x="356" y="120"/>
      <point x="345" y="108" type="curve" smooth="yes"/>
      <point x="311" y="71"/>
      <point x="287" y="49"/>
      <point x="236" y="49" type="curve" smooth="yes"/>
      <point x="165" y="49"/>
      <point x="121" y="107"/>
      <point x="121" y="200" type="curve" smooth="yes"/>
      <point x="121" y="293"/>
      <point x="165" y="351"/>
      <point x="236" y="351" type="curve" smooth="yes"/>
      <point x="283" y="351"/>
      <point x="307" y="329"/>
      <point x="336" y="305" type="curve" smooth="yes"/>
      <point x="349" y="294"/>
      <point x="360" y="298"/>
      <point x="374" y="312" type="curve" smooth="yes"/>
      <point x="386" y="325"/>
      <point x="390" y="335"/>
      <point x="378" y="350" type="curve" smooth="yes"/>
      <point x="339" y="397"/>
      <point x="286" y="415"/>
      <point x="239" y="415" type="curve" smooth="yes"/>
      <point x="129" y="415"/>
      <point x="50" y="325"/>
      <point x="50" y="196" type="curve" smooth="yes"/>
      <point x="50" y="58"/>
      <point x="128" y="-15"/>
    </contour>
  </outline>
</glyph>
<glyph name="d" format="2">
	<unicode hex="0064"/>
	<advance width="503"/>
	<outline>
		<contour>
			<point x="206" y="-14" type="curve" smooth="yes"/>
			<point x="248" y="-14"/>
			<point x="297" y="0"/>
			<point x="335" y="61" type="curve"/>
			<point x="335" y="60"/>
			<point x="335" y="59"/>
			<point x="335" y="58" type="curve" smooth="yes"/>
			<point x="335" y="25"/>
			<point x="352" y="-14"/>
			<point x="413" y="-14" type="curve" smooth="yes"/>
			<point x="444" y="-14"/>
			<point x="478" y="1"/>
			<point x="496" y="26" type="curve" smooth="yes"/>
			<point x="502" y="35"/>
			<point x="500" y="46"/>
			<point x="492" y="56" type="curve" smooth="yes"/>
			<point x="485" y="65"/>
			<point x="473" y="70"/>
			<point x="465" y="64" type="curve" smooth="yes"/>
			<point x="452" y="54"/>
			<point x="442" y="46"/>
			<point x="428" y="46" type="curve" smooth="yes"/>
			<point x="413" y="46"/>
			<point x="403" y="55"/>
			<point x="403" y="77" type="curve" smooth="yes"/>
			<point x="403" y="691" type="line" smooth="yes"/>
			<point x="403" y="705"/>
			<point x="392" y="712"/>
			<point x="369" y="712" type="curve" smooth="yes"/>
			<point x="346" y="712"/>
			<point x="334" y="705"/>
			<point x="334" y="691" type="curve" smooth="yes"/>
			<point x="334" y="387" type="line"/>
			<point x="302" y="405"/>
			<point x="264" y="415"/>
			<point x="232" y="415" type="curve" smooth="yes"/>
			<point x="117" y="415"/>
			<point x="50" y="327"/>
			<point x="50" y="188" type="curve" smooth="yes"/>
			<point x="50" y="52"/>
			<point x="114" y="-14"/>
		</contour>
		<contour>
			<point x="121" y="191" type="curve" smooth="yes"/>
			<point x="121" y="299"/>
			<point x="167" y="352"/>
			<point x="236" y="352" type="curve" smooth="yes"/>
			<point x="270" y="352"/>
			<point x="301" y="345"/>
			<point x="334" y="323" type="curve"/>
			<point x="334" y="133" type="line"/>
			<point x="304" y="73"/>
			<point x="262" y="50"/>
			<point x="216" y="50" type="curve" smooth="yes"/>
			<point x="152" y="50"/>
			<point x="121" y="103"/>
		</contour>
	</outline>
	<anchor name="bottom" x="222" y="0"/>
	<anchor name="center" x="350" y="558"/>
	<anchor name="top" x="207" y="400"/>
	<anchor name="topright" x="383" y="700"/>
</glyph>
<glyph name="e" format="2">
	<unicode hex="0065"/>
	<advance width="421"/>
	<outline>
		<contour>
			<point x="234" y="-15" type="curve" smooth="yes"/>
			<point x="286" y="-15"/>
			<point x="351" y="6"/>
			<point x="392" y="67" type="curve" smooth="yes"/>
			<point x="402" y="81"/>
			<point x="399" y="94"/>
			<point x="384" y="106" type="curve" smooth="yes"/>
			<point x="369" y="118"/>
			<point x="357" y="119"/>
			<point x="341" y="103" type="curve" smooth="yes"/>
			<point x="305" y="67"/>
			<point x="284" y="49"/>
			<point x="236" y="49" type="curve" smooth="yes"/>
			<point x="165" y="49"/>
			<point x="121" y="107"/>
			<point x="121" y="195" type="curve" smooth="yes"/>
			<point x="121" y="293"/>
			<point x="179" y="351"/>
			<point x="249" y="351" type="curve" smooth="yes"/>
			<point x="287" y="351"/>
			<point x="312" y="337"/>
			<point x="312" y="303" type="curve" smooth="yes"/>
			<point x="312" y="239"/>
			<point x="205" y="208"/>
			<point x="116" y="209" type="curve"/>
			<point x="116" y="153" type="line"/>
			<point x="269" y="154"/>
			<point x="383" y="206"/>
			<point x="383" y="309" type="curve" smooth="yes"/>
			<point x="383" y="380"/>
			<point x="330" y="415"/>
			<point x="253" y="415" type="curve" smooth="yes"/>
			<point x="135" y="415"/>
			<point x="50" y="325"/>
			<point x="50" y="182" type="curve" smooth="yes"/>
			<point x="50" y="75"/>
			<point x="108" y="-15"/>
		</contour>
	</outline>
	<anchor name="bottom" x="233" y="0"/>
	<anchor name="ogonek" x="327" y="10"/>
	<anchor name="top" x="243" y="400"/>
	<guideline y="200"/>
</glyph>
<glyph name="f" format="2">
  <advance width="293"/>
  <unicode hex="0066"/>
  <outline>
    <contour>
      <point x="62" y="-315" type="curve" smooth="yes"/>
      <point x="123" y="-315"/>
      <point x="173" y="-287"/>
      <point x="173" y="-201" type="curve" smooth="yes"/>
      <point x="173" y="336" type="line"/>
      <point x="276" y="336" type="line" smooth="yes"/>
      <point x="288" y="336"/>
      <point x="295" y="346"/>
      <point x="295" y="368" type="curve" smooth="yes"/>
      <point x="295" y="389"/>
      <point x="288" y="400"/>
      <point x="276" y="400" type="curve" smooth="yes"/>
      <point x="173" y="400" type="line"/>
      <point x="173" y="576" type="line" smooth="yes"/>
      <point x="173" y="635"/>
      <point x="198" y="651"/>
      <point x="231" y="651" type="curve" smooth="yes"/>
      <point x="259" y="651"/>
      <point x="273" y="641"/>
      <point x="297" y="624" type="curve" smooth="yes"/>
      <point x="310" y="615"/>
      <point x="321" y="617"/>
      <point x="335" y="631" type="curve" smooth="yes"/>
      <point x="347" y="644"/>
      <point x="352" y="656"/>
      <point x="340" y="668" type="curve" smooth="yes"/>
      <point x="316" y="693"/>
      <point x="281" y="715"/>
      <point x="229" y="715" type="curve" smooth="yes"/>
      <point x="166" y="715"/>
      <point x="104" y="677"/>
      <point x="104" y="581" type="curve" smooth="yes"/>
      <point x="104" y="400" type="line"/>
      <point x="35" y="400" type="line" smooth="yes"/>
      <point x="22" y="400"/>
      <point x="15" y="389"/>
      <point x="15" y="368" type="curve" smooth="yes"/>
      <point x="15" y="346"/>
      <point x="23" y="336"/>
      <point x="36" y="336" type="curve" smooth="yes"/>
      <point x="104" y="336" type="line"/>
      <point x="104" y="-201" type="line" smooth="yes"/>
      <point x="104" y="-232"/>
      <point x="96" y="-255"/>
      <point x="69" y="-255" type="curve" smooth="yes"/>
      <point x="48" y="-255"/>
      <point x="32" y="-243"/>
      <point x="15" y="-225" type="curve" smooth="yes"/>
      <point x="3" y="-212"/>
      <point x="-6" y="-212"/>
      <point x="-22" y="-222" type="curve" smooth="yes"/>
      <point x="-39" y="-233"/>
      <point x="-45" y="-245"/>
      <point x="-38" y="-260" type="curve" smooth="yes"/>
      <point x="-21" y="-294"/>
      <point x="19" y="-315"/>
    </contour>
  </outline>
</glyph>
<glyph name="g" format="2">
  <advance width="598"/>
  <unicode hex="0067"/>
  <anchor x="295" y="500" name="top"/>
  <outline>
    <contour>
      <point x="285" y="-394" type="curve" smooth="yes"/>
      <point x="418" y="-394"/>
      <point x="504" y="-315"/>
      <point x="504" y="-150" type="curve" smooth="yes"/>
      <point x="504" y="489" type="line" smooth="yes"/>
      <point x="504" y="506"/>
      <point x="489" y="515"/>
      <point x="460" y="515" type="curve" smooth="yes"/>
      <point x="431" y="515"/>
      <point x="418" y="506"/>
      <point x="418" y="489" type="curve" smooth="yes"/>
      <point x="418" y="-147" type="line" smooth="yes"/>
      <point x="418" y="-271"/>
      <point x="369" y="-316"/>
      <point x="289" y="-316" type="curve" smooth="yes"/>
      <point x="240" y="-316"/>
      <point x="204" y="-296"/>
      <point x="163" y="-252" type="curve" smooth="yes"/>
      <point x="145" y="-235"/>
      <point x="135" y="-231"/>
      <point x="110" y="-249" type="curve" smooth="yes"/>
      <point x="83" y="-269"/>
      <point x="84" y="-287"/>
      <point x="96" y="-306" type="curve" smooth="yes"/>
      <point x="130" y="-354"/>
      <point x="195" y="-394"/>
    </contour>
    <contour>
      <point x="258" y="-17" type="curve" smooth="yes"/>
      <point x="328" y="-17"/>
      <point x="411" y="14"/>
      <point x="459" y="168" type="curve"/>
      <point x="443" y="229" type="line"/>
      <point x="405" y="108"/>
      <point x="341" y="63"/>
      <point x="270" y="63" type="curve" smooth="yes"/>
      <point x="190" y="63"/>
      <point x="151" y="129"/>
      <point x="151" y="239" type="curve" smooth="yes"/>
      <point x="151" y="374"/>
      <point x="209" y="440"/>
      <point x="295" y="440" type="curve" smooth="yes"/>
      <point x="348" y="440"/>
      <point x="395" y="424"/>
      <point x="449" y="381" type="curve"/>
      <point x="449" y="464" type="line"/>
      <point x="404" y="498"/>
      <point x="341" y="519"/>
      <point x="286" y="519" type="curve" smooth="yes"/>
      <point x="146" y="519"/>
      <point x="63" y="409"/>
      <point x="63" y="235" type="curve" smooth="yes"/>
      <point x="63" y="65"/>
      <point x="143" y="-17"/>
    </contour>
  </outline>
</glyph>
<glyph name="h" format="2">
	<unicode hex="0068"/>
	<advance width="521"/>
	<outline>
		<contour>
			<point x="435" y="-14" type="curve" smooth="yes"/>
			<point x="466" y="-14"/>
			<point x="498" y="0"/>
			<point x="516" y="25" type="curve" smooth="yes"/>
			<point x="523" y="35"/>
			<point x="522" y="45"/>
			<point x="513" y="56" type="curve" smooth="yes"/>
			<point x="505" y="66"/>
			<point x="494" y="70"/>
			<point x="485" y="64" type="curve" smooth="yes"/>
			<point x="474" y="55"/>
			<point x="467" y="46"/>
			<point x="450" y="46" type="curve" smooth="yes"/>
			<point x="435" y="46"/>
			<point x="425" y="55"/>
			<point x="425" y="77" type="curve" smooth="yes"/>
			<point x="425" y="267" type="line" smooth="yes"/>
			<point x="425" y="372"/>
			<point x="366" y="415"/>
			<point x="284" y="415" type="curve" smooth="yes"/>
			<point x="228" y="415"/>
			<point x="180" y="386"/>
			<point x="149" y="340" type="curve"/>
			<point x="149" y="691" type="line" smooth="yes"/>
			<point x="149" y="705"/>
			<point x="137" y="712"/>
			<point x="114" y="712" type="curve" smooth="yes"/>
			<point x="91" y="712"/>
			<point x="80" y="705"/>
			<point x="80" y="691" type="curve" smooth="yes"/>
			<point x="80" y="9" type="line" smooth="yes"/>
			<point x="80" y="-5"/>
			<point x="91" y="-12"/>
			<point x="114" y="-12" type="curve" smooth="yes"/>
			<point x="137" y="-12"/>
			<point x="149" y="-5"/>
			<point x="149" y="9" type="curve" smooth="yes"/>
			<point x="149" y="262" type="line"/>
			<point x="178" y="328"/>
			<point x="229" y="351"/>
			<point x="274" y="351" type="curve" smooth="yes"/>
			<point x="333" y="351"/>
			<point x="356" y="317"/>
			<point x="356" y="261" type="curve" smooth="yes"/>
			<point x="356" y="69" type="line" smooth="yes"/>
			<point x="356" y="17"/>
			<point x="379" y="-14"/>
		</contour>
	</outline>
	<anchor name="bottom" x="265" y="0"/>
	<anchor name="center" x="142" y="558"/>
	<anchor name="top" x="115" y="670"/>
</glyph>
<glyph name="i" format="2">
	<unicode hex="0069"/>
	<advance width="244"/>
	<outline>
		<contour>
			<point x="154" y="-14" type="curve" smooth="yes"/>
			<point x="185" y="-14"/>
			<point x="218" y="1"/>
			<point x="236" y="26" type="curve" smooth="yes"/>
			<point x="242" y="35"/>
			<point x="241" y="46"/>
			<point x="233" y="56" type="curve" smooth="yes"/>
			<point x="226" y="65"/>
			<point x="213" y="70"/>
			<point x="206" y="65" type="curve" smooth="yes"/>
			<point x="193" y="55"/>
			<point x="186" y="46"/>
			<point x="169" y="46" type="curve" smooth="yes"/>
			<point x="154" y="46"/>
			<point x="144" y="55"/>
			<point x="144" y="77" type="curve" smooth="yes"/>
			<point x="144" y="391" type="line" smooth="yes"/>
			<point x="144" y="405"/>
			<point x="132" y="412"/>
			<point x="109" y="412" type="curve" smooth="yes"/>
			<point x="86" y="412"/>
			<point x="75" y="405"/>
			<point x="75" y="391" type="curve" smooth="yes"/>
			<point x="75" y="69" type="line" smooth="yes"/>
			<point x="75" y="17"/>
			<point x="98" y="-14"/>
		</contour>
		<contour>
			<point x="110" y="535" type="curve" smooth="yes"/>
			<point x="139" y="535"/>
			<point x="155" y="551"/>
			<point x="154" y="585" type="curve" smooth="yes"/>
			<point x="154" y="619"/>
			<point x="139" y="636"/>
			<point x="110" y="636" type="curve" smooth="yes"/>
			<point x="80" y="636"/>
			<point x="65" y="619"/>
			<point x="65" y="585" type="curve" smooth="yes"/>
			<point x="65" y="551"/>
			<point x="80" y="535"/>
		</contour>
	</outline>
	<anchor name="bottom" x="156" y="0"/>
	<anchor name="ogonek" x="200" y="0"/>
</glyph>
<glyph name="k" format="2">
	<unicode hex="006B"/>
	<advance width="451"/>
	<outline>
		<contour>
			<point x="114" y="-12" type="curve" smooth="yes"/>
			<point x="137" y="-12"/>
			<point x="149" y="-5"/>
			<point x="149" y="9" type="curve" smooth="yes"/>
			<point x="149" y="183" type="line"/>
			<point x="265" y="23"/>
			<point x="297" y="-14"/>
			<point x="356" y="-14" type="curve" smooth="yes"/>
			<point x="381" y="-14"/>
			<point x="421" y="-5"/>
			<point x="453" y="40" type="curve" smooth="yes"/>
			<point x="461" y="51"/>
			<point x="462" y="67"/>
			<point x="445" y="77" type="curve" smooth="yes"/>
			<point x="431" y="85"/>
			<point x="422" y="85"/>
			<point x="411" y="73" type="curve" smooth="yes"/>
			<point x="394" y="55"/>
			<point x="383" y="47"/>
			<point x="366" y="47" type="curve" smooth="yes"/>
			<point x="336" y="47"/>
			<point x="327" y="59"/>
			<point x="203" y="225" type="curve"/>
			<point x="379" y="358" type="line" smooth="yes"/>
			<point x="398" y="372"/>
			<point x="393" y="387"/>
			<point x="382" y="399" type="curve" smooth="yes"/>
			<point x="366" y="418"/>
			<point x="353" y="414"/>
			<point x="337" y="402" type="curve" smooth="yes"/>
			<point x="149" y="262" type="line"/>
			<point x="149" y="691" type="line" smooth="yes"/>
			<point x="149" y="705"/>
			<point x="137" y="712"/>
			<point x="114" y="712" type="curve" smooth="yes"/>
			<point x="91" y="712"/>
			<point x="80" y="705"/>
			<point x="80" y="691" type="curve" smooth="yes"/>
			<point x="80" y="9" type="line" smooth="yes"/>
			<point x="80" y="-5"/>
			<point x="91" y="-12"/>
		</contour>
	</outline>
	<anchor name="bottom" x="241" y="0"/>
	<anchor name="top" x="114" y="670"/>
</glyph>
<glyph name="l" format="2">
	<unicode hex="006C"/>
	<advance width="245"/>
	<outline>
		<contour>
			<point x="154" y="-14" type="curve" smooth="yes"/>
			<point x="185" y="-14"/>
			<point x="220" y="1"/>
			<point x="238" y="28" type="curve" smooth="yes"/>
			<point x="244" y="37"/>
			<point x="240" y="48"/>
			<point x="234" y="56" type="curve" smooth="yes"/>
			<point x="225" y="67"/>
			<point x="214" y="70"/>
			<point x="206" y="64" type="curve" smooth="yes"/>
			<point x="194" y="55"/>
			<point x="186" y="46"/>
			<point x="169" y="46" type="curve" smooth="yes"/>
			<point x="154" y="46"/>
			<point x="144" y="55"/>
			<point x="144" y="77" type="curve" smooth="yes"/>
			<point x="144" y="691" type="line" smooth="yes"/>
			<point x="144" y="705"/>
			<point x="132" y="712"/>
			<point x="109" y="712" type="curve" smooth="yes"/>
			<point x="86" y="712"/>
			<point x="75" y="705"/>
			<point x="75" y="691" type="curve" smooth="yes"/>
			<point x="75" y="69" type="line" smooth="yes"/>
			<point x="75" y="17"/>
			<point x="98" y="-14"/>
		</contour>
	</outline>
	<anchor name="bottom" x="160" y="0"/>
	<anchor name="center" x="110" y="350"/>
	<anchor name="top" x="104" y="670"/>
	<anchor name="topright" x="119" y="700"/>
</glyph>
<glyph name="n" format="2">
	<unicode hex="006E"/>
	<advance width="517"/>
	<outline>
		<contour>
			<point x="431" y="-14" type="curve" smooth="yes"/>
			<point x="462" y="-14"/>
			<point x="495" y="0"/>
			<point x="513" y="25" type="curve" smooth="yes"/>
			<point x="519" y="34"/>
			<point x="519" y="45"/>
			<point x="510" y="56" type="curve" smooth="yes"/>
			<point x="503" y="65"/>
			<point x="491" y="70"/>
			<point x="482" y="64" type="curve" smooth="yes"/>
			<point x="471" y="55"/>
			<point x="461" y="46"/>
			<point x="446" y="46" type="curve" smooth="yes"/>
			<point x="431" y="46"/>
			<point x="421" y="55"/>
			<point x="421" y="77" type="curve" smooth="yes"/>
			<point x="421" y="267" type="line" smooth="yes"/>
			<point x="421" y="372"/>
			<point x="362" y="415"/>
			<point x="280" y="415" type="curve" smooth="yes"/>
			<point x="223" y="415"/>
			<point x="175" y="385"/>
			<point x="144" y="339" type="curve"/>
			<point x="144" y="391" type="line" smooth="yes"/>
			<point x="144" y="405"/>
			<point x="132" y="412"/>
			<point x="109" y="412" type="curve" smooth="yes"/>
			<point x="86" y="412"/>
			<point x="75" y="405"/>
			<point x="75" y="391" type="curve" smooth="yes"/>
			<point x="75" y="9" type="line" smooth="yes"/>
			<point x="75" y="-5"/>
			<point x="86" y="-12"/>
			<point x="109" y="-12" type="curve" smooth="yes"/>
			<point x="132" y="-12"/>
			<point x="144" y="-5"/>
			<point x="144" y="9" type="curve" smooth="yes"/>
			<point x="144" y="260" type="line"/>
			<point x="173" y="328"/>
			<point x="224" y="351"/>
			<point x="270" y="351" type="curve" smooth="yes"/>
			<point x="329" y="351"/>
			<point x="352" y="317"/>
			<point x="352" y="261" type="curve" smooth="yes"/>
			<point x="352" y="69" type="line" smooth="yes"/>
			<point x="352" y="17"/>
			<point x="375" y="-14"/>
		</contour>
	</outline>
	<anchor name="bottom" x="259" y="0"/>
	<anchor name="top" x="250" y="400"/>
</glyph>
<glyph name="q" format="2">
	<unicode hex="0071"/>
	<advance width="478"/>
	<outline>
		<contour>
			<point x="206" y="-14" type="curve" smooth="yes"/>
			<point x="247" y="-14"/>
			<point x="296" y="-1"/>
			<point x="334" y="54" type="curve"/>
			<point x="334" y="-291" type="line" smooth="yes"/>
			<point x="334" y="-305"/>
			<point x="346" y="-312"/>
			<point x="369" y="-312" type="curve" smooth="yes"/>
			<point x="392" y="-312"/>
			<point x="403" y="-305"/>
			<point x="403" y="-291" type="curve" smooth="yes"/>
			<point x="403" y="391" type="line" smooth="yes"/>
			<point x="403" y="405"/>
			<point x="392" y="412"/>
			<point x="369" y="412" type="curve" smooth="yes"/>
			<point x="346" y="412"/>
			<point x="334" y="405"/>
			<point x="334" y="391" type="curve" smooth="yes"/>
			<point x="334" y="387" type="line"/>
			<point x="302" y="405"/>
			<point x="264" y="415"/>
			<point x="229" y="415" type="curve" smooth="yes"/>
			<point x="117" y="415"/>
			<point x="50" y="327"/>
			<point x="50" y="188" type="curve" smooth="yes"/>
			<point x="50" y="52"/>
			<point x="114" y="-14"/>
		</contour>
		<contour>
			<point x="121" y="191" type="curve" smooth="yes"/>
			<point x="121" y="299"/>
			<point x="167" y="352"/>
			<point x="236" y="352" type="curve" smooth="yes"/>
			<point x="270" y="352"/>
			<point x="301" y="344"/>
			<point x="334" y="323" type="curve"/>
			<point x="334" y="133" type="line"/>
			<point x="304" y="73"/>
			<point x="262" y="50"/>
			<point x="216" y="50" type="curve" smooth="yes"/>
			<point x="152" y="50"/>
			<point x="121" y="103"/>
		</contour>
	</outline>
</glyph>
<glyph name="s" format="2">
  <advance width="486"/>
  <unicode hex="0073"/>
  <anchor x="245" y="0" name="bottom"/>
  <anchor x="260" y="500" name="top"/>
  <outline>
    <contour>
      <point x="244" y="-19" type="curve" smooth="yes"/>
      <point x="374" y="-19"/>
      <point x="434" y="59"/>
      <point x="434" y="146" type="curve" smooth="yes"/>
      <point x="434" y="330"/>
      <point x="175" y="264"/>
      <point x="175" y="383" type="curve" smooth="yes"/>
      <point x="175" y="425"/>
      <point x="210" y="450"/>
      <point x="258" y="450" type="curve" smooth="yes"/>
      <point x="303" y="450"/>
      <point x="339" y="434"/>
      <point x="376" y="408" type="curve" smooth="yes"/>
      <point x="393" y="396"/>
      <point x="406" y="398"/>
      <point x="421" y="415" type="curve" smooth="yes"/>
      <point x="435" y="431"/>
      <point x="438" y="444"/>
      <point x="424" y="459" type="curve" smooth="yes"/>
      <point x="393" y="491"/>
      <point x="339" y="519"/>
      <point x="259" y="519" type="curve" smooth="yes"/>
      <point x="159" y="519"/>
      <point x="89" y="456"/>
      <point x="89" y="373" type="curve" smooth="yes"/>
      <point x="89" y="180"/>
      <point x="349" y="261"/>
      <point x="349" y="133" type="curve" smooth="yes"/>
      <point x="349" y="80"/>
      <point x="305" y="50"/>
      <point x="246" y="50" type="curve" smooth="yes"/>
      <point x="205" y="50"/>
      <point x="160" y="68"/>
      <point x="111" y="105" type="curve" smooth="yes"/>
      <point x="96" y="116"/>
      <point x="86" y="113"/>
      <point x="71" y="98" type="curve" smooth="yes"/>
      <point x="53" y="79"/>
      <point x="54" y="63"/>
      <point x="64" y="53" type="curve" smooth="yes"/>
      <point x="96" y="19"/>
      <point x="163" y="-19"/>
    </contour>
  </outline>
</glyph>
<glyph name="v" format="2">
  <advance width="509"/>
  <unicode hex="0076"/>
  <outline>
    <contour>
      <point x="254" y="-15" type="curve" smooth="yes"/>
      <point x="283" y="-15"/>
      <point x="294" y="-5"/>
      <point x="300" y="11" type="curve" smooth="yes"/>
      <point x="483" y="465" type="line" smooth="yes"/>
      <point x="494" y="494"/>
      <point x="478" y="515"/>
      <point x="440" y="515" type="curve" smooth="yes"/>
      <point x="420" y="515"/>
      <point x="409" y="508"/>
      <point x="401" y="489" type="curve" smooth="yes"/>
      <point x="255" y="109" type="line"/>
      <point x="106" y="489" type="line" smooth="yes"/>
      <point x="99" y="508"/>
      <point x="89" y="515"/>
      <point x="69" y="515" type="curve" smooth="yes"/>
      <point x="31" y="515"/>
      <point x="14" y="491"/>
      <point x="25" y="465" type="curve" smooth="yes"/>
      <point x="208" y="11" type="line" smooth="yes"/>
      <point x="214" y="-5"/>
      <point x="225" y="-15"/>
    </contour>
  </outline>
</glyph>
<glyph name="x" format="2">
	<unicode hex="0078"/>
	<advance width="427"/>
	<outline>
		<contour>
			<point x="389" y="32" type="curve" smooth="yes"/>
			<point x="256" y="200" type="line"/>
			<point x="390" y="369" type="line" smooth="yes"/>
			<point x="409" y="393"/>
			<point x="391" y="413"/>
			<point x="361" y="413" type="curve" smooth="yes"/>
			<point x="349" y="413"/>
			<point x="342" y="408"/>
			<point x="330" y="393" type="curve" smooth="yes"/>
			<point x="217" y="250" type="line"/>
			<point x="100" y="397" type="line" smooth="yes"/>
			<point x="90" y="410"/>
			<point x="78" y="417"/>
			<point x="55" y="412" type="curve" smooth="yes"/>
			<point x="39" y="409"/>
			<point x="18" y="394"/>
			<point x="40" y="366" type="curve" smooth="yes"/>
			<point x="171" y="200" type="line"/>
			<point x="37" y="31" type="line" smooth="yes"/>
			<point x="18" y="7"/>
			<point x="38" y="-12"/>
			<point x="68" y="-12" type="curve" smooth="yes"/>
			<point x="80" y="-12"/>
			<point x="87" y="-8"/>
			<point x="99" y="7" type="curve" smooth="yes"/>
			<point x="210" y="151" type="line"/>
			<point x="321" y="10" type="line" smooth="yes"/>
			<point x="335" y="-8"/>
			<point x="346" y="-15"/>
			<point x="368" y="-12" type="curve" smooth="yes"/>
			<point x="391" y="-9"/>
			<point x="406" y="10"/>
		</contour>
	</outline>
</glyph>
<glyph name="braceright" format="2">
	<unicode hex="007D"/>
	<advance width="263"/>
	<outline>
		<contour>
			<point x="49" y="-60" type="curve" smooth="yes"/>
			<point x="133" y="-60"/>
			<point x="203" y="-26"/>
			<point x="203" y="53" type="curve" smooth="yes"/>
			<point x="203" y="124"/>
			<point x="139" y="184"/>
			<point x="139" y="244" type="curve" smooth="yes"/>
			<point x="139" y="282"/>
			<point x="165" y="311"/>
			<point x="213" y="318" type="curve" smooth="yes"/>
			<point x="229" y="321"/>
			<point x="235" y="326"/>
			<point x="235" y="350" type="curve" smooth="yes"/>
			<point x="235" y="374"/>
			<point x="229" y="379"/>
			<point x="213" y="382" type="curve" smooth="yes"/>
			<point x="165" y="389"/>
			<point x="139" y="418"/>
			<point x="139" y="456" type="curve" smooth="yes"/>
			<point x="139" y="516"/>
			<point x="203" y="576"/>
			<point x="203" y="647" type="curve" smooth="yes"/>
			<point x="203" y="726"/>
			<point x="133" y="760"/>
			<point x="49" y="760" type="curve" smooth="yes"/>
			<point x="33" y="760"/>
			<point x="27" y="752"/>
			<point x="27" y="728" type="curve" smooth="yes"/>
			<point x="27" y="704"/>
			<point x="33" y="696"/>
			<point x="49" y="696" type="curve" smooth="yes"/>
			<point x="106" y="696"/>
			<point x="133" y="673"/>
			<point x="133" y="646" type="curve" smooth="yes"/>
			<point x="133" y="583"/>
			<point x="70" y="525"/>
			<point x="70" y="456" type="curve" smooth="yes"/>
			<point x="70" y="409"/>
			<point x="105" y="366"/>
			<point x="160" y="350" type="curve"/>
			<point x="105" y="334"/>
			<point x="70" y="291"/>
			<point x="70" y="244" type="curve" smooth="yes"/>
			<point x="70" y="175"/>
			<point x="133" y="117"/>
			<point x="133" y="54" type="curve" smooth="yes"/>
			<point x="133" y="27"/>
			<point x="106" y="4"/>
			<point x="49" y="4" type="curve" smooth="yes"/>
			<point x="33" y="4"/>
			<point x="27" y="-4"/>
			<point x="27" y="-28" type="curve" smooth="yes"/>
			<point x="27" y="-52"/>
			<point x="33" y="-60"/>
		</contour>
	</outline>
</glyph>
<glyph name="cent" format="2">
  <advance width="424"/>
  <unicode hex="00A2"/>
  <outline>
    <contour>
      <point x="223" y="-15" type="curve" smooth="yes"/>
      <point x="275" y="-15"/>
      <point x="338" y="7"/>
      <point x="381" y="70" type="curve" smooth="yes"/>
      <point x="391" y="84"/>
      <point x="386" y="94"/>
      <point x="371" y="106" type="curve" smooth="yes"/>
      <point x="356" y="118"/>
      <point x="343" y="120"/>
      <point x="332" y="108" type="curve" smooth="yes"/>
      <point x="298" y="71"/>
      <point x="274" y="49"/>
      <point x="223" y="49" type="curve" smooth="yes"/>
      <point x="152" y="49"/>
      <point x="108" y="107"/>
      <point x="108" y="200" type="curve" smooth="yes"/>
      <point x="108" y="293"/>
      <point x="152" y="351"/>
      <point x="223" y="351" type="curve" smooth="yes"/>
      <point x="270" y="351"/>
      <point x="294" y="329"/>
      <point x="323" y="305" type="curve" smooth="yes"/>
      <point x="336" y="294"/>
      <point x="347" y="298"/>
      <point x="361" y="312" type="curve" smooth="yes"/>
      <point x="373" y="325"/>
      <point x="377" y="335"/>
      <point x="365" y="350" type="curve" smooth="yes"/>
      <point x="326" y="397"/>
      <point x="273" y="415"/>
      <point x="226" y="415" type="curve" smooth="yes"/>
      <point x="116" y="415"/>
      <point x="37" y="325"/>
      <point x="37" y="196" type="curve" smooth="yes"/>
      <point x="37" y="58"/>
      <point x="115" y="-15"/>
    </contour>
    <contour>
      <point x="221" y="-120" type="curve" smooth="yes"/>
      <point x="242" y="-120"/>
      <point x="253" y="-113"/>
      <point x="253" y="-98" type="curve" smooth="yes"/>
      <point x="253" y="510" type="line" smooth="yes"/>
      <point x="253" y="525"/>
      <point x="242" y="532"/>
      <point x="221" y="532" type="curve" smooth="yes"/>
      <point x="200" y="532"/>
      <point x="189" y="525"/>
      <point x="189" y="510" type="curve" smooth="yes"/>
      <point x="189" y="-98" type="line" smooth="yes"/>
      <point x="189" y="-113"/>
      <point x="200" y="-120"/>
    </contour>
  </outline>
</glyph>
<glyph name="sterling" format="2">
  <advance width="675"/>
  <unicode hex="00A3"/>
  <outline>
    <contour>
      <point x="61" y="0" type="curve" smooth="yes"/>
      <point x="626" y="0" type="line" smooth="yes"/>
      <point x="649" y="0"/>
      <point x="654" y="15"/>
      <point x="654" y="43" type="curve" smooth="yes"/>
      <point x="654" y="71"/>
      <point x="645" y="80"/>
      <point x="626" y="80" type="curve" smooth="yes"/>
      <point x="275" y="80" type="line"/>
      <point x="275" y="339" type="line"/>
      <point x="481" y="339" type="line" smooth="yes"/>
      <point x="501" y="339"/>
      <point x="509" y="348"/>
      <point x="509" y="378" type="curve" smooth="yes"/>
      <point x="509" y="408"/>
      <point x="501" y="416"/>
      <point x="481" y="416" type="curve" smooth="yes"/>
      <point x="275" y="416" type="line"/>
      <point x="275" y="656" type="line" smooth="yes"/>
      <point x="275" y="756"/>
      <point x="323" y="809"/>
      <point x="414" y="809" type="curve" smooth="yes"/>
      <point x="468" y="809"/>
      <point x="513" y="791"/>
      <point x="563" y="761" type="curve" smooth="yes"/>
      <point x="588" y="746"/>
      <point x="601" y="749"/>
      <point x="619" y="769" type="curve" smooth="yes"/>
      <point x="636" y="790"/>
      <point x="629" y="809"/>
      <point x="614" y="821" type="curve" smooth="yes"/>
      <point x="565" y="861"/>
      <point x="495" y="890"/>
      <point x="410" y="890" type="curve" smooth="yes"/>
      <point x="269" y="890"/>
      <point x="188" y="796"/>
      <point x="188" y="663" type="curve" smooth="yes"/>
      <point x="188" y="416" type="line"/>
      <point x="86" y="416" type="line" smooth="yes"/>
      <point x="66" y="416"/>
      <point x="59" y="408"/>
      <point x="59" y="378" type="curve" smooth="yes"/>
      <point x="59" y="348"/>
      <point x="66" y="339"/>
      <point x="86" y="339" type="curve" smooth="yes"/>
      <point x="188" y="339" type="line"/>
      <point x="188" y="80" type="line"/>
      <point x="61" y="80" type="line" smooth="yes"/>
      <point x="43" y="80"/>
      <point x="34" y="71"/>
      <point x="34" y="43" type="curve" smooth="yes"/>
      <point x="34" y="15"/>
      <point x="39" y="0"/>
    </contour>
  </outline>
</glyph>
<glyph name="yen" format="2">
  <advance width="534"/>
  <unicode hex="00A5"/>
  <outline>
    <contour>
      <point x="267" y="-11" type="curve" smooth="yes"/>
      <point x="290" y="-11"/>
      <point x="302" y="-4"/>
      <point x="302" y="11" type="curve" smooth="yes"/>
      <point x="302" y="294" type="line"/>
      <point x="504" y="669" type="line" smooth="yes"/>
      <point x="511" y="682"/>
      <point x="506" y="694"/>
      <point x="484" y="705" type="curve" smooth="yes"/>
      <point x="464" y="715"/>
      <point x="452" y="718"/>
      <point x="442" y="700" type="curve" smooth="yes"/>
      <point x="267" y="371" type="line"/>
      <point x="92" y="700" type="line" smooth="yes"/>
      <point x="83" y="718"/>
      <point x="70" y="715"/>
      <point x="50" y="705" type="curve" smooth="yes"/>
      <point x="28" y="694"/>
      <point x="23" y="682"/>
      <point x="30" y="669" type="curve" smooth="yes"/>
      <point x="232" y="295" type="line"/>
      <point x="232" y="11" type="line" smooth="yes"/>
      <point x="232" y="-4"/>
      <point x="244" y="-11"/>
    </contour>
    <contour>
      <point x="81" y="280" type="curve" smooth="yes"/>
      <point x="453" y="280" type="line" smooth="yes"/>
      <point x="469" y="280"/>
      <point x="475" y="287"/>
      <point x="475" y="311" type="curve" smooth="yes"/>
      <point x="475" y="335"/>
      <point x="469" y="342"/>
      <point x="453" y="342" type="curve" smooth="yes"/>
      <point x="81" y="342" type="line" smooth="yes"/>
      <point x="65" y="342"/>
      <point x="59" y="335"/>
      <point x="59" y="311" type="curve" smooth="yes"/>
      <point x="59" y="287"/>
      <point x="65" y="280"/>
    </contour>
    <contour>
      <point x="81" y="160" type="curve" smooth="yes"/>
      <point x="453" y="160" type="line" smooth="yes"/>
      <point x="469" y="160"/>
      <point x="475" y="167"/>
      <point x="475" y="191" type="curve" smooth="yes"/>
      <point x="475" y="215"/>
      <point x="469" y="222"/>
      <point x="453" y="222" type="curve" smooth="yes"/>
      <point x="81" y="222" type="line" smooth="yes"/>
      <point x="65" y="222"/>
      <point x="59" y="215"/>
      <point x="59" y="191" type="curve" smooth="yes"/>
      <point x="59" y="167"/>
      <point x="65" y="160"/>
    </contour>
  </outline>
</glyph>
<glyph name="section" format="2">
  <advance width="666"/>
  <unicode hex="00A7"/>
  <outline>
    <contour>
      <point x="631" y="235" type="curve" smooth="yes"/>
      <point x="631" y="526"/>
      <point x="190" y="453"/>
      <point x="190" y="671" type="curve" smooth="yes"/>
      <point x="190" y="763"/>
      <point x="240" y="805"/>
      <point x="341" y="805" type="curve" smooth="yes"/>
      <point x="420" y="805"/>
      <point x="486" y="776"/>
      <point x="536" y="735" type="curve" smooth="yes"/>
      <point x="551" y="724"/>
      <point x="566" y="733"/>
      <point x="583" y="750" type="curve" smooth="yes"/>
      <point x="596" y="765"/>
      <point x="600" y="779"/>
      <point x="586" y="791" type="curve" smooth="yes"/>
      <point x="523" y="850"/>
      <point x="439" y="890"/>
      <point x="340" y="890" type="curve" smooth="yes"/>
      <point x="195" y="890"/>
      <point x="98" y="804"/>
      <point x="98" y="671" type="curve" smooth="yes"/>
      <point x="98" y="376"/>
      <point x="539" y="455"/>
      <point x="539" y="235" type="curve" smooth="yes"/>
      <point x="539" y="156"/>
      <point x="489" y="84"/>
      <point x="406" y="43" type="curve"/>
      <point x="474" y="6" type="line"/>
      <point x="564" y="54"/>
      <point x="631" y="136"/>
    </contour>
    <contour>
      <point x="54" y="296" type="curve" smooth="yes"/>
      <point x="54" y="0"/>
      <point x="506" y="76"/>
      <point x="506" y="-147" type="curve" smooth="yes"/>
      <point x="506" y="-257"/>
      <point x="419" y="-309"/>
      <point x="326" y="-309" type="curve" smooth="yes"/>
      <point x="240" y="-309"/>
      <point x="158" y="-275"/>
      <point x="113" y="-236" type="curve" smooth="yes"/>
      <point x="88" y="-214"/>
      <point x="79" y="-220"/>
      <point x="60" y="-240" type="curve" smooth="yes"/>
      <point x="41" y="-259"/>
      <point x="41" y="-271"/>
      <point x="53" y="-285" type="curve" smooth="yes"/>
      <point x="115" y="-360"/>
      <point x="215" y="-394"/>
      <point x="325" y="-394" type="curve" smooth="yes"/>
      <point x="465" y="-394"/>
      <point x="599" y="-304"/>
      <point x="599" y="-147" type="curve" smooth="yes"/>
      <point x="599" y="161"/>
      <point x="146" y="76"/>
      <point x="146" y="296" type="curve" smooth="yes"/>
      <point x="146" y="375"/>
      <point x="196" y="448"/>
      <point x="279" y="489" type="curve"/>
      <point x="211" y="525" type="line"/>
      <point x="121" y="478"/>
      <point x="54" y="395"/>
    </contour>
  </outline>
</glyph>
<glyph name="copyright" format="2">
  <advance width="724"/>
  <unicode hex="00A9"/>
  <outline>
    <contour>
      <point x="362" y="52" type="curve" smooth="yes"/>
      <point x="525" y="52"/>
      <point x="655" y="182"/>
      <point x="655" y="345" type="curve" smooth="yes"/>
      <point x="655" y="508"/>
      <point x="525" y="638"/>
      <point x="362" y="638" type="curve" smooth="yes"/>
      <point x="199" y="638"/>
      <point x="69" y="508"/>
      <point x="69" y="345" type="curve" smooth="yes"/>
      <point x="69" y="182"/>
      <point x="199" y="52"/>
    </contour>
    <contour>
      <point x="362" y="92" type="curve" smooth="yes"/>
      <point x="223" y="92"/>
      <point x="109" y="206"/>
      <point x="109" y="345" type="curve" smooth="yes"/>
      <point x="109" y="484"/>
      <point x="223" y="598"/>
      <point x="362" y="598" type="curve" smooth="yes"/>
      <point x="501" y="598"/>
      <point x="615" y="484"/>
      <point x="615" y="345" type="curve" smooth="yes"/>
      <point x="615" y="206"/>
      <point x="501" y="92"/>
    </contour>
    <contour>
      <point x="361" y="183" type="curve" smooth="yes"/>
      <point x="403" y="183"/>
      <point x="447" y="207"/>
      <point x="478" y="254" type="curve" smooth="yes"/>
      <point x="482" y="261"/>
      <point x="480" y="268"/>
      <point x="468" y="277" type="curve" smooth="yes"/>
      <point x="459" y="284"/>
      <point x="447" y="290"/>
      <point x="443" y="285" type="curve" smooth="yes"/>
      <point x="417" y="255"/>
      <point x="392" y="240"/>
      <point x="367" y="240" type="curve" smooth="yes"/>
      <point x="320" y="240"/>
      <point x="283" y="274"/>
      <point x="283" y="347" type="curve" smooth="yes"/>
      <point x="283" y="420"/>
      <point x="320" y="454"/>
      <point x="364" y="454" type="curve" smooth="yes"/>
      <point x="392" y="454"/>
      <point x="415" y="442"/>
      <point x="436" y="425" type="curve" smooth="yes"/>
      <point x="441" y="421"/>
      <point x="448" y="424"/>
      <point x="460" y="434" type="curve" smooth="yes"/>
      <point x="471" y="443"/>
      <point x="475" y="449"/>
      <point x="469" y="458" type="curve" smooth="yes"/>
      <point x="440" y="500"/>
      <point x="396" y="510"/>
      <point x="364" y="510" type="curve" smooth="yes"/>
      <point x="280" y="510"/>
      <point x="221" y="435"/>
      <point x="221" y="347" type="curve" smooth="yes"/>
      <point x="221" y="260"/>
      <point x="270" y="183"/>
    </contour>
  </outline>
</glyph>
<glyph name="ordfeminine" format="2">
  <advance width="384"/>
  <unicode hex="00AA"/>
  <outline>
    <contour>
      <point x="156" y="389" type="curve" smooth="yes"/>
      <point x="193" y="389"/>
      <point x="225" y="403"/>
      <point x="251" y="441" type="curve"/>
      <point x="251" y="439"/>
      <point x="252" y="435"/>
      <point x="252" y="436" type="curve" smooth="yes"/>
      <point x="258" y="407"/>
      <point x="275" y="389"/>
      <point x="315" y="389" type="curve" smooth="yes"/>
      <point x="340" y="389"/>
      <point x="368" y="401"/>
      <point x="381" y="419" type="curve" smooth="yes"/>
      <point x="386" y="426"/>
      <point x="386" y="439"/>
      <point x="377" y="448" type="curve" smooth="yes"/>
      <point x="370" y="456"/>
      <point x="358" y="458"/>
      <point x="354" y="455" type="curve" smooth="yes"/>
      <point x="342" y="447"/>
      <point x="341" y="444"/>
      <point x="330" y="444" type="curve" smooth="yes"/>
      <point x="322" y="444"/>
      <point x="314" y="448"/>
      <point x="314" y="461" type="curve" smooth="yes"/>
      <point x="314" y="698" type="line" smooth="yes"/>
      <point x="314" y="711"/>
      <point x="304" y="717"/>
      <point x="284" y="717" type="curve" smooth="yes"/>
      <point x="264" y="717"/>
      <point x="256" y="711"/>
      <point x="252" y="700" type="curve" smooth="yes"/>
      <point x="251" y="697" type="line"/>
      <point x="228" y="710"/>
      <point x="196" y="720"/>
      <point x="172" y="720" type="curve" smooth="yes"/>
      <point x="88" y="720"/>
      <point x="36" y="653"/>
      <point x="36" y="544" type="curve" smooth="yes"/>
      <point x="36" y="438"/>
      <point x="85" y="389"/>
    </contour>
    <contour>
      <point x="100" y="546" type="curve" smooth="yes"/>
      <point x="100" y="626"/>
      <point x="133" y="662"/>
      <point x="180" y="662" type="curve" smooth="yes"/>
      <point x="203" y="662"/>
      <point x="226" y="659"/>
      <point x="251" y="645" type="curve"/>
      <point x="251" y="498" type="line"/>
      <point x="227" y="463"/>
      <point x="198" y="448"/>
      <point x="165" y="448" type="curve" smooth="yes"/>
      <point x="121" y="448"/>
      <point x="100" y="483"/>
    </contour>
  </outline>
</glyph>
<glyph name="plusminus" format="2">
	<unicode hex="00B1"/>
	<advance width="610"/>
	<outline>
		<contour>
			<point x="305" y="174" type="curve" smooth="yes"/>
			<point x="328" y="174"/>
			<point x="339" y="181"/>
			<point x="339" y="195" type="curve" smooth="yes"/>
			<point x="339" y="563" type="line" smooth="yes"/>
			<point x="339" y="577"/>
			<point x="328" y="584"/>
			<point x="305" y="584" type="curve" smooth="yes"/>
			<point x="282" y="584"/>
			<point x="271" y="577"/>
			<point x="271" y="563" type="curve" smooth="yes"/>
			<point x="271" y="195" type="line" smooth="yes"/>
			<point x="271" y="181"/>
			<point x="282" y="174"/>
		</contour>
		<component base="minus" yOffset="-252"/>
		<component base="minus" yOffset="30"/>
	</outline>
</glyph>
<glyph name="paragraph" format="2">
  <advance width="921"/>
  <unicode hex="00B6"/>
  <outline>
    <contour>
      <point x="431" y="-390" type="curve" smooth="yes"/>
      <point x="460" y="-390"/>
      <point x="475" y="-381"/>
      <point x="475" y="-362" type="curve" smooth="yes"/>
      <point x="475" y="795" type="line"/>
      <point x="611" y="795" type="line"/>
      <point x="611" y="-362" type="line" smooth="yes"/>
      <point x="611" y="-381"/>
      <point x="626" y="-390"/>
      <point x="655" y="-390" type="curve" smooth="yes"/>
      <point x="684" y="-390"/>
      <point x="699" y="-381"/>
      <point x="699" y="-362" type="curve" smooth="yes"/>
      <point x="699" y="795" type="line"/>
      <point x="805" y="795" type="line" smooth="yes"/>
      <point x="825" y="795"/>
      <point x="833" y="805"/>
      <point x="833" y="835" type="curve" smooth="yes"/>
      <point x="833" y="865"/>
      <point x="825" y="875"/>
      <point x="805" y="875" type="curve" smooth="yes"/>
      <point x="388" y="875" type="line"/>
      <point x="388" y="-362" type="line" smooth="yes"/>
      <point x="388" y="-381"/>
      <point x="403" y="-390"/>
    </contour>
    <contour>
      <point x="363" y="264" type="curve" smooth="yes"/>
      <point x="440" y="264" type="line"/>
      <point x="448" y="875" type="line"/>
      <point x="363" y="875" type="line" smooth="yes"/>
      <point x="196" y="875"/>
      <point x="76" y="755"/>
      <point x="76" y="570" type="curve" smooth="yes"/>
      <point x="76" y="383"/>
      <point x="196" y="264"/>
    </contour>
  </outline>
</glyph>
<glyph name="ordmasculine" format="2">
  <advance width="454"/>
  <unicode hex="00BA"/>
  <outline>
    <contour>
      <point x="228" y="485" type="curve" smooth="yes"/>
      <point x="330" y="485"/>
      <point x="409" y="574"/>
      <point x="409" y="693" type="curve" smooth="yes"/>
      <point x="409" y="811"/>
      <point x="331" y="900"/>
      <point x="228" y="900" type="curve" smooth="yes"/>
      <point x="121" y="900"/>
      <point x="45" y="811"/>
      <point x="45" y="693" type="curve" smooth="yes"/>
      <point x="45" y="574"/>
      <point x="124" y="485"/>
    </contour>
    <contour>
      <point x="228" y="559" type="curve" smooth="yes"/>
      <point x="165" y="559"/>
      <point x="126" y="609"/>
      <point x="126" y="693" type="curve" smooth="yes"/>
      <point x="126" y="776"/>
      <point x="165" y="826"/>
      <point x="228" y="826" type="curve" smooth="yes"/>
      <point x="290" y="826"/>
      <point x="328" y="776"/>
      <point x="328" y="693" type="curve" smooth="yes"/>
      <point x="328" y="609"/>
      <point x="290" y="559"/>
    </contour>
  </outline>
</glyph>
<glyph name="Thorn" format="2">
  <advance width="725"/>
  <unicode hex="00DE"/>
  <outline>
    <contour>
      <point x="169" y="-14" type="curve" smooth="yes"/>
      <point x="198" y="-14"/>
      <point x="213" y="-5"/>
      <point x="213" y="14" type="curve" smooth="yes"/>
      <point x="213" y="234" type="line"/>
      <point x="248" y="234"/>
      <point x="295" y="236"/>
      <point x="344" y="244" type="curve" smooth="yes"/>
      <point x="490" y="268"/>
      <point x="663" y="339"/>
      <point x="663" y="544" type="curve" smooth="yes"/>
      <point x="663" y="701"/>
      <point x="559" y="763"/>
      <point x="360" y="763" type="curve" smooth="yes"/>
      <point x="213" y="763" type="line"/>
      <point x="213" y="863" type="line" smooth="yes"/>
      <point x="213" y="881"/>
      <point x="198" y="890"/>
      <point x="169" y="890" type="curve" smooth="yes"/>
      <point x="140" y="890"/>
      <point x="125" y="881"/>
      <point x="125" y="863" type="curve" smooth="yes"/>
      <point x="125" y="14" type="line" smooth="yes"/>
      <point x="125" y="-5"/>
      <point x="140" y="-14"/>
    </contour>
    <contour>
      <point x="213" y="313" type="curve"/>
      <point x="213" y="683" type="line"/>
      <point x="360" y="683" type="line" smooth="yes"/>
      <point x="500" y="683"/>
      <point x="573" y="644"/>
      <point x="573" y="543" type="curve" smooth="yes"/>
      <point x="573" y="399"/>
      <point x="458" y="343"/>
      <point x="344" y="323" type="curve" smooth="yes"/>
      <point x="298" y="315"/>
      <point x="250" y="313"/>
    </contour>
  </outline>
</glyph>
<glyph name="germandbls" format="2">
  <advance width="560"/>
  <unicode hex="00DF"/>
  <outline>
    <contour>
      <point x="510" y="202" type="curve" smooth="yes"/>
      <point x="510" y="312"/>
      <point x="447" y="393"/>
      <point x="291" y="396" type="curve"/>
      <point x="291" y="384" type="line"/>
      <point x="405" y="384"/>
      <point x="487" y="455"/>
      <point x="487" y="554" type="curve" smooth="yes"/>
      <point x="487" y="656"/>
      <point x="416" y="715"/>
      <point x="307" y="715" type="curve" smooth="yes"/>
      <point x="161" y="715"/>
      <point x="100" y="619"/>
      <point x="100" y="489" type="curve" smooth="yes"/>
      <point x="100" y="-291" type="line" smooth="yes"/>
      <point x="100" y="-305"/>
      <point x="111" y="-312"/>
      <point x="134" y="-312" type="curve" smooth="yes"/>
      <point x="157" y="-312"/>
      <point x="169" y="-305"/>
      <point x="169" y="-291" type="curve" smooth="yes"/>
      <point x="169" y="489" type="line" smooth="yes"/>
      <point x="169" y="577"/>
      <point x="202" y="651"/>
      <point x="307" y="651" type="curve" smooth="yes"/>
      <point x="374" y="651"/>
      <point x="420" y="615"/>
      <point x="420" y="555" type="curve" smooth="yes"/>
      <point x="420" y="476"/>
      <point x="359" y="418"/>
      <point x="274" y="418" type="curve" smooth="yes"/>
      <point x="263" y="418" type="line" smooth="yes"/>
      <point x="247" y="418"/>
      <point x="241" y="410"/>
      <point x="241" y="386" type="curve" smooth="yes"/>
      <point x="241" y="362"/>
      <point x="247" y="354"/>
      <point x="263" y="354" type="curve" smooth="yes"/>
      <point x="271" y="354" type="line" smooth="yes"/>
      <point x="395" y="354"/>
      <point x="440" y="292"/>
      <point x="440" y="202" type="curve" smooth="yes"/>
      <point x="440" y="107"/>
      <point x="390" y="49"/>
      <point x="309" y="49" type="curve" smooth="yes"/>
      <point x="275" y="49"/>
      <point x="254" y="58"/>
      <point x="240" y="64" type="curve" smooth="yes"/>
      <point x="226" y="70"/>
      <point x="215" y="66"/>
      <point x="206" y="47" type="curve" smooth="yes"/>
      <point x="199" y="31"/>
      <point x="201" y="18"/>
      <point x="212" y="11" type="curve" smooth="yes"/>
      <point x="232" y="-2"/>
      <point x="264" y="-15"/>
      <point x="309" y="-15" type="curve" smooth="yes"/>
      <point x="434" y="-15"/>
      <point x="510" y="67"/>
    </contour>
  </outline>
</glyph>
<glyph name="ae" format="2">
  <advance width="715"/>
  <unicode hex="00E6"/>
  <anchor x="405" y="400" name="top"/>
  <outline>
    <contour>
      <point x="50" y="171" type="curve" smooth="yes"/>
      <point x="50" y="53"/>
      <point x="103" y="-14"/>
      <point x="191" y="-14" type="curve" smooth="yes"/>
      <point x="293" y="-14"/>
      <point x="358" y="69"/>
      <point x="415" y="294" type="curve"/>
      <point x="362" y="302" type="line"/>
      <point x="310" y="114"/>
      <point x="261" y="50"/>
      <point x="196" y="50" type="curve" smooth="yes"/>
      <point x="149" y="50"/>
      <point x="121" y="89"/>
      <point x="121" y="174" type="curve" smooth="yes"/>
      <point x="121" y="276"/>
      <point x="182" y="351"/>
      <point x="274" y="351" type="curve" smooth="yes"/>
      <point x="329" y="351"/>
      <point x="365" y="336"/>
      <point x="414" y="314" type="curve"/>
      <point x="386" y="369" type="line"/>
      <point x="367" y="325"/>
      <point x="346" y="264"/>
      <point x="346" y="183" type="curve" smooth="yes"/>
      <point x="346" y="69"/>
      <point x="416" y="-15"/>
      <point x="528" y="-15" type="curve" smooth="yes"/>
      <point x="588" y="-15"/>
      <point x="640" y="6"/>
      <point x="686" y="67" type="curve" smooth="yes"/>
      <point x="696" y="81"/>
      <point x="693" y="94"/>
      <point x="678" y="106" type="curve" smooth="yes"/>
      <point x="663" y="118"/>
      <point x="650" y="120"/>
      <point x="635" y="103" type="curve" smooth="yes"/>
      <point x="602" y="67"/>
      <point x="578" y="49"/>
      <point x="530" y="49" type="curve" smooth="yes"/>
      <point x="459" y="49"/>
      <point x="415" y="107"/>
      <point x="415" y="190" type="curve" smooth="yes"/>
      <point x="415" y="252"/>
      <point x="432" y="313"/>
      <point x="460" y="373" type="curve"/>
      <point x="400" y="397"/>
      <point x="350" y="415"/>
      <point x="277" y="415" type="curve" smooth="yes"/>
      <point x="132" y="415"/>
      <point x="50" y="301"/>
    </contour>
    <contour>
      <point x="677" y="309" type="curve" smooth="yes"/>
      <point x="677" y="380"/>
      <point x="624" y="415"/>
      <point x="547" y="415" type="curve" smooth="yes"/>
      <point x="485" y="415"/>
      <point x="449" y="400"/>
      <point x="407" y="374" type="curve"/>
      <point x="424" y="313" type="line"/>
      <point x="458" y="338"/>
      <point x="499" y="351"/>
      <point x="543" y="351" type="curve" smooth="yes"/>
      <point x="581" y="351"/>
      <point x="606" y="337"/>
      <point x="606" y="303" type="curve" smooth="yes"/>
      <point x="606" y="239"/>
      <point x="499" y="208"/>
      <point x="390" y="208" type="curve"/>
      <point x="390" y="151" type="line"/>
      <point x="556" y="151"/>
      <point x="677" y="197"/>
    </contour>
  </outline>
</glyph>
<glyph name="eth" format="2">
  <advance width="482"/>
  <unicode hex="00F0"/>
  <outline>
    <contour>
      <point x="235" y="-15" type="curve" smooth="yes"/>
      <point x="341" y="-15"/>
      <point x="431" y="72"/>
      <point x="431" y="237" type="curve" smooth="yes"/>
      <point x="431" y="439"/>
      <point x="348" y="570"/>
      <point x="199" y="709" type="curve" smooth="yes"/>
      <point x="187" y="721"/>
      <point x="174" y="721"/>
      <point x="160" y="708" type="curve" smooth="yes"/>
      <point x="145" y="694"/>
      <point x="143" y="678"/>
      <point x="155" y="667" type="curve" smooth="yes"/>
      <point x="284" y="545"/>
      <point x="360" y="418"/>
      <point x="360" y="237" type="curve" smooth="yes"/>
      <point x="360" y="109"/>
      <point x="301" y="49"/>
      <point x="235" y="49" type="curve" smooth="yes"/>
      <point x="167" y="49"/>
      <point x="131" y="111"/>
      <point x="131" y="200" type="curve" smooth="yes"/>
      <point x="131" y="287"/>
      <point x="173" y="351"/>
      <point x="243" y="351" type="curve" smooth="yes"/>
      <point x="307" y="351"/>
      <point x="358" y="313"/>
      <point x="397" y="245" type="curve"/>
      <point x="408" y="303" type="line"/>
      <point x="368" y="377"/>
      <point x="312" y="415"/>
      <point x="243" y="415" type="curve" smooth="yes"/>
      <point x="136" y="415"/>
      <point x="60" y="326"/>
      <point x="60" y="200" type="curve" smooth="yes"/>
      <point x="60" y="72"/>
      <point x="120" y="-15"/>
    </contour>
    <contour>
      <point x="188" y="489" type="curve" smooth="yes"/>
      <point x="408" y="590" type="line" smooth="yes"/>
      <point x="420" y="596"/>
      <point x="423" y="606"/>
      <point x="417" y="621" type="curve" smooth="yes"/>
      <point x="410" y="639"/>
      <point x="399" y="644"/>
      <point x="384" y="637" type="curve" smooth="yes"/>
      <point x="167" y="537" type="line" smooth="yes"/>
      <point x="153" y="531"/>
      <point x="149" y="521"/>
      <point x="155" y="506" type="curve" smooth="yes"/>
      <point x="163" y="488"/>
      <point x="174" y="482"/>
    </contour>
  </outline>
</glyph>
<glyph name="thorn" format="2">
	<unicode hex="00FE"/>
	<advance width="478"/>
	<outline>
		<contour>
			<point x="114" y="-312" type="curve" smooth="yes"/>
			<point x="137" y="-312"/>
			<point x="149" y="-305"/>
			<point x="149" y="-291" type="curve" smooth="yes"/>
			<point x="149" y="11" type="line"/>
			<point x="176" y="-5"/>
			<point x="209" y="-14"/>
			<point x="242" y="-14" type="curve" smooth="yes"/>
			<point x="361" y="-14"/>
			<point x="428" y="74"/>
			<point x="428" y="213" type="curve" smooth="yes"/>
			<point x="428" y="349"/>
			<point x="364" y="415"/>
			<point x="272" y="415" type="curve" smooth="yes"/>
			<point x="232" y="415"/>
			<point x="186" y="402"/>
			<point x="149" y="346" type="curve"/>
			<point x="149" y="691" type="line" smooth="yes"/>
			<point x="149" y="705"/>
			<point x="137" y="712"/>
			<point x="114" y="712" type="curve" smooth="yes"/>
			<point x="91" y="712"/>
			<point x="80" y="705"/>
			<point x="80" y="691" type="curve" smooth="yes"/>
			<point x="80" y="-291" type="line" smooth="yes"/>
			<point x="80" y="-305"/>
			<point x="91" y="-312"/>
		</contour>
		<contour>
			<point x="149" y="76" type="curve"/>
			<point x="149" y="274" type="line"/>
			<point x="179" y="329"/>
			<point x="219" y="351"/>
			<point x="262" y="351" type="curve" smooth="yes"/>
			<point x="326" y="351"/>
			<point x="357" y="298"/>
			<point x="357" y="210" type="curve" smooth="yes"/>
			<point x="357" y="102"/>
			<point x="311" y="49"/>
			<point x="242" y="49" type="curve" smooth="yes"/>
			<point x="211" y="49"/>
			<point x="181" y="57"/>
		</contour>
	</outline>
</glyph>
<glyph name="idotless" format="2">
  <advance width="304"/>
  <unicode hex="0131"/>
  <anchor x="198" y="0" name="bottom"/>
  <anchor x="253" y="0" name="ogonek"/>
  <anchor x="130" y="500" name="top"/>
  <outline>
    <contour>
      <point x="193" y="-17" type="curve" smooth="yes"/>
      <point x="231" y="-17"/>
      <point x="274" y="4"/>
      <point x="296" y="35" type="curve" smooth="yes"/>
      <point x="304" y="46"/>
      <point x="300" y="58"/>
      <point x="293" y="68" type="curve" smooth="yes"/>
      <point x="281" y="81"/>
      <point x="269" y="90"/>
      <point x="260" y="84" type="curve" smooth="yes"/>
      <point x="244" y="71"/>
      <point x="233" y="58"/>
      <point x="211" y="58" type="curve" smooth="yes"/>
      <point x="193" y="58"/>
      <point x="180" y="69"/>
      <point x="180" y="96" type="curve" smooth="yes"/>
      <point x="180" y="489" type="line" smooth="yes"/>
      <point x="180" y="506"/>
      <point x="165" y="515"/>
      <point x="136" y="515" type="curve" smooth="yes"/>
      <point x="108" y="515"/>
      <point x="94" y="506"/>
      <point x="94" y="489" type="curve" smooth="yes"/>
      <point x="94" y="86" type="line" smooth="yes"/>
      <point x="94" y="21"/>
      <point x="123" y="-17"/>
    </contour>
  </outline>
</glyph>
<glyph name="Eng" format="2">
  <advance width="710"/>
  <unicode hex="014A"/>
  <outline>
    <contour>
      <point x="610" y="-87" type="curve" smooth="yes"/>
      <point x="610" y="690" type="line" smooth="yes"/>
      <point x="610" y="705"/>
      <point x="598" y="712"/>
      <point x="575" y="712" type="curve" smooth="yes"/>
      <point x="552" y="712"/>
      <point x="540" y="705"/>
      <point x="540" y="690" type="curve" smooth="yes"/>
      <point x="540" y="137" type="line"/>
      <point x="175" y="690" type="line" smooth="yes"/>
      <point x="165" y="705"/>
      <point x="154" y="712"/>
      <point x="135" y="712" type="curve" smooth="yes"/>
      <point x="112" y="712"/>
      <point x="100" y="705"/>
      <point x="100" y="690" type="curve" smooth="yes"/>
      <point x="100" y="11" type="line" smooth="yes"/>
      <point x="100" y="-4"/>
      <point x="112" y="-11"/>
      <point x="135" y="-11" type="curve" smooth="yes"/>
      <point x="158" y="-11"/>
      <point x="170" y="-4"/>
      <point x="170" y="11" type="curve" smooth="yes"/>
      <point x="170" y="573" type="line"/>
      <point x="541" y="9" type="line"/>
      <point x="541" y="-92" type="line" smooth="yes"/>
      <point x="541" y="-124"/>
      <point x="534" y="-144"/>
      <point x="508" y="-144" type="curve" smooth="yes"/>
      <point x="490" y="-144"/>
      <point x="480" y="-135"/>
      <point x="466" y="-118" type="curve" smooth="yes"/>
      <point x="455" y="-104"/>
      <point x="444" y="-99"/>
      <point x="425" y="-110" type="curve" smooth="yes"/>
      <point x="409" y="-119"/>
      <point x="401" y="-131"/>
      <point x="409" y="-147" type="curve" smooth="yes"/>
      <point x="425" y="-178"/>
      <point x="459" y="-204"/>
      <point x="508" y="-204" type="curve" smooth="yes"/>
      <point x="562" y="-204"/>
      <point x="610" y="-176"/>
    </contour>
  </outline>
</glyph>
<glyph name="eng" format="2">
  <advance width="490"/>
  <unicode hex="014B"/>
  <outline>
    <contour>
      <point x="421" y="-87" type="curve" smooth="yes"/>
      <point x="421" y="267" type="line" smooth="yes"/>
      <point x="421" y="372"/>
      <point x="362" y="415"/>
      <point x="280" y="415" type="curve" smooth="yes"/>
      <point x="223" y="415"/>
      <point x="175" y="385"/>
      <point x="144" y="339" type="curve"/>
      <point x="144" y="391" type="line" smooth="yes"/>
      <point x="144" y="405"/>
      <point x="132" y="412"/>
      <point x="109" y="412" type="curve" smooth="yes"/>
      <point x="86" y="412"/>
      <point x="75" y="405"/>
      <point x="75" y="391" type="curve" smooth="yes"/>
      <point x="75" y="9" type="line" smooth="yes"/>
      <point x="75" y="-5"/>
      <point x="86" y="-12"/>
      <point x="109" y="-12" type="curve" smooth="yes"/>
      <point x="132" y="-12"/>
      <point x="144" y="-5"/>
      <point x="144" y="9" type="curve" smooth="yes"/>
      <point x="144" y="260" type="line"/>
      <point x="173" y="328"/>
      <point x="224" y="351"/>
      <point x="270" y="351" type="curve" smooth="yes"/>
      <point x="329" y="351"/>
      <point x="352" y="317"/>
      <point x="352" y="261" type="curve" smooth="yes"/>
      <point x="352" y="-92" type="line" smooth="yes"/>
      <point x="352" y="-124"/>
      <point x="345" y="-144"/>
      <point x="319" y="-144" type="curve" smooth="yes"/>
      <point x="301" y="-144"/>
      <point x="291" y="-135"/>
      <point x="277" y="-118" type="curve" smooth="yes"/>
      <point x="266" y="-104"/>
      <point x="255" y="-99"/>
      <point x="236" y="-110" type="curve" smooth="yes"/>
      <point x="220" y="-119"/>
      <point x="212" y="-131"/>
      <point x="220" y="-147" type="curve" smooth="yes"/>
      <point x="236" y="-178"/>
      <point x="270" y="-204"/>
      <point x="319" y="-204" type="curve" smooth="yes"/>
      <point x="373" y="-204"/>
      <point x="421" y="-176"/>
    </contour>
  </outline>
</glyph>
<glyph name="oe" format="2">
  <advance width="721"/>
  <unicode hex="0153"/>
  <anchor x="385" y="400" name="top"/>
  <outline>
    <contour>
      <point x="236" y="-15" type="curve" smooth="yes"/>
      <point x="337" y="-15"/>
      <point x="411" y="75"/>
      <point x="411" y="200" type="curve" smooth="yes"/>
      <point x="411" y="325"/>
      <point x="337" y="415"/>
      <point x="236" y="415" type="curve" smooth="yes"/>
      <point x="128" y="415"/>
      <point x="50" y="325"/>
      <point x="50" y="200" type="curve" smooth="yes"/>
      <point x="50" y="75"/>
      <point x="128" y="-15"/>
    </contour>
    <contour>
      <point x="236" y="49" type="curve" smooth="yes"/>
      <point x="165" y="49"/>
      <point x="121" y="107"/>
      <point x="121" y="200" type="curve" smooth="yes"/>
      <point x="121" y="293"/>
      <point x="165" y="351"/>
      <point x="236" y="351" type="curve" smooth="yes"/>
      <point x="307" y="351"/>
      <point x="350" y="293"/>
      <point x="350" y="200" type="curve" smooth="yes"/>
      <point x="350" y="107"/>
      <point x="307" y="49"/>
    </contour>
    <contour>
      <point x="534" y="-15" type="curve" smooth="yes"/>
      <point x="586" y="-15"/>
      <point x="651" y="6"/>
      <point x="692" y="67" type="curve" smooth="yes"/>
      <point x="702" y="81"/>
      <point x="699" y="94"/>
      <point x="684" y="106" type="curve" smooth="yes"/>
      <point x="669" y="118"/>
      <point x="657" y="119"/>
      <point x="641" y="103" type="curve" smooth="yes"/>
      <point x="605" y="67"/>
      <point x="584" y="49"/>
      <point x="536" y="49" type="curve" smooth="yes"/>
      <point x="465" y="49"/>
      <point x="421" y="107"/>
      <point x="421" y="195" type="curve" smooth="yes"/>
      <point x="421" y="293"/>
      <point x="479" y="351"/>
      <point x="549" y="351" type="curve" smooth="yes"/>
      <point x="587" y="351"/>
      <point x="612" y="337"/>
      <point x="612" y="303" type="curve" smooth="yes"/>
      <point x="612" y="239"/>
      <point x="505" y="208"/>
      <point x="416" y="209" type="curve"/>
      <point x="416" y="153" type="line"/>
      <point x="569" y="154"/>
      <point x="683" y="206"/>
      <point x="683" y="309" type="curve" smooth="yes"/>
      <point x="683" y="380"/>
      <point x="630" y="415"/>
      <point x="553" y="415" type="curve" smooth="yes"/>
      <point x="441" y="415"/>
      <point x="360" y="325"/>
      <point x="360" y="182" type="curve" smooth="yes"/>
      <point x="360" y="75"/>
      <point x="415" y="-15"/>
    </contour>
  </outline>
</glyph>
<glyph name="Uhorn" format="2">
  <advance width="863"/>
  <unicode hex="01AF"/>
  <anchor x="431" y="0" name="bottom"/>
  <anchor x="588" y="13" name="ogonek"/>
  <anchor x="431" y="838" name="top"/>
  <anchor x="708" y="888" name="topright"/>
  <outline>
    <contour>
      <point x="895" y="1066" type="curve" smooth="yes"/>
      <point x="867" y="1111"/>
      <point x="791" y="1068"/>
      <point x="819" y="1023" type="curve" smooth="yes"/>
      <point x="865" y="949"/>
      <point x="846" y="888"/>
      <point x="708" y="888" type="curve"/>
      <point x="708" y="826" type="line"/>
      <point x="927" y="826"/>
      <point x="963" y="955"/>
    </contour>
    <component base="U"/>
  </outline>
</glyph>
<glyph name="uhorn" format="2">
  <advance width="645"/>
  <unicode hex="01B0"/>
  <guideline x="545" y="713" angle="0"/>
  <anchor x="303" y="0" name="bottom"/>
  <anchor x="581" y="13" name="ogonek"/>
  <anchor x="303" y="500" name="top"/>
  <outline>
    <contour>
      <point x="269" y="-17" type="curve" smooth="yes"/>
      <point x="374" y="-17"/>
      <point x="445" y="56"/>
      <point x="471" y="166" type="curve"/>
      <point x="446" y="209" type="line"/>
      <point x="423" y="126"/>
      <point x="366" y="59"/>
      <point x="280" y="59" type="curve" smooth="yes"/>
      <point x="213" y="59"/>
      <point x="180" y="95"/>
      <point x="180" y="166" type="curve" smooth="yes"/>
      <point x="180" y="489" type="line" smooth="yes"/>
      <point x="180" y="506"/>
      <point x="165" y="515"/>
      <point x="136" y="515" type="curve" smooth="yes"/>
      <point x="108" y="515"/>
      <point x="94" y="506"/>
      <point x="94" y="489" type="curve" smooth="yes"/>
      <point x="94" y="166" type="line" smooth="yes"/>
      <point x="94" y="44"/>
      <point x="153" y="-17"/>
    </contour>
    <contour>
      <point x="536" y="-19" type="curve" smooth="yes"/>
      <point x="575" y="-19"/>
      <point x="615" y="3"/>
      <point x="636" y="33" type="curve" smooth="yes"/>
      <point x="645" y="45"/>
      <point x="641" y="59"/>
      <point x="634" y="69" type="curve" smooth="yes"/>
      <point x="623" y="84"/>
      <point x="609" y="88"/>
      <point x="599" y="80" type="curve" smooth="yes"/>
      <point x="584" y="69"/>
      <point x="571" y="56"/>
      <point x="553" y="56" type="curve" smooth="yes"/>
      <point x="534" y="56"/>
      <point x="521" y="68"/>
      <point x="521" y="96" type="curve" smooth="yes"/>
      <point x="521" y="456" type="line"/>
      <point x="699" y="481"/>
      <point x="724" y="593"/>
      <point x="651" y="697" type="curve" smooth="yes"/>
      <point x="619" y="742"/>
      <point x="545" y="695"/>
      <point x="576" y="652" type="curve" smooth="yes"/>
      <point x="629" y="578"/>
      <point x="613" y="522"/>
      <point x="478" y="515" type="curve"/>
      <point x="449" y="515"/>
      <point x="435" y="506"/>
      <point x="435" y="489" type="curve" smooth="yes"/>
      <point x="435" y="93" type="line" smooth="yes"/>
      <point x="435" y="28"/>
      <point x="466" y="-19"/>
    </contour>
  </outline>
</glyph>
<glyph name="jdotless" format="2">
	<unicode hex="0237"/>
	<advance width="214"/>
	<outline>
		<contour>
			<point x="39" y="-315" type="curve" smooth="yes"/>
			<point x="93" y="-315"/>
			<point x="140" y="-287"/>
			<point x="140" y="-198" type="curve" smooth="yes"/>
			<point x="140" y="391" type="line" smooth="yes"/>
			<point x="140" y="405"/>
			<point x="128" y="412"/>
			<point x="105" y="412" type="curve" smooth="yes"/>
			<point x="82" y="412"/>
			<point x="71" y="405"/>
			<point x="71" y="391" type="curve" smooth="yes"/>
			<point x="71" y="-201" type="line" smooth="yes"/>
			<point x="71" y="-232"/>
			<point x="65" y="-255"/>
			<point x="39" y="-255" type="curve" smooth="yes"/>
			<point x="20" y="-255"/>
			<point x="13" y="-249"/>
			<point x="1" y="-229" type="curve" smooth="yes"/>
			<point x="-8" y="-214"/>
			<point x="-20" y="-211"/>
			<point x="-40" y="-221" type="curve" smooth="yes"/>
			<point x="-54" y="-228"/>
			<point x="-64" y="-240"/>
			<point x="-57" y="-256" type="curve" smooth="yes"/>
			<point x="-41" y="-289"/>
			<point x="-10" y="-315"/>
		</contour>
	</outline>
	<anchor name="top" x="104" y="400"/>
</glyph>
<glyph name="acutecomb" format="2">
  <unicode hex="0301"/>
  <anchor x="0" y="400" name="_top"/>
  <anchor x="0" y="654" name="top"/>
  <outline>
    <contour>
      <point x="-25" y="488" type="curve" smooth="yes"/>
      <point x="-20" y="488"/>
      <point x="-16" y="491"/>
      <point x="-10" y="498" type="curve" smooth="yes"/>
      <point x="89" y="616" type="line" smooth="yes"/>
      <point x="96" y="625"/>
      <point x="98" y="628"/>
      <point x="98" y="635" type="curve" smooth="yes"/>
      <point x="98" y="649"/>
      <point x="68" y="671"/>
      <point x="52" y="671" type="curve" smooth="yes"/>
      <point x="43" y="671"/>
      <point x="38" y="667"/>
      <point x="33" y="659" type="curve" smooth="yes"/>
      <point x="-53" y="528" type="line" smooth="yes"/>
      <point x="-58" y="521"/>
      <point x="-58" y="518"/>
      <point x="-58" y="515" type="curve" smooth="yes"/>
      <point x="-58" y="504"/>
      <point x="-37" y="488"/>
    </contour>
  </outline>
</glyph>
<glyph name="circumflexcomb" format="2">
	<unicode hex="0302"/>
	<outline>
		<contour>
			<point x="-114" y="488" type="curve" smooth="yes"/>
			<point x="-107" y="488"/>
			<point x="-101" y="492"/>
			<point x="-94" y="498" type="curve" smooth="yes"/>
			<point x="0" y="591" type="line"/>
			<point x="94" y="498" type="line" smooth="yes"/>
			<point x="101" y="492"/>
			<point x="107" y="488"/>
			<point x="114" y="488" type="curve" smooth="yes"/>
			<point x="124" y="488"/>
			<point x="142" y="504"/>
			<point x="142" y="515" type="curve" smooth="yes"/>
			<point x="142" y="518"/>
			<point x="142" y="521"/>
			<point x="137" y="528" type="curve" smooth="yes"/>
			<point x="34" y="655" type="line" smooth="yes"/>
			<point x="28" y="662"/>
			<point x="20" y="671"/>
			<point x="0" y="671" type="curve" smooth="yes"/>
			<point x="-21" y="671"/>
			<point x="-29" y="662"/>
			<point x="-35" y="655" type="curve" smooth="yes"/>
			<point x="-137" y="528" type="line" smooth="yes"/>
			<point x="-142" y="521"/>
			<point x="-142" y="518"/>
			<point x="-142" y="515" type="curve" smooth="yes"/>
			<point x="-142" y="504"/>
			<point x="-124" y="488"/>
		</contour>
	</outline>
	<anchor name="_top" x="0" y="400"/>
	<anchor name="top" x="0" y="654"/>
</glyph>
<glyph name="macroncomb" format="2">
	<unicode hex="0304"/>
	<outline>
		<contour>
			<point x="-107" y="549" type="curve" smooth="yes"/>
			<point x="107" y="549" type="line" smooth="yes"/>
			<point x="126" y="549"/>
			<point x="129" y="563"/>
			<point x="129" y="582" type="curve" smooth="yes"/>
			<point x="129" y="602"/>
			<point x="126" y="617"/>
			<point x="107" y="617" type="curve" smooth="yes"/>
			<point x="-107" y="617" type="line" smooth="yes"/>
			<point x="-126" y="617"/>
			<point x="-129" y="602"/>
			<point x="-129" y="582" type="curve" smooth="yes"/>
			<point x="-129" y="563"/>
			<point x="-126" y="549"/>
		</contour>
	</outline>
	<anchor name="_top" x="0" y="400"/>
	<anchor name="top" x="0" y="654"/>
</glyph>
<glyph name="dotaccentcomb" format="2">
	<unicode hex="0307"/>
	<outline>
		<contour>
			<point x="0" y="535" type="curve" smooth="yes"/>
			<point x="29" y="535"/>
			<point x="45" y="551"/>
			<point x="44" y="585" type="curve" smooth="yes"/>
			<point x="44" y="619"/>
			<point x="29" y="636"/>
			<point x="0" y="636" type="curve" smooth="yes"/>
			<point x="-30" y="636"/>
			<point x="-45" y="619"/>
			<point x="-45" y="585" type="curve" smooth="yes"/>
			<point x="-45" y="551"/>
			<point x="-30" y="535"/>
		</contour>
	</outline>
	<anchor name="_top" x="0" y="400"/>
	<anchor name="top" x="0" y="620"/>
</glyph>
<glyph name="commaturnedabovecomb" format="2">
	<unicode hex="0312"/>
	<outline>
		<contour>
			<point x="41" y="676" type="curve" smooth="yes"/>
			<point x="24" y="682"/>
			<point x="15" y="680"/>
			<point x="4" y="663" type="curve" smooth="yes"/>
			<point x="-21" y="624"/>
			<point x="-39" y="571"/>
			<point x="-39" y="530" type="curve" smooth="yes"/>
			<point x="-39" y="510"/>
			<point x="-25" y="497"/>
			<point x="-1" y="497" type="curve" smooth="yes"/>
			<point x="19" y="497"/>
			<point x="30" y="504"/>
			<point x="30" y="522" type="curve" smooth="yes"/>
			<point x="30" y="570"/>
			<point x="32" y="598"/>
			<point x="51" y="647" type="curve" smooth="yes"/>
			<point x="57" y="663"/>
			<point x="54" y="671"/>
		</contour>
	</outline>
	<anchor name="_top" x="0" y="400"/>
	<anchor name="top" x="0" y="654"/>
</glyph>
<glyph name="horncomb" format="2">
  <unicode hex="031B"/>
  <anchor x="0" y="412" name="_topright"/>
  <outline>
    <contour>
      <point x="144" y="563" type="curve" smooth="yes"/>
      <point x="119" y="598"/>
      <point x="60" y="562"/>
      <point x="84" y="528" type="curve" smooth="yes"/>
      <point x="127" y="467"/>
      <point x="114" y="416"/>
      <point x="0" y="412" type="curve"/>
      <point x="0" y="362" type="line"/>
      <point x="179" y="369"/>
      <point x="209" y="472"/>
    </contour>
  </outline>
</glyph>
<glyph name="commaaccentcomb" format="2">
	<unicode hex="0326"/>
	<outline>
		<contour>
			<point x="-45" y="-233" type="curve" smooth="yes"/>
			<point x="-28" y="-239"/>
			<point x="-19" y="-237"/>
			<point x="-8" y="-220" type="curve" smooth="yes"/>
			<point x="17" y="-181"/>
			<point x="35" y="-133"/>
			<point x="35" y="-92" type="curve" smooth="yes"/>
			<point x="35" y="-72"/>
			<point x="21" y="-59"/>
			<point x="-3" y="-59" type="curve" smooth="yes"/>
			<point x="-23" y="-59"/>
			<point x="-34" y="-66"/>
			<point x="-34" y="-84" type="curve" smooth="yes"/>
			<point x="-34" y="-132"/>
			<point x="-36" y="-155"/>
			<point x="-55" y="-204" type="curve" smooth="yes"/>
			<point x="-61" y="-220"/>
			<point x="-58" y="-228"/>
		</contour>
	</outline>
	<anchor name="_bottom" x="0" y="0"/>
</glyph>
<glyph name="ogonekcomb" format="2">
	<unicode hex="0328"/>
	<outline>
		<contour>
			<point x="-15" y="-206" type="curve" smooth="yes"/>
			<point x="17" y="-206"/>
			<point x="62" y="-189"/>
			<point x="82" y="-161" type="curve" smooth="yes"/>
			<point x="88" y="-153"/>
			<point x="85" y="-136"/>
			<point x="74" y="-126" type="curve" smooth="yes"/>
			<point x="63" y="-116"/>
			<point x="52" y="-118"/>
			<point x="45" y="-123" type="curve" smooth="yes"/>
			<point x="24" y="-139"/>
			<point x="14" y="-145"/>
			<point x="-2" y="-145" type="curve" smooth="yes"/>
			<point x="-19" y="-145"/>
			<point x="-30" y="-135"/>
			<point x="-30" y="-113" type="curve" smooth="yes"/>
			<point x="-30" y="-73"/>
			<point x="19" y="-32"/>
			<point x="68" y="9" type="curve"/>
			<point x="68" y="16" type="line"/>
			<point x="18" y="15" type="line"/>
			<point x="-54" y="-41"/>
			<point x="-92" y="-79"/>
			<point x="-92" y="-136" type="curve" smooth="yes"/>
			<point x="-92" y="-182"/>
			<point x="-57" y="-206"/>
		</contour>
	</outline>
	<anchor name="_ogonek" x="53" y="0"/>
</glyph>
<glyph name="strokelongcomb" format="2">
	<unicode hex="0336"/>
	<outline>
		<contour>
			<point x="-308" y="243" type="curve" smooth="yes"/>
			<point x="308" y="243" type="line" smooth="yes"/>
			<point x="327" y="243"/>
			<point x="330" y="254"/>
			<point x="330" y="273" type="curve" smooth="yes"/>
			<point x="330" y="293"/>
			<point x="327" y="305"/>
			<point x="308" y="305" type="curve" smooth="yes"/>
			<point x="-308" y="305" type="line" smooth="yes"/>
			<point x="-327" y="305"/>
			<point x="-330" y="293"/>
			<point x="-330" y="273" type="curve" smooth="yes"/>
			<point x="-330" y="254"/>
			<point x="-327" y="243"/>
		</contour>
	</outline>
	<anchor name="_center" x="0" y="274"/>
</glyph>
<glyph name="slashshortcomb" format="2">
	<unicode hex="0337"/>
	<outline>
		<contour>
			<point x="-85" y="201" type="curve" smooth="yes"/>
			<point x="133" y="310" type="line" smooth="yes"/>
			<point x="146" y="317"/>
			<point x="147" y="330"/>
			<point x="136" y="349" type="curve" smooth="yes"/>
			<point x="127" y="362"/>
			<point x="118" y="365"/>
			<point x="104" y="358" type="curve" smooth="yes"/>
			<point x="-114" y="251" type="line" smooth="yes"/>
			<point x="-129" y="244"/>
			<point x="-128" y="227"/>
			<point x="-121" y="214" type="curve" smooth="yes"/>
			<point x="-112" y="197"/>
			<point x="-100" y="193"/>
		</contour>
	</outline>
	<anchor name="_center" x="0" y="274"/>
</glyph>
<glyph name="Germandbls" format="2">
  <advance width="710"/>
  <unicode hex="1E9E"/>
  <outline>
    <contour>
      <point x="411" y="-15" type="curve" smooth="yes"/>
      <point x="536" y="-15"/>
      <point x="639" y="67"/>
      <point x="639" y="196" type="curve" smooth="yes"/>
      <point x="639" y="424"/>
      <point x="366" y="396"/>
      <point x="366" y="542" type="curve" smooth="yes"/>
      <point x="366" y="615"/>
      <point x="439" y="646"/>
      <point x="499" y="646" type="curve" smooth="yes"/>
      <point x="515" y="646"/>
      <point x="521" y="655"/>
      <point x="521" y="679" type="curve" smooth="yes"/>
      <point x="521" y="703"/>
      <point x="515" y="712"/>
      <point x="499" y="712" type="curve" smooth="yes"/>
      <point x="482" y="712" type="line" smooth="yes"/>
      <point x="167" y="712"/>
      <point x="96" y="608"/>
      <point x="96" y="422" type="curve" smooth="yes"/>
      <point x="96" y="11" type="line" smooth="yes"/>
      <point x="96" y="-4"/>
      <point x="108" y="-11"/>
      <point x="131" y="-11" type="curve" smooth="yes"/>
      <point x="154" y="-11"/>
      <point x="166" y="-4"/>
      <point x="166" y="11" type="curve" smooth="yes"/>
      <point x="166" y="422" type="line" smooth="yes"/>
      <point x="166" y="573"/>
      <point x="217" y="651"/>
      <point x="482" y="651" type="curve"/>
      <point x="481" y="672" type="line"/>
      <point x="383" y="672"/>
      <point x="294" y="615"/>
      <point x="294" y="527" type="curve" smooth="yes"/>
      <point x="294" y="349"/>
      <point x="565" y="369"/>
      <point x="565" y="196" type="curve" smooth="yes"/>
      <point x="565" y="108"/>
      <point x="499" y="53"/>
      <point x="411" y="53" type="curve" smooth="yes"/>
      <point x="364" y="53"/>
      <point x="325" y="62"/>
      <point x="284" y="80" type="curve" smooth="yes"/>
      <point x="264" y="89"/>
      <point x="254" y="82"/>
      <point x="245" y="62" type="curve" smooth="yes"/>
      <point x="236" y="42"/>
      <point x="240" y="31"/>
      <point x="258" y="22" type="curve" smooth="yes"/>
      <point x="301" y="0"/>
      <point x="353" y="-15"/>
    </contour>
  </outline>
</glyph>
<glyph name="quoteleft" format="2">
  <advance width="145"/>
  <unicode hex="2018"/>
  <outline>
    <contour>
      <point x="74" y="518" type="curve" smooth="yes"/>
      <point x="97" y="518"/>
      <point x="112" y="528"/>
      <point x="112" y="548" type="curve" smooth="yes"/>
      <point x="112" y="622"/>
      <point x="116" y="644"/>
      <point x="139" y="691" type="curve" smooth="yes"/>
      <point x="144" y="700"/>
      <point x="147" y="707"/>
      <point x="147" y="711" type="curve" smooth="yes"/>
      <point x="147" y="725"/>
      <point x="131" y="736"/>
      <point x="116" y="736" type="curve" smooth="yes"/>
      <point x="105" y="736"/>
      <point x="98" y="729"/>
      <point x="93" y="723" type="curve" smooth="yes"/>
      <point x="51" y="672"/>
      <point x="35" y="606"/>
      <point x="35" y="550" type="curve" smooth="yes"/>
      <point x="35" y="530"/>
      <point x="50" y="518"/>
    </contour>
  </outline>
</glyph>
<glyph name="bullet" format="2">
	<unicode hex="2022"/>
	<advance width="367"/>
	<outline>
		<contour>
			<point x="184" y="65" type="curve" smooth="yes"/>
			<point x="261" y="65"/>
			<point x="317" y="119"/>
			<point x="317" y="220" type="curve" smooth="yes"/>
			<point x="317" y="320"/>
			<point x="261" y="375"/>
			<point x="184" y="375" type="curve" smooth="yes"/>
			<point x="106" y="375"/>
			<point x="50" y="320"/>
			<point x="50" y="220" type="curve" smooth="yes"/>
			<point x="50" y="119"/>
			<point x="106" y="65"/>
		</contour>
	</outline>
</glyph>
<glyph name="minute" format="2">
  <advance width="161"/>
  <unicode hex="2032"/>
  <outline>
    <contour>
      <point x="74" y="648" type="curve" smooth="yes"/>
      <point x="91" y="648"/>
      <point x="102" y="656"/>
      <point x="107" y="672" type="curve" smooth="yes"/>
      <point x="162" y="872" type="line" smooth="yes"/>
      <point x="171" y="904"/>
      <point x="156" y="920"/>
      <point x="117" y="920" type="curve" smooth="yes"/>
      <point x="82" y="920"/>
      <point x="74" y="901"/>
      <point x="71" y="880" type="curve" smooth="yes"/>
      <point x="46" y="679" type="line" smooth="yes"/>
      <point x="44" y="657"/>
      <point x="52" y="648"/>
    </contour>
  </outline>
</glyph>
<glyph name="guilsinglleft" format="2">
	<unicode hex="2039"/>
	<advance width="380"/>
	<outline>
		<contour>
			<point x="264" y="-11" type="curve" smooth="yes"/>
			<point x="293" y="-11"/>
			<point x="308" y="12"/>
			<point x="292" y="32" type="curve" smooth="yes"/>
			<point x="131" y="236" type="line"/>
			<point x="131" y="166" type="line"/>
			<point x="292" y="369" type="line" smooth="yes"/>
			<point x="308" y="389"/>
			<point x="293" y="412"/>
			<point x="264" y="412" type="curve" smooth="yes"/>
			<point x="248" y="412"/>
			<point x="234" y="407"/>
			<point x="221" y="390" type="curve" smooth="yes"/>
			<point x="94" y="231" type="line" smooth="yes"/>
			<point x="79" y="213"/>
			<point x="75" y="207"/>
			<point x="75" y="201" type="curve" smooth="yes"/>
			<point x="75" y="195"/>
			<point x="79" y="189"/>
			<point x="94" y="171" type="curve" smooth="yes"/>
			<point x="221" y="11" type="line" smooth="yes"/>
			<point x="234" y="-6"/>
			<point x="248" y="-11"/>
		</contour>
	</outline>
</glyph>
<glyph name="guilsinglright" format="2">
  <advance width="475"/>
  <unicode hex="203A"/>
  <outline>
    <contour>
      <point x="145" y="-14" type="curve" smooth="yes"/>
      <point x="165" y="-14"/>
      <point x="183" y="-7"/>
      <point x="199" y="14" type="curve" smooth="yes"/>
      <point x="358" y="214" type="line" smooth="yes"/>
      <point x="376" y="236"/>
      <point x="381" y="244"/>
      <point x="381" y="251" type="curve" smooth="yes"/>
      <point x="381" y="259"/>
      <point x="376" y="266"/>
      <point x="358" y="289" type="curve" smooth="yes"/>
      <point x="199" y="488" type="line" smooth="yes"/>
      <point x="183" y="509"/>
      <point x="165" y="515"/>
      <point x="145" y="515" type="curve" smooth="yes"/>
      <point x="109" y="515"/>
      <point x="90" y="486"/>
      <point x="110" y="461" type="curve" smooth="yes"/>
      <point x="311" y="208" type="line"/>
      <point x="311" y="295" type="line"/>
      <point x="110" y="40" type="line" smooth="yes"/>
      <point x="90" y="15"/>
      <point x="109" y="-14"/>
    </contour>
  </outline>
</glyph>
<glyph name="euro" format="2">
  <advance width="775"/>
  <unicode hex="20AC"/>
  <outline>
    <contour>
      <point x="450" y="-19" type="curve" smooth="yes"/>
      <point x="550" y="-19"/>
      <point x="641" y="16"/>
      <point x="723" y="95" type="curve" smooth="yes"/>
      <point x="736" y="109"/>
      <point x="734" y="119"/>
      <point x="719" y="136" type="curve" smooth="yes"/>
      <point x="703" y="154"/>
      <point x="686" y="159"/>
      <point x="674" y="149" type="curve" smooth="yes"/>
      <point x="615" y="101"/>
      <point x="540" y="65"/>
      <point x="451" y="65" type="curve" smooth="yes"/>
      <point x="304" y="65"/>
      <point x="215" y="201"/>
      <point x="215" y="436" type="curve" smooth="yes"/>
      <point x="215" y="665"/>
      <point x="319" y="806"/>
      <point x="466" y="806" type="curve" smooth="yes"/>
      <point x="540" y="806"/>
      <point x="599" y="783"/>
      <point x="653" y="741" type="curve" smooth="yes"/>
      <point x="666" y="730"/>
      <point x="679" y="734"/>
      <point x="696" y="751" type="curve" smooth="yes"/>
      <point x="711" y="766"/>
      <point x="718" y="779"/>
      <point x="704" y="793" type="curve" smooth="yes"/>
      <point x="635" y="866"/>
      <point x="559" y="890"/>
      <point x="466" y="890" type="curve" smooth="yes"/>
      <point x="264" y="890"/>
      <point x="125" y="695"/>
      <point x="125" y="436" type="curve" smooth="yes"/>
      <point x="125" y="173"/>
      <point x="234" y="-19"/>
    </contour>
    <contour>
      <point x="60" y="483" type="curve" smooth="yes"/>
      <point x="571" y="483" type="line" smooth="yes"/>
      <point x="591" y="483"/>
      <point x="599" y="491"/>
      <point x="599" y="521" type="curve" smooth="yes"/>
      <point x="599" y="551"/>
      <point x="591" y="560"/>
      <point x="571" y="560" type="curve" smooth="yes"/>
      <point x="60" y="560" type="line" smooth="yes"/>
      <point x="40" y="560"/>
      <point x="33" y="551"/>
      <point x="33" y="521" type="curve" smooth="yes"/>
      <point x="33" y="491"/>
      <point x="40" y="483"/>
    </contour>
    <contour>
      <point x="60" y="333" type="curve" smooth="yes"/>
      <point x="571" y="333" type="line" smooth="yes"/>
      <point x="591" y="333"/>
      <point x="599" y="341"/>
      <point x="599" y="371" type="curve" smooth="yes"/>
      <point x="599" y="401"/>
      <point x="591" y="410"/>
      <point x="571" y="410" type="curve" smooth="yes"/>
      <point x="60" y="410" type="line" smooth="yes"/>
      <point x="40" y="410"/>
      <point x="33" y="401"/>
      <point x="33" y="371" type="curve" smooth="yes"/>
      <point x="33" y="341"/>
      <point x="40" y="333"/>
    </contour>
  </outline>
</glyph>
<glyph name="trademark" format="2">
  <advance width="768"/>
  <unicode hex="2122"/>
  <outline>
    <contour>
      <point x="158" y="355" type="curve" smooth="yes"/>
      <point x="179" y="355"/>
      <point x="190" y="362"/>
      <point x="190" y="374" type="curve" smooth="yes"/>
      <point x="190" y="654" type="line"/>
      <point x="277" y="654" type="line" smooth="yes"/>
      <point x="293" y="654"/>
      <point x="298" y="658"/>
      <point x="298" y="682" type="curve" smooth="yes"/>
      <point x="298" y="704"/>
      <point x="294" y="711"/>
      <point x="277" y="711" type="curve" smooth="yes"/>
      <point x="40" y="711" type="line" smooth="yes"/>
      <point x="23" y="711"/>
      <point x="18" y="706"/>
      <point x="18" y="682" type="curve" smooth="yes"/>
      <point x="18" y="659"/>
      <point x="23" y="654"/>
      <point x="40" y="654" type="curve" smooth="yes"/>
      <point x="126" y="654" type="line"/>
      <point x="126" y="374" type="line" smooth="yes"/>
      <point x="126" y="362"/>
      <point x="137" y="355"/>
    </contour>
    <contour>
      <point x="379" y="355" type="curve" smooth="yes"/>
      <point x="399" y="355"/>
      <point x="411" y="361"/>
      <point x="411" y="374" type="curve" smooth="yes"/>
      <point x="411" y="565" type="line"/>
      <point x="488" y="422" type="line" smooth="yes"/>
      <point x="494" y="412"/>
      <point x="501" y="411"/>
      <point x="523" y="411" type="curve" smooth="yes"/>
      <point x="542" y="411"/>
      <point x="549" y="415"/>
      <point x="554" y="423" type="curve" smooth="yes"/>
      <point x="632" y="565" type="line"/>
      <point x="632" y="374" type="line" smooth="yes"/>
      <point x="632" y="361"/>
      <point x="643" y="355"/>
      <point x="664" y="355" type="curve" smooth="yes"/>
      <point x="684" y="355"/>
      <point x="696" y="361"/>
      <point x="696" y="374" type="curve" smooth="yes"/>
      <point x="696" y="692" type="line" smooth="yes"/>
      <point x="696" y="704"/>
      <point x="690" y="711"/>
      <point x="669" y="711" type="curve" smooth="yes"/>
      <point x="652" y="711"/>
      <point x="642" y="702"/>
      <point x="635" y="690" type="curve" smooth="yes"/>
      <point x="521" y="483" type="line"/>
      <point x="408" y="690" type="line" smooth="yes"/>
      <point x="401" y="703"/>
      <point x="392" y="711"/>
      <point x="374" y="711" type="curve" smooth="yes"/>
      <point x="353" y="711"/>
      <point x="347" y="704"/>
      <point x="347" y="692" type="curve" smooth="yes"/>
      <point x="347" y="374" type="line" smooth="yes"/>
      <point x="347" y="361"/>
      <point x="358" y="355"/>
    </contour>
  </outline>
</glyph>
<glyph name="A.cur" format="2">
	<advance width="783"/>
	<outline>
		<contour>
			<point x="311" y="-11" type="curve" smooth="yes"/>
			<point x="455" y="-11"/>
			<point x="570" y="137"/>
			<point x="595" y="373" type="curve"/>
			<point x="550" y="381" type="line"/>
			<point x="521" y="180"/>
			<point x="431" y="57"/>
			<point x="314" y="57" type="curve" smooth="yes"/>
			<point x="189" y="57"/>
			<point x="118" y="160"/>
			<point x="118" y="337" type="curve" smooth="yes"/>
			<point x="118" y="518"/>
			<point x="222" y="644"/>
			<point x="368" y="644" type="curve" smooth="yes"/>
			<point x="444" y="644"/>
			<point x="516" y="615"/>
			<point x="557" y="530" type="curve" smooth="yes"/>
			<point x="565" y="513"/>
			<point x="574" y="497"/>
			<point x="603" y="513" type="curve" smooth="yes"/>
			<point x="628" y="527"/>
			<point x="618" y="547"/>
			<point x="610" y="564" type="curve" smooth="yes"/>
			<point x="566" y="665"/>
			<point x="478" y="712"/>
			<point x="369" y="712" type="curve" smooth="yes"/>
			<point x="179" y="712"/>
			<point x="45" y="555"/>
			<point x="45" y="336" type="curve" smooth="yes"/>
			<point x="45" y="119"/>
			<point x="146" y="-11"/>
		</contour>
		<contour>
			<point x="659" y="-14" type="curve" smooth="yes"/>
			<point x="702" y="-14"/>
			<point x="741" y="10"/>
			<point x="765" y="52" type="curve" smooth="yes"/>
			<point x="776" y="70"/>
			<point x="776" y="85"/>
			<point x="757" y="97" type="curve" smooth="yes"/>
			<point x="738" y="109"/>
			<point x="728" y="102"/>
			<point x="715" y="85" type="curve" smooth="yes"/>
			<point x="701" y="66"/>
			<point x="685" y="54"/>
			<point x="662" y="54" type="curve" smooth="yes"/>
			<point x="632" y="54"/>
			<point x="618" y="78"/>
			<point x="618" y="122" type="curve" smooth="yes"/>
			<point x="619" y="382" type="line" smooth="yes"/>
			<point x="619" y="397"/>
			<point x="607" y="404"/>
			<point x="584" y="404" type="curve" smooth="yes"/>
			<point x="561" y="404"/>
			<point x="549" y="397"/>
			<point x="549" y="382" type="curve" smooth="yes"/>
			<point x="549" y="121" type="line" smooth="yes"/>
			<point x="549" y="35"/>
			<point x="587" y="-14"/>
		</contour>
	</outline>
	<anchor name="bottom" x="312" y="0"/>
	<anchor name="ogonek" x="732" y="10"/>
	<anchor name="top" x="367" y="670"/>
</glyph>
<glyph name="A.cur.ini" format="2">
	<advance width="743"/>
	<outline>
		<contour>
			<point x="311" y="-11" type="curve" smooth="yes"/>
			<point x="455" y="-11"/>
			<point x="570" y="137"/>
			<point x="595" y="373" type="curve"/>
			<point x="550" y="381" type="line"/>
			<point x="521" y="180"/>
			<point x="431" y="57"/>
			<point x="314" y="57" type="curve" smooth="yes"/>
			<point x="189" y="57"/>
			<point x="118" y="160"/>
			<point x="118" y="337" type="curve" smooth="yes"/>
			<point x="118" y="518"/>
			<point x="222" y="644"/>
			<point x="368" y="644" type="curve" smooth="yes"/>
			<point x="444" y="644"/>
			<point x="516" y="615"/>
			<point x="557" y="530" type="curve" smooth="yes"/>
			<point x="565" y="513"/>
			<point x="574" y="497"/>
			<point x="603" y="513" type="curve" smooth="yes"/>
			<point x="628" y="527"/>
			<point x="618" y="547"/>
			<point x="610" y="564" type="curve" smooth="yes"/>
			<point x="566" y="665"/>
			<point x="478" y="712"/>
			<point x="369" y="712" type="curve" smooth="yes"/>
			<point x="179" y="712"/>
			<point x="45" y="555"/>
			<point x="45" y="336" type="curve" smooth="yes"/>
			<point x="45" y="119"/>
			<point x="146" y="-11"/>
		</contour>
		<contour>
			<point x="683" y="-14" type="curve" smooth="yes"/>
			<point x="723" y="-14"/>
			<point x="738" y="46"/>
			<point x="698" y="46" type="curve" smooth="yes"/>
			<point x="643" y="46"/>
			<point x="618" y="73"/>
			<point x="618" y="142" type="curve" smooth="yes"/>
			<point x="619" y="382" type="line" smooth="yes"/>
			<point x="619" y="397"/>
			<point x="607" y="404"/>
			<point x="584" y="404" type="curve" smooth="yes"/>
			<point x="561" y="404"/>
			<point x="549" y="397"/>
			<point x="549" y="382" type="curve" smooth="yes"/>
			<point x="549" y="141" type="line" smooth="yes"/>
			<point x="549" y="35"/>
			<point x="595" y="-14"/>
		</contour>
	</outline>
	<anchor name="bottom" x="312" y="0"/>
	<anchor name="cnct" x="743" y="0"/>
	<anchor name="ogonek" x="732" y="10"/>
	<anchor name="top" x="367" y="670"/>
</glyph>
<glyph name="A.cur_locl" format="2">
	<advance width="783"/>
	<outline>
		<contour>
			<point x="311" y="-11" type="curve" smooth="yes"/>
			<point x="455" y="-11"/>
			<point x="570" y="137"/>
			<point x="595" y="373" type="curve"/>
			<point x="550" y="381" type="line"/>
			<point x="521" y="180"/>
			<point x="431" y="57"/>
			<point x="314" y="57" type="curve" smooth="yes"/>
			<point x="189" y="57"/>
			<point x="118" y="160"/>
			<point x="118" y="337" type="curve" smooth="yes"/>
			<point x="118" y="518"/>
			<point x="222" y="644"/>
			<point x="368" y="644" type="curve" smooth="yes"/>
			<point x="452" y="644"/>
			<point x="515" y="609"/>
			<point x="555" y="539" type="curve"/>
			<point x="555" y="636" type="line"/>
			<point x="512" y="683"/>
			<point x="442" y="712"/>
			<point x="369" y="712" type="curve" smooth="yes"/>
			<point x="179" y="712"/>
			<point x="45" y="555"/>
			<point x="45" y="336" type="curve" smooth="yes"/>
			<point x="45" y="119"/>
			<point x="146" y="-11"/>
		</contour>
		<contour>
			<point x="659" y="-14" type="curve" smooth="yes"/>
			<point x="702" y="-14"/>
			<point x="741" y="10"/>
			<point x="765" y="52" type="curve" smooth="yes"/>
			<point x="776" y="70"/>
			<point x="776" y="85"/>
			<point x="757" y="97" type="curve" smooth="yes"/>
			<point x="738" y="109"/>
			<point x="728" y="102"/>
			<point x="715" y="85" type="curve" smooth="yes"/>
			<point x="701" y="66"/>
			<point x="685" y="54"/>
			<point x="662" y="54" type="curve" smooth="yes"/>
			<point x="632" y="54"/>
			<point x="618" y="78"/>
			<point x="618" y="122" type="curve" smooth="yes"/>
			<point x="619" y="690" type="line" smooth="yes"/>
			<point x="619" y="705"/>
			<point x="607" y="712"/>
			<point x="584" y="712" type="curve" smooth="yes"/>
			<point x="561" y="712"/>
			<point x="549" y="705"/>
			<point x="549" y="690" type="curve" smooth="yes"/>
			<point x="549" y="121" type="line" smooth="yes"/>
			<point x="549" y="35"/>
			<point x="587" y="-14"/>
		</contour>
	</outline>
	<anchor name="bottom" x="312" y="0"/>
	<anchor name="ogonek" x="732" y="10"/>
	<anchor name="top" x="367" y="670"/>
	<guideline y="-11"/>
	<guideline y="336"/>
	<guideline y="504"/>
</glyph>
<glyph name="A.cur_locl.ini" format="2">
	<advance width="743"/>
	<outline>
		<contour>
			<point x="311" y="-11" type="curve" smooth="yes"/>
			<point x="455" y="-11"/>
			<point x="570" y="137"/>
			<point x="595" y="373" type="curve"/>
			<point x="550" y="381" type="line"/>
			<point x="521" y="180"/>
			<point x="431" y="57"/>
			<point x="314" y="57" type="curve" smooth="yes"/>
			<point x="189" y="57"/>
			<point x="118" y="160"/>
			<point x="118" y="337" type="curve" smooth="yes"/>
			<point x="118" y="518"/>
			<point x="222" y="644"/>
			<point x="368" y="644" type="curve" smooth="yes"/>
			<point x="452" y="644"/>
			<point x="515" y="609"/>
			<point x="555" y="539" type="curve"/>
			<point x="555" y="636" type="line"/>
			<point x="512" y="683"/>
			<point x="442" y="712"/>
			<point x="369" y="712" type="curve" smooth="yes"/>
			<point x="179" y="712"/>
			<point x="45" y="555"/>
			<point x="45" y="336" type="curve" smooth="yes"/>
			<point x="45" y="119"/>
			<point x="146" y="-11"/>
		</contour>
		<contour>
			<point x="683" y="-14" type="curve" smooth="yes"/>
			<point x="723" y="-14"/>
			<point x="738" y="46"/>
			<point x="698" y="46" type="curve" smooth="yes"/>
			<point x="643" y="46"/>
			<point x="618" y="73"/>
			<point x="618" y="142" type="curve" smooth="yes"/>
			<point x="619" y="690" type="line" smooth="yes"/>
			<point x="619" y="705"/>
			<point x="607" y="712"/>
			<point x="584" y="712" type="curve" smooth="yes"/>
			<point x="561" y="712"/>
			<point x="549" y="705"/>
			<point x="549" y="690" type="curve" smooth="yes"/>
			<point x="549" y="141" type="line" smooth="yes"/>
			<point x="549" y="35"/>
			<point x="596" y="-14"/>
		</contour>
	</outline>
	<anchor name="bottom" x="312" y="0"/>
	<anchor name="cnct" x="743" y="0"/>
	<anchor name="ogonek" x="732" y="10"/>
	<anchor name="top" x="367" y="670"/>
	<guideline y="-11"/>
	<guideline y="336"/>
	<guideline y="504"/>
</glyph>
<glyph name="A.dec" format="2">
  <advance width="750"/>
  <anchor x="402" y="0" name="bottom"/>
  <anchor x="674" y="0" name="ogonek"/>
  <anchor x="442" y="670" name="top"/>
  <outline>
    <contour>
      <point x="106" y="-14" type="curve" smooth="yes"/>
      <point x="241" y="-14"/>
      <point x="347" y="132"/>
      <point x="461" y="683" type="curve"/>
      <point x="430" y="682" type="line"/>
      <point x="474" y="461"/>
      <point x="537" y="238"/>
      <point x="624" y="6" type="curve" smooth="yes"/>
      <point x="630" y="-12"/>
      <point x="646" y="-17"/>
      <point x="666" y="-10" type="curve" smooth="yes"/>
      <point x="689" y="-2"/>
      <point x="694" y="11"/>
      <point x="689" y="25" type="curve" smooth="yes"/>
      <point x="607" y="249"/>
      <point x="543" y="470"/>
      <point x="501" y="674" type="curve" smooth="yes"/>
      <point x="495" y="706"/>
      <point x="477" y="712"/>
      <point x="447" y="712" type="curve" smooth="yes"/>
      <point x="418" y="712"/>
      <point x="398" y="705"/>
      <point x="392" y="674" type="curve" smooth="yes"/>
      <point x="284" y="156"/>
      <point x="197" y="51"/>
      <point x="109" y="51" type="curve" smooth="yes"/>
      <point x="81" y="51"/>
      <point x="69" y="54"/>
      <point x="49" y="61" type="curve" smooth="yes"/>
      <point x="37" y="65"/>
      <point x="25" y="58"/>
      <point x="19" y="39" type="curve" smooth="yes"/>
      <point x="13" y="21"/>
      <point x="20" y="8"/>
      <point x="34" y="1" type="curve" smooth="yes"/>
      <point x="55" y="-10"/>
      <point x="83" y="-14"/>
    </contour>
    <contour>
      <point x="631" y="6" type="curve"/>
      <point x="675" y="25" type="line"/>
      <point x="558" y="303"/>
      <point x="436" y="344"/>
      <point x="316" y="344" type="curve" smooth="yes"/>
      <point x="223" y="344"/>
      <point x="146" y="292"/>
      <point x="146" y="214" type="curve" smooth="yes"/>
      <point x="146" y="133"/>
      <point x="222" y="82"/>
      <point x="368" y="82" type="curve" smooth="yes"/>
      <point x="520" y="82"/>
      <point x="650" y="152"/>
      <point x="721" y="275" type="curve" smooth="yes"/>
      <point x="731" y="293"/>
      <point x="721" y="309"/>
      <point x="707" y="316" type="curve" smooth="yes"/>
      <point x="693" y="324"/>
      <point x="676" y="324"/>
      <point x="666" y="306" type="curve" smooth="yes"/>
      <point x="604" y="199"/>
      <point x="491" y="144"/>
      <point x="368" y="144" type="curve" smooth="yes"/>
      <point x="266" y="144"/>
      <point x="217" y="171"/>
      <point x="217" y="218" type="curve" smooth="yes"/>
      <point x="217" y="260"/>
      <point x="255" y="282"/>
      <point x="317" y="282" type="curve" smooth="yes"/>
      <point x="429" y="282"/>
      <point x="520" y="243"/>
    </contour>
  </outline>
</glyph>
<glyph name="A.dec2.ini" format="2">
	<advance width="743"/>
	<outline>
		<contour>
			<point x="683" y="-14" type="curve" smooth="yes"/>
			<point x="723" y="-14"/>
			<point x="738" y="46"/>
			<point x="698" y="46" type="curve" smooth="yes"/>
			<point x="647" y="46"/>
			<point x="622" y="67"/>
			<point x="608" y="129" type="curve" smooth="yes"/>
			<point x="569" y="296"/>
			<point x="539" y="486"/>
			<point x="517" y="694" type="curve"/>
			<point x="450" y="686" type="line"/>
			<point x="470" y="480"/>
			<point x="498" y="290"/>
			<point x="538" y="121" type="curve" smooth="yes"/>
			<point x="562" y="19"/>
			<point x="613" y="-14"/>
		</contour>
		<contour>
			<point x="164" y="-14" type="curve" smooth="yes"/>
			<point x="430" y="-14"/>
			<point x="296" y="563"/>
			<point x="506" y="661" type="curve" smooth="yes"/>
			<point x="534" y="674"/>
			<point x="539" y="688"/>
			<point x="529" y="712" type="curve" smooth="yes"/>
			<point x="521" y="730"/>
			<point x="511" y="732"/>
			<point x="481" y="721" type="curve" smooth="yes"/>
			<point x="236" y="631"/>
			<point x="345" y="54"/>
			<point x="167" y="54" type="curve" smooth="yes"/>
			<point x="121" y="54"/>
			<point x="92" y="83"/>
			<point x="92" y="139" type="curve" smooth="yes"/>
			<point x="92" y="258"/>
			<point x="198" y="283"/>
			<point x="340" y="283" type="curve" smooth="yes"/>
			<point x="624" y="283" type="line" smooth="yes"/>
			<point x="640" y="283"/>
			<point x="648" y="294"/>
			<point x="648" y="316" type="curve" smooth="yes"/>
			<point x="648" y="338"/>
			<point x="640" y="349"/>
			<point x="624" y="349" type="curve" smooth="yes"/>
			<point x="340" y="349" type="line" smooth="yes"/>
			<point x="154" y="349"/>
			<point x="20" y="297"/>
			<point x="20" y="139" type="curve" smooth="yes"/>
			<point x="20" y="44"/>
			<point x="80" y="-14"/>
		</contour>
	</outline>
	<anchor name="bottom" x="430" y="0"/>
	<anchor name="cnct" x="743" y="0"/>
	<anchor name="ogonek" x="714" y="-2"/>
	<anchor name="top" x="450" y="670"/>
</glyph>
<glyph name="A.dec_locl" format="2">
  <advance width="850"/>
  <anchor x="402" y="0" name="bottom"/>
  <anchor x="780" y="0" name="ogonek"/>
  <anchor x="442" y="670" name="top"/>
  <outline>
    <contour>
      <point x="106" y="-14" type="curve" smooth="yes"/>
      <point x="241" y="-14"/>
      <point x="347" y="132"/>
      <point x="461" y="683" type="curve"/>
      <point x="430" y="682" type="line"/>
      <point x="455" y="576"/>
      <point x="488" y="367"/>
      <point x="546" y="205" type="curve" smooth="yes"/>
      <point x="601" y="51"/>
      <point x="655" y="-14"/>
      <point x="727" y="-14" type="curve" smooth="yes"/>
      <point x="807" y="-14"/>
      <point x="850" y="54"/>
      <point x="850" y="187" type="curve" smooth="yes"/>
      <point x="850" y="205"/>
      <point x="839" y="214"/>
      <point x="818" y="214" type="curve" smooth="yes"/>
      <point x="797" y="214"/>
      <point x="786" y="206"/>
      <point x="786" y="189" type="curve" smooth="yes"/>
      <point x="786" y="96"/>
      <point x="767" y="49"/>
      <point x="727" y="50" type="curve" smooth="yes"/>
      <point x="686" y="51"/>
      <point x="646" y="130"/>
      <point x="611" y="231" type="curve" smooth="yes"/>
      <point x="554" y="397"/>
      <point x="512" y="623"/>
      <point x="501" y="674" type="curve" smooth="yes"/>
      <point x="495" y="706"/>
      <point x="477" y="712"/>
      <point x="447" y="712" type="curve" smooth="yes"/>
      <point x="418" y="712"/>
      <point x="398" y="705"/>
      <point x="392" y="674" type="curve" smooth="yes"/>
      <point x="284" y="156"/>
      <point x="197" y="51"/>
      <point x="109" y="51" type="curve" smooth="yes"/>
      <point x="81" y="51"/>
      <point x="69" y="54"/>
      <point x="49" y="61" type="curve" smooth="yes"/>
      <point x="37" y="65"/>
      <point x="25" y="58"/>
      <point x="19" y="39" type="curve" smooth="yes"/>
      <point x="13" y="21"/>
      <point x="20" y="8"/>
      <point x="34" y="1" type="curve" smooth="yes"/>
      <point x="55" y="-10"/>
      <point x="83" y="-14"/>
    </contour>
    <contour>
      <point x="304" y="213" type="line"/>
      <point x="575" y="213" type="line"/>
      <point x="575" y="275" type="line"/>
      <point x="304" y="275" type="line"/>
    </contour>
  </outline>
</glyph>
<glyph name="A.dec_locl.ini" format="2">
  <advance width="780"/>
  <anchor x="402" y="0" name="bottom"/>
  <anchor x="780" y="0" name="cnct"/>
  <anchor x="673" y="-2" name="ogonek"/>
  <anchor x="442" y="670" name="top"/>
  <outline>
    <contour>
      <point x="106" y="-14" type="curve" smooth="yes"/>
      <point x="241" y="-14"/>
      <point x="347" y="132"/>
      <point x="461" y="683" type="curve"/>
      <point x="430" y="682" type="line"/>
      <point x="455" y="576"/>
      <point x="488" y="367"/>
      <point x="565" y="151" type="curve" smooth="yes"/>
      <point x="607" y="35"/>
      <point x="653" y="-14"/>
      <point x="720" y="-14" type="curve" smooth="yes"/>
      <point x="760" y="-14"/>
      <point x="775" y="45"/>
      <point x="735" y="46" type="curve" smooth="yes"/>
      <point x="685" y="47"/>
      <point x="662" y="86"/>
      <point x="630" y="177" type="curve" smooth="yes"/>
      <point x="554" y="397"/>
      <point x="512" y="623"/>
      <point x="501" y="674" type="curve" smooth="yes"/>
      <point x="495" y="706"/>
      <point x="477" y="712"/>
      <point x="447" y="712" type="curve" smooth="yes"/>
      <point x="418" y="712"/>
      <point x="398" y="705"/>
      <point x="392" y="674" type="curve" smooth="yes"/>
      <point x="284" y="156"/>
      <point x="197" y="51"/>
      <point x="109" y="51" type="curve" smooth="yes"/>
      <point x="81" y="51"/>
      <point x="69" y="54"/>
      <point x="49" y="61" type="curve" smooth="yes"/>
      <point x="37" y="65"/>
      <point x="25" y="58"/>
      <point x="19" y="39" type="curve" smooth="yes"/>
      <point x="13" y="21"/>
      <point x="20" y="8"/>
      <point x="34" y="1" type="curve" smooth="yes"/>
      <point x="55" y="-10"/>
      <point x="83" y="-14"/>
    </contour>
    <contour>
      <point x="304" y="213" type="line"/>
      <point x="575" y="213" type="line"/>
      <point x="575" y="275" type="line"/>
      <point x="304" y="275" type="line"/>
    </contour>
  </outline>
</glyph>
<glyph name="AE.cur.locl" format="2">
  <advance width="960"/>
  <anchor x="530" y="670" name="top"/>
  <outline>
    <contour>
      <point x="85" y="-14" type="curve" smooth="yes"/>
      <point x="192" y="-14"/>
      <point x="246" y="56"/>
      <point x="495" y="661" type="curve"/>
      <point x="537" y="661" type="line"/>
      <point x="537" y="700" type="line"/>
      <point x="478" y="700" type="line" smooth="yes"/>
      <point x="449" y="700"/>
      <point x="436" y="693"/>
      <point x="423" y="662" type="curve" smooth="yes"/>
      <point x="195" y="118"/>
      <point x="148" y="51"/>
      <point x="84" y="51" type="curve" smooth="yes"/>
      <point x="68" y="51"/>
      <point x="57" y="53"/>
      <point x="40" y="60" type="curve" smooth="yes"/>
      <point x="28" y="65"/>
      <point x="16" y="57"/>
      <point x="10" y="38" type="curve" smooth="yes"/>
      <point x="4" y="20"/>
      <point x="11" y="8"/>
      <point x="25" y="0" type="curve" smooth="yes"/>
      <point x="44" y="-10"/>
      <point x="62" y="-14"/>
    </contour>
    <contour>
      <point x="522" y="318" type="line"/>
      <point x="522" y="382" type="line"/>
      <point x="344" y="382" type="line"/>
      <point x="319" y="318" type="line"/>
    </contour>
    <contour>
      <point x="731" y="0" type="line" smooth="yes"/>
      <point x="828" y="0"/>
      <point x="914" y="60"/>
      <point x="936" y="136" type="curve" smooth="yes"/>
      <point x="942" y="157"/>
      <point x="936" y="168"/>
      <point x="918" y="173" type="curve" smooth="yes"/>
      <point x="898" y="179"/>
      <point x="886" y="173"/>
      <point x="878" y="155" type="curve" smooth="yes"/>
      <point x="859" y="115"/>
      <point x="807" y="64"/>
      <point x="727" y="64" type="curve" smooth="yes"/>
      <point x="554" y="64" type="line"/>
      <point x="554" y="318" type="line"/>
      <point x="722" y="318" type="line" smooth="yes"/>
      <point x="738" y="318"/>
      <point x="744" y="326"/>
      <point x="744" y="350" type="curve" smooth="yes"/>
      <point x="744" y="374"/>
      <point x="738" y="382"/>
      <point x="722" y="382" type="curve" smooth="yes"/>
      <point x="554" y="382" type="line"/>
      <point x="554" y="636" type="line"/>
      <point x="804" y="636" type="line" smooth="yes"/>
      <point x="820" y="636"/>
      <point x="826" y="644"/>
      <point x="826" y="668" type="curve" smooth="yes"/>
      <point x="826" y="692"/>
      <point x="820" y="700"/>
      <point x="804" y="700" type="curve" smooth="yes"/>
      <point x="519" y="700" type="line" smooth="yes"/>
      <point x="496" y="700"/>
      <point x="484" y="693"/>
      <point x="484" y="678" type="curve" smooth="yes"/>
      <point x="484" y="32" type="line" smooth="yes"/>
      <point x="484" y="10"/>
      <point x="496" y="0"/>
      <point x="519" y="0" type="curve" smooth="yes"/>
    </contour>
  </outline>
</glyph>
<glyph name="AE.cur.locl.ini" format="2">
  <advance width="1100"/>
  <anchor x="663" y="838" name="top"/>
  <outline>
    <contour>
      <point x="106" y="-17" type="curve" smooth="yes"/>
      <point x="240" y="-17"/>
      <point x="308" y="70"/>
      <point x="619" y="826" type="curve"/>
      <point x="671" y="826" type="line"/>
      <point x="671" y="875" type="line"/>
      <point x="598" y="875" type="line" smooth="yes"/>
      <point x="561" y="875"/>
      <point x="545" y="866"/>
      <point x="529" y="828" type="curve" smooth="yes"/>
      <point x="244" y="148"/>
      <point x="185" y="64"/>
      <point x="105" y="64" type="curve" smooth="yes"/>
      <point x="85" y="64"/>
      <point x="71" y="66"/>
      <point x="50" y="75" type="curve" smooth="yes"/>
      <point x="35" y="81"/>
      <point x="20" y="71"/>
      <point x="13" y="48" type="curve" smooth="yes"/>
      <point x="5" y="25"/>
      <point x="14" y="10"/>
      <point x="31" y="0" type="curve" smooth="yes"/>
      <point x="55" y="-12"/>
      <point x="78" y="-17"/>
    </contour>
    <contour>
      <point x="653" y="398" type="line"/>
      <point x="653" y="478" type="line"/>
      <point x="430" y="478" type="line"/>
      <point x="399" y="398" type="line"/>
    </contour>
    <contour>
      <point x="1025" y="-17" type="line" smooth="yes"/>
      <point x="1065" y="-17"/>
      <point x="1084" y="58"/>
      <point x="1044" y="58" type="curve" smooth="yes"/>
      <point x="693" y="58" type="line"/>
      <point x="693" y="398" type="line"/>
      <point x="903" y="398" type="line" smooth="yes"/>
      <point x="923" y="398"/>
      <point x="930" y="408"/>
      <point x="930" y="438" type="curve" smooth="yes"/>
      <point x="930" y="468"/>
      <point x="923" y="478"/>
      <point x="903" y="478" type="curve" smooth="yes"/>
      <point x="693" y="478" type="line"/>
      <point x="693" y="795" type="line"/>
      <point x="1005" y="795" type="line" smooth="yes"/>
      <point x="1025" y="795"/>
      <point x="1033" y="805"/>
      <point x="1033" y="835" type="curve" smooth="yes"/>
      <point x="1033" y="865"/>
      <point x="1025" y="875"/>
      <point x="1005" y="875" type="curve" smooth="yes"/>
      <point x="649" y="875" type="line" smooth="yes"/>
      <point x="620" y="875"/>
      <point x="605" y="866"/>
      <point x="605" y="848" type="curve" smooth="yes"/>
      <point x="605" y="23" type="line" smooth="yes"/>
      <point x="605" y="-4"/>
      <point x="620" y="-17"/>
      <point x="649" y="-17" type="curve" smooth="yes"/>
    </contour>
  </outline>
</glyph>
<glyph name="B.cur" format="2">
  <advance width="894"/>
  <guideline y="672"/>
  <anchor x="491" y="0" name="bottom"/>
  <anchor x="299" y="258" name="center"/>
  <anchor x="491" y="838" name="top"/>
  <outline>
    <contour>
      <point x="519" y="-12" type="curve" smooth="yes"/>
      <point x="698" y="-12"/>
      <point x="844" y="101"/>
      <point x="844" y="278" type="curve" smooth="yes"/>
      <point x="844" y="400"/>
      <point x="744" y="475"/>
      <point x="613" y="479" type="curve"/>
      <point x="613" y="480" type="line"/>
      <point x="713" y="506"/>
      <point x="793" y="575"/>
      <point x="793" y="680" type="curve" smooth="yes"/>
      <point x="793" y="823"/>
      <point x="668" y="890"/>
      <point x="461" y="890" type="curve" smooth="yes"/>
      <point x="281" y="890"/>
      <point x="148" y="834"/>
      <point x="64" y="734" type="curve" smooth="yes"/>
      <point x="48" y="714"/>
      <point x="50" y="695"/>
      <point x="73" y="678" type="curve" smooth="yes"/>
      <point x="93" y="663"/>
      <point x="109" y="668"/>
      <point x="128" y="686" type="curve" smooth="yes"/>
      <point x="206" y="766"/>
      <point x="304" y="808"/>
      <point x="451" y="808" type="curve" smooth="yes"/>
      <point x="626" y="808"/>
      <point x="701" y="765"/>
      <point x="701" y="678" type="curve" smooth="yes"/>
      <point x="701" y="585"/>
      <point x="630" y="526"/>
      <point x="525" y="508" type="curve"/>
      <point x="510" y="514"/>
      <point x="490" y="521"/>
      <point x="465" y="521" type="curve" smooth="yes"/>
      <point x="420" y="521"/>
      <point x="403" y="491"/>
      <point x="403" y="464" type="curve" smooth="yes"/>
      <point x="403" y="440"/>
      <point x="423" y="414"/>
      <point x="464" y="414" type="curve" smooth="yes"/>
      <point x="486" y="414"/>
      <point x="505" y="423"/>
      <point x="526" y="433" type="curve"/>
      <point x="655" y="433"/>
      <point x="753" y="388"/>
      <point x="753" y="275" type="curve" smooth="yes"/>
      <point x="753" y="150"/>
      <point x="655" y="68"/>
      <point x="519" y="68" type="curve" smooth="yes"/>
      <point x="486" y="68"/>
      <point x="459" y="71"/>
      <point x="425" y="81" type="curve" smooth="yes"/>
      <point x="391" y="91"/>
      <point x="384" y="85"/>
      <point x="374" y="64" type="curve" smooth="yes"/>
      <point x="363" y="40"/>
      <point x="370" y="25"/>
      <point x="396" y="13" type="curve" smooth="yes"/>
      <point x="438" y="-6"/>
      <point x="479" y="-12"/>
    </contour>
    <contour>
      <point x="186" y="-17" type="curve" smooth="yes"/>
      <point x="291" y="-17"/>
      <point x="339" y="61"/>
      <point x="339" y="173" type="curve" smooth="yes"/>
      <point x="339" y="699" type="line" smooth="yes"/>
      <point x="339" y="718"/>
      <point x="324" y="726"/>
      <point x="295" y="726" type="curve" smooth="yes"/>
      <point x="266" y="726"/>
      <point x="251" y="718"/>
      <point x="251" y="699" type="curve" smooth="yes"/>
      <point x="251" y="178" type="line" smooth="yes"/>
      <point x="251" y="101"/>
      <point x="233" y="68"/>
      <point x="189" y="68" type="curve" smooth="yes"/>
      <point x="146" y="68"/>
      <point x="124" y="86"/>
      <point x="98" y="110" type="curve" smooth="yes"/>
      <point x="78" y="128"/>
      <point x="65" y="136"/>
      <point x="41" y="121" type="curve" smooth="yes"/>
      <point x="18" y="106"/>
      <point x="18" y="88"/>
      <point x="34" y="65" type="curve" smooth="yes"/>
      <point x="49" y="44"/>
      <point x="103" y="-17"/>
    </contour>
  </outline>
</glyph>
<glyph name="B.dec" format="2">
  <advance width="735"/>
  <anchor x="421" y="0" name="bottom"/>
  <anchor x="207" y="206" name="center"/>
  <anchor x="421" y="670" name="top"/>
  <outline>
    <contour>
      <point x="441" y="-10" type="curve" smooth="yes"/>
      <point x="590" y="-10"/>
      <point x="705" y="90"/>
      <point x="705" y="219" type="curve" smooth="yes"/>
      <point x="705" y="314"/>
      <point x="635" y="383"/>
      <point x="538" y="384" type="curve"/>
      <point x="538" y="385" type="line"/>
      <point x="622" y="410"/>
      <point x="664" y="466"/>
      <point x="664" y="551" type="curve" smooth="yes"/>
      <point x="664" y="645"/>
      <point x="596" y="712"/>
      <point x="465" y="712" type="curve" smooth="yes"/>
      <point x="315" y="712"/>
      <point x="187" y="605"/>
      <point x="187" y="372" type="curve"/>
      <point x="241" y="372" type="line"/>
      <point x="241" y="555"/>
      <point x="341" y="646"/>
      <point x="453" y="646" type="curve" smooth="yes"/>
      <point x="539" y="646"/>
      <point x="592" y="607"/>
      <point x="592" y="541" type="curve" smooth="yes"/>
      <point x="592" y="469"/>
      <point x="547" y="424"/>
      <point x="458" y="409" type="curve"/>
      <point x="442" y="414"/>
      <point x="424" y="419"/>
      <point x="401" y="419" type="curve" smooth="yes"/>
      <point x="368" y="419"/>
      <point x="352" y="402"/>
      <point x="352" y="378" type="curve" smooth="yes"/>
      <point x="352" y="354"/>
      <point x="371" y="338"/>
      <point x="397" y="338" type="curve" smooth="yes"/>
      <point x="414" y="338"/>
      <point x="438" y="345"/>
      <point x="459" y="353" type="curve"/>
      <point x="570" y="353"/>
      <point x="632" y="305"/>
      <point x="632" y="217" type="curve" smooth="yes"/>
      <point x="632" y="129"/>
      <point x="555" y="56"/>
      <point x="462" y="56" type="curve" smooth="yes"/>
      <point x="422" y="56"/>
      <point x="390" y="62"/>
      <point x="363" y="76" type="curve" smooth="yes"/>
      <point x="342" y="88"/>
      <point x="331" y="85"/>
      <point x="319" y="66" type="curve" smooth="yes"/>
      <point x="304" y="41"/>
      <point x="308" y="26"/>
      <point x="332" y="13" type="curve" smooth="yes"/>
      <point x="355" y="1"/>
      <point x="397" y="-10"/>
    </contour>
    <contour>
      <point x="206" y="-11" type="curve" smooth="yes"/>
      <point x="232" y="-11"/>
      <point x="241" y="-3"/>
      <point x="241" y="11" type="curve" smooth="yes"/>
      <point x="241" y="690" type="line" smooth="yes"/>
      <point x="241" y="705"/>
      <point x="229" y="712"/>
      <point x="206" y="712" type="curve" smooth="yes"/>
      <point x="183" y="712"/>
      <point x="170" y="710"/>
      <point x="165" y="686" type="curve" smooth="yes"/>
      <point x="149" y="609"/>
      <point x="106" y="546"/>
      <point x="32" y="509" type="curve" smooth="yes"/>
      <point x="12" y="499"/>
      <point x="8" y="486"/>
      <point x="19" y="466" type="curve" smooth="yes"/>
      <point x="29" y="446"/>
      <point x="42" y="442"/>
      <point x="63" y="452" type="curve" smooth="yes"/>
      <point x="144" y="495"/>
      <point x="184" y="546"/>
      <point x="210" y="645" type="curve"/>
      <point x="201" y="693" type="line"/>
      <point x="171" y="685" type="line"/>
      <point x="171" y="11" type="line" smooth="yes"/>
      <point x="171" y="-3"/>
      <point x="183" y="-11"/>
    </contour>
  </outline>
</glyph>
<glyph name="C.cur" format="2">
  <advance width="775"/>
  <anchor x="440" y="0" name="bottom"/>
  <anchor x="456" y="838" name="top"/>
  <outline>
    <contour>
      <point x="464" y="-19" type="curve" smooth="yes"/>
      <point x="563" y="-19"/>
      <point x="661" y="26"/>
      <point x="743" y="143" type="curve" smooth="yes"/>
      <point x="754" y="158"/>
      <point x="749" y="168"/>
      <point x="731" y="183" type="curve" smooth="yes"/>
      <point x="713" y="198"/>
      <point x="698" y="201"/>
      <point x="686" y="189" type="curve" smooth="yes"/>
      <point x="623" y="118"/>
      <point x="555" y="66"/>
      <point x="464" y="66" type="curve" smooth="yes"/>
      <point x="296" y="66"/>
      <point x="175" y="201"/>
      <point x="175" y="436" type="curve" smooth="yes"/>
      <point x="175" y="670"/>
      <point x="296" y="805"/>
      <point x="464" y="805" type="curve" smooth="yes"/>
      <point x="544" y="805"/>
      <point x="615" y="775"/>
      <point x="666" y="724" type="curve" smooth="yes"/>
      <point x="679" y="711"/>
      <point x="691" y="714"/>
      <point x="710" y="730" type="curve" smooth="yes"/>
      <point x="726" y="744"/>
      <point x="733" y="755"/>
      <point x="721" y="771" type="curve" smooth="yes"/>
      <point x="655" y="866"/>
      <point x="555" y="890"/>
      <point x="464" y="890" type="curve" smooth="yes"/>
      <point x="230" y="890"/>
      <point x="81" y="700"/>
      <point x="81" y="436" type="curve" smooth="yes"/>
      <point x="81" y="173"/>
      <point x="230" y="-19"/>
    </contour>
  </outline>
</glyph>
<glyph name="D.cur" format="2">
  <advance width="1000"/>
  <anchor x="526" y="-12" name="bottom"/>
  <anchor x="363" y="425" name="center"/>
  <anchor x="538" y="825" name="top"/>
  <outline>
    <contour>
      <point x="544" y="-12" type="curve" smooth="yes"/>
      <point x="780" y="-12"/>
      <point x="931" y="199"/>
      <point x="931" y="458" type="curve" smooth="yes"/>
      <point x="931" y="719"/>
      <point x="775" y="890"/>
      <point x="475" y="890" type="curve" smooth="yes"/>
      <point x="300" y="890"/>
      <point x="151" y="834"/>
      <point x="68" y="734" type="curve" smooth="yes"/>
      <point x="51" y="714"/>
      <point x="54" y="695"/>
      <point x="76" y="678" type="curve" smooth="yes"/>
      <point x="96" y="663"/>
      <point x="113" y="668"/>
      <point x="131" y="686" type="curve" smooth="yes"/>
      <point x="210" y="766"/>
      <point x="325" y="805"/>
      <point x="468" y="805" type="curve" smooth="yes"/>
      <point x="716" y="805"/>
      <point x="840" y="673"/>
      <point x="840" y="460" type="curve" smooth="yes"/>
      <point x="840" y="253"/>
      <point x="726" y="70"/>
      <point x="544" y="70" type="curve" smooth="yes"/>
      <point x="486" y="70"/>
      <point x="459" y="75"/>
      <point x="425" y="84" type="curve" smooth="yes"/>
      <point x="391" y="93"/>
      <point x="384" y="85"/>
      <point x="374" y="64" type="curve" smooth="yes"/>
      <point x="363" y="40"/>
      <point x="370" y="25"/>
      <point x="396" y="13" type="curve" smooth="yes"/>
      <point x="438" y="-6"/>
      <point x="479" y="-12"/>
    </contour>
    <contour>
      <point x="186" y="-17" type="curve" smooth="yes"/>
      <point x="291" y="-17"/>
      <point x="339" y="61"/>
      <point x="339" y="173" type="curve" smooth="yes"/>
      <point x="339" y="699" type="line" smooth="yes"/>
      <point x="339" y="718"/>
      <point x="324" y="726"/>
      <point x="295" y="726" type="curve" smooth="yes"/>
      <point x="266" y="726"/>
      <point x="251" y="718"/>
      <point x="251" y="699" type="curve" smooth="yes"/>
      <point x="251" y="178" type="line" smooth="yes"/>
      <point x="251" y="101"/>
      <point x="233" y="68"/>
      <point x="189" y="68" type="curve" smooth="yes"/>
      <point x="146" y="68"/>
      <point x="124" y="86"/>
      <point x="98" y="110" type="curve" smooth="yes"/>
      <point x="78" y="128"/>
      <point x="65" y="136"/>
      <point x="41" y="121" type="curve" smooth="yes"/>
      <point x="18" y="106"/>
      <point x="18" y="88"/>
      <point x="34" y="65" type="curve" smooth="yes"/>
      <point x="49" y="44"/>
      <point x="103" y="-17"/>
    </contour>
  </outline>
</glyph>
<glyph name="D.dec" format="2">
  <advance width="812"/>
  <anchor x="421" y="-10" name="bottom"/>
  <anchor x="290" y="340" name="center"/>
  <anchor x="430" y="660" name="top"/>
  <outline>
    <contour>
      <point x="134" y="-14" type="curve" smooth="yes"/>
      <point x="228" y="-14"/>
      <point x="271" y="49"/>
      <point x="271" y="138" type="curve" smooth="yes"/>
      <point x="271" y="564" type="line" smooth="yes"/>
      <point x="271" y="579"/>
      <point x="259" y="586"/>
      <point x="236" y="586" type="curve" smooth="yes"/>
      <point x="213" y="586"/>
      <point x="201" y="579"/>
      <point x="201" y="564" type="curve" smooth="yes"/>
      <point x="201" y="142" type="line" smooth="yes"/>
      <point x="201" y="84"/>
      <point x="184" y="50"/>
      <point x="137" y="50" type="curve" smooth="yes"/>
      <point x="115" y="50"/>
      <point x="105" y="60"/>
      <point x="105" y="73" type="curve" smooth="yes"/>
      <point x="105" y="87"/>
      <point x="113" y="98"/>
      <point x="139" y="98" type="curve" smooth="yes"/>
      <point x="219" y="98"/>
      <point x="269" y="-10"/>
      <point x="435" y="-10" type="curve" smooth="yes"/>
      <point x="619" y="-10"/>
      <point x="753" y="144"/>
      <point x="753" y="356" type="curve" smooth="yes"/>
      <point x="753" y="562"/>
      <point x="602" y="712"/>
      <point x="350" y="712" type="curve" smooth="yes"/>
      <point x="227" y="712"/>
      <point x="59" y="677"/>
      <point x="37" y="538" type="curve" smooth="yes"/>
      <point x="34" y="521"/>
      <point x="41" y="509"/>
      <point x="60" y="505" type="curve" smooth="yes"/>
      <point x="81" y="501"/>
      <point x="91" y="508"/>
      <point x="96" y="527" type="curve" smooth="yes"/>
      <point x="122" y="630"/>
      <point x="261" y="644"/>
      <point x="350" y="644" type="curve" smooth="yes"/>
      <point x="560" y="644"/>
      <point x="680" y="524"/>
      <point x="680" y="358" type="curve" smooth="yes"/>
      <point x="680" y="183"/>
      <point x="577" y="56"/>
      <point x="435" y="56" type="curve" smooth="yes"/>
      <point x="293" y="56"/>
      <point x="240" y="162"/>
      <point x="136" y="162" type="curve" smooth="yes"/>
      <point x="77" y="162"/>
      <point x="31" y="127"/>
      <point x="31" y="69" type="curve" smooth="yes"/>
      <point x="31" y="21"/>
      <point x="74" y="-14"/>
    </contour>
  </outline>
</glyph>
<glyph name="E.cur" format="2">
	<advance width="558"/>
	<outline>
		<contour>
			<point x="298" y="-15" type="curve" smooth="yes"/>
			<point x="384" y="-15"/>
			<point x="458" y="18"/>
			<point x="516" y="88" type="curve" smooth="yes"/>
			<point x="533" y="108"/>
			<point x="529" y="121"/>
			<point x="509" y="136" type="curve" smooth="yes"/>
			<point x="493" y="147"/>
			<point x="483" y="143"/>
			<point x="466" y="125" type="curve" smooth="yes"/>
			<point x="414" y="71"/>
			<point x="361" y="55"/>
			<point x="299" y="55" type="curve" smooth="yes"/>
			<point x="194" y="55"/>
			<point x="133" y="98"/>
			<point x="133" y="183" type="curve" smooth="yes"/>
			<point x="133" y="271"/>
			<point x="204" y="335"/>
			<point x="302" y="335" type="curve" smooth="yes"/>
			<point x="401" y="335" type="line" smooth="yes"/>
			<point x="417" y="335"/>
			<point x="423" y="343"/>
			<point x="423" y="367" type="curve" smooth="yes"/>
			<point x="423" y="391"/>
			<point x="417" y="399"/>
			<point x="401" y="399" type="curve" smooth="yes"/>
			<point x="299" y="399" type="line" smooth="yes"/>
			<point x="216" y="399"/>
			<point x="162" y="454"/>
			<point x="162" y="527" type="curve" smooth="yes"/>
			<point x="162" y="602"/>
			<point x="212" y="642"/>
			<point x="305" y="642" type="curve" smooth="yes"/>
			<point x="366" y="642"/>
			<point x="413" y="627"/>
			<point x="449" y="601" type="curve" smooth="yes"/>
			<point x="467" y="588"/>
			<point x="478" y="584"/>
			<point x="492" y="595" type="curve" smooth="yes"/>
			<point x="511" y="610"/>
			<point x="514" y="626"/>
			<point x="492" y="646" type="curve" smooth="yes"/>
			<point x="443" y="691"/>
			<point x="378" y="712"/>
			<point x="307" y="712" type="curve" smooth="yes"/>
			<point x="179" y="712"/>
			<point x="90" y="640"/>
			<point x="90" y="526" type="curve" smooth="yes"/>
			<point x="90" y="454"/>
			<point x="136" y="392"/>
			<point x="215" y="368" type="curve"/>
			<point x="121" y="348"/>
			<point x="60" y="274"/>
			<point x="60" y="180" type="curve" smooth="yes"/>
			<point x="60" y="55"/>
			<point x="150" y="-15"/>
		</contour>
	</outline>
	<anchor name="bottom" x="294" y="0"/>
	<anchor name="ogonek" x="487" y="10"/>
	<anchor name="top" x="309" y="670"/>
</glyph>
<glyph name="F.cur" format="2">
	<advance width="593"/>
	<outline>
		<contour>
			<point x="159" y="-14" type="curve" smooth="yes"/>
			<point x="243" y="-14"/>
			<point x="281" y="49"/>
			<point x="281" y="138" type="curve" smooth="yes"/>
			<point x="281" y="318" type="line"/>
			<point x="513" y="318" type="line" smooth="yes"/>
			<point x="527" y="318"/>
			<point x="533" y="329"/>
			<point x="533" y="350" type="curve" smooth="yes"/>
			<point x="533" y="371"/>
			<point x="527" y="382"/>
			<point x="513" y="382" type="curve" smooth="yes"/>
			<point x="281" y="382" type="line"/>
			<point x="281" y="636" type="line"/>
			<point x="563" y="636" type="line" smooth="yes"/>
			<point x="577" y="636"/>
			<point x="583" y="647"/>
			<point x="583" y="668" type="curve" smooth="yes"/>
			<point x="583" y="689"/>
			<point x="577" y="700"/>
			<point x="563" y="700" type="curve" smooth="yes"/>
			<point x="218" y="700" type="line" smooth="yes"/>
			<point x="119" y="700"/>
			<point x="66" y="665"/>
			<point x="27" y="614" type="curve" smooth="yes"/>
			<point x="15" y="598"/>
			<point x="11" y="585"/>
			<point x="28" y="570" type="curve" smooth="yes"/>
			<point x="46" y="554"/>
			<point x="58" y="556"/>
			<point x="75" y="573" type="curve" smooth="yes"/>
			<point x="109" y="609"/>
			<point x="143" y="636"/>
			<point x="206" y="636" type="curve" smooth="yes"/>
			<point x="211" y="636" type="line"/>
			<point x="211" y="142" type="line" smooth="yes"/>
			<point x="211" y="81"/>
			<point x="196" y="54"/>
			<point x="161" y="54" type="curve" smooth="yes"/>
			<point x="127" y="54"/>
			<point x="109" y="69"/>
			<point x="88" y="88" type="curve" smooth="yes"/>
			<point x="72" y="102"/>
			<point x="62" y="109"/>
			<point x="43" y="97" type="curve" smooth="yes"/>
			<point x="24" y="85"/>
			<point x="24" y="70"/>
			<point x="37" y="52" type="curve" smooth="yes"/>
			<point x="49" y="35"/>
			<point x="92" y="-14"/>
		</contour>
	</outline>
</glyph>
<glyph name="F.cur_locl" format="2">
  <advance width="673"/>
  <outline>
    <contour>
      <point x="210" y="-14" type="curve" smooth="yes"/>
      <point x="366" y="-14"/>
      <point x="531" y="172"/>
      <point x="531" y="433" type="curve" smooth="yes"/>
      <point x="531" y="620"/>
      <point x="441" y="712"/>
      <point x="288" y="712" type="curve" smooth="yes"/>
      <point x="201" y="712"/>
      <point x="141" y="682"/>
      <point x="77" y="636" type="curve" smooth="yes"/>
      <point x="59" y="623"/>
      <point x="57" y="608"/>
      <point x="69" y="590" type="curve" smooth="yes"/>
      <point x="81" y="574"/>
      <point x="95" y="571"/>
      <point x="111" y="582" type="curve" smooth="yes"/>
      <point x="166" y="622"/>
      <point x="221" y="644"/>
      <point x="288" y="644" type="curve" smooth="yes"/>
      <point x="398" y="644"/>
      <point x="458" y="575"/>
      <point x="458" y="433" type="curve" smooth="yes"/>
      <point x="458" y="209"/>
      <point x="324" y="52"/>
      <point x="210" y="52" type="curve" smooth="yes"/>
      <point x="152" y="52"/>
      <point x="117" y="86"/>
      <point x="117" y="142" type="curve" smooth="yes"/>
      <point x="117" y="276"/>
      <point x="310" y="387"/>
      <point x="627" y="436" type="curve"/>
      <point x="600" y="465" type="line"/>
      <point x="600" y="374" type="line" smooth="yes"/>
      <point x="600" y="358"/>
      <point x="611" y="350"/>
      <point x="634" y="350" type="curve" smooth="yes"/>
      <point x="657" y="350"/>
      <point x="668" y="358"/>
      <point x="668" y="374" type="curve" smooth="yes"/>
      <point x="668" y="467" type="line" smooth="yes"/>
      <point x="668" y="491"/>
      <point x="651" y="510"/>
      <point x="622" y="504" type="curve" smooth="yes"/>
      <point x="263" y="445"/>
      <point x="44" y="307"/>
      <point x="44" y="142" type="curve" smooth="yes"/>
      <point x="44" y="45"/>
      <point x="107" y="-14"/>
    </contour>
  </outline>
</glyph>
<glyph name="F.dec" format="2">
  <advance width="931"/>
  <outline>
    <contour>
      <point x="369" y="-17" type="curve" smooth="yes"/>
      <point x="540" y="-17"/>
      <point x="666" y="85"/>
      <point x="666" y="350" type="curve" smooth="yes"/>
      <point x="666" y="410" type="line"/>
      <point x="794" y="410" type="line" smooth="yes"/>
      <point x="811" y="410"/>
      <point x="819" y="424"/>
      <point x="819" y="450" type="curve" smooth="yes"/>
      <point x="819" y="476"/>
      <point x="811" y="490"/>
      <point x="794" y="490" type="curve" smooth="yes"/>
      <point x="666" y="490" type="line"/>
      <point x="666" y="735" type="line"/>
      <point x="668" y="735"/>
      <point x="669" y="735"/>
      <point x="670" y="735" type="curve" smooth="yes"/>
      <point x="771" y="735"/>
      <point x="846" y="764"/>
      <point x="908" y="805" type="curve" smooth="yes"/>
      <point x="928" y="819"/>
      <point x="928" y="836"/>
      <point x="915" y="858" type="curve" smooth="yes"/>
      <point x="903" y="879"/>
      <point x="885" y="886"/>
      <point x="863" y="871" type="curve" smooth="yes"/>
      <point x="819" y="843"/>
      <point x="751" y="816"/>
      <point x="676" y="816" type="curve" smooth="yes"/>
      <point x="525" y="816"/>
      <point x="444" y="890"/>
      <point x="315" y="890" type="curve" smooth="yes"/>
      <point x="175" y="890"/>
      <point x="110" y="798"/>
      <point x="110" y="699" type="curve" smooth="yes"/>
      <point x="110" y="676"/>
      <point x="125" y="665"/>
      <point x="154" y="665" type="curve" smooth="yes"/>
      <point x="183" y="665"/>
      <point x="198" y="676"/>
      <point x="198" y="699" type="curve" smooth="yes"/>
      <point x="198" y="761"/>
      <point x="233" y="809"/>
      <point x="314" y="809" type="curve" smooth="yes"/>
      <point x="399" y="809"/>
      <point x="473" y="763"/>
      <point x="579" y="744" type="curve"/>
      <point x="579" y="490" type="line"/>
      <point x="425" y="490" type="line" smooth="yes"/>
      <point x="408" y="490"/>
      <point x="400" y="476"/>
      <point x="400" y="450" type="curve" smooth="yes"/>
      <point x="400" y="424"/>
      <point x="408" y="410"/>
      <point x="425" y="410" type="curve" smooth="yes"/>
      <point x="579" y="410" type="line"/>
      <point x="579" y="350" type="line" smooth="yes"/>
      <point x="579" y="144"/>
      <point x="491" y="65"/>
      <point x="369" y="65" type="curve" smooth="yes"/>
      <point x="266" y="65"/>
      <point x="190" y="119"/>
      <point x="153" y="221" type="curve"/>
      <point x="213" y="205"/>
      <point x="268" y="200"/>
      <point x="348" y="200" type="curve" smooth="yes"/>
      <point x="370" y="200"/>
      <point x="379" y="211"/>
      <point x="379" y="239" type="curve" smooth="yes"/>
      <point x="379" y="264"/>
      <point x="370" y="275"/>
      <point x="348" y="275" type="curve" smooth="yes"/>
      <point x="246" y="275"/>
      <point x="179" y="286"/>
      <point x="109" y="309" type="curve" smooth="yes"/>
      <point x="88" y="315"/>
      <point x="75" y="311"/>
      <point x="61" y="298" type="curve" smooth="yes"/>
      <point x="51" y="288"/>
      <point x="46" y="275"/>
      <point x="51" y="255" type="curve" smooth="yes"/>
      <point x="90" y="81"/>
      <point x="200" y="-17"/>
    </contour>
  </outline>
</glyph>
<glyph name="G.cur" format="2">
  <advance width="690"/>
  <anchor x="485" y="-325" name="bottom"/>
  <anchor x="360" y="670" name="top"/>
  <outline>
    <contour>
      <point x="311" y="9" type="curve" smooth="yes"/>
      <point x="443" y="9"/>
      <point x="550" y="124"/>
      <point x="586" y="317" type="curve"/>
      <point x="543" y="342" type="line"/>
      <point x="526" y="233"/>
      <point x="447" y="77"/>
      <point x="314" y="77" type="curve" smooth="yes"/>
      <point x="200" y="77"/>
      <point x="118" y="180"/>
      <point x="118" y="337" type="curve" smooth="yes"/>
      <point x="118" y="518"/>
      <point x="222" y="644"/>
      <point x="368" y="644" type="curve" smooth="yes"/>
      <point x="426" y="644"/>
      <point x="483" y="629"/>
      <point x="545" y="573" type="curve" smooth="yes"/>
      <point x="557" y="563"/>
      <point x="569" y="560"/>
      <point x="585" y="576" type="curve" smooth="yes"/>
      <point x="601" y="593"/>
      <point x="600" y="603"/>
      <point x="589" y="614" type="curve" smooth="yes"/>
      <point x="524" y="683"/>
      <point x="460" y="712"/>
      <point x="369" y="712" type="curve" smooth="yes"/>
      <point x="179" y="712"/>
      <point x="45" y="555"/>
      <point x="45" y="336" type="curve" smooth="yes"/>
      <point x="45" y="139"/>
      <point x="157" y="9"/>
    </contour>
    <contour>
      <point x="478" y="-315" type="curve" smooth="yes"/>
      <point x="566" y="-315"/>
      <point x="613" y="-250"/>
      <point x="613" y="-129" type="curve" smooth="yes"/>
      <point x="613" y="342" type="line" smooth="yes"/>
      <point x="613" y="357"/>
      <point x="601" y="364"/>
      <point x="578" y="364" type="curve" smooth="yes"/>
      <point x="555" y="364"/>
      <point x="543" y="357"/>
      <point x="543" y="342" type="curve"/>
      <point x="543" y="-138" type="line" smooth="yes"/>
      <point x="543" y="-212"/>
      <point x="523" y="-253"/>
      <point x="483" y="-253" type="curve" smooth="yes"/>
      <point x="453" y="-253"/>
      <point x="439" y="-235"/>
      <point x="439" y="-206" type="curve" smooth="yes"/>
      <point x="439" y="-150"/>
      <point x="482" y="-92"/>
      <point x="550" y="-20" type="curve" smooth="yes"/>
      <point x="599" y="26"/>
      <point x="677" y="90"/>
      <point x="734" y="131" type="curve" smooth="yes"/>
      <point x="747" y="141"/>
      <point x="749" y="151"/>
      <point x="740" y="166" type="curve" smooth="yes"/>
      <point x="729" y="184"/>
      <point x="719" y="187"/>
      <point x="704" y="177" type="curve" smooth="yes"/>
      <point x="651" y="140"/>
      <point x="576" y="81"/>
      <point x="527" y="37" type="curve" smooth="yes"/>
      <point x="434" y="-53"/>
      <point x="369" y="-136"/>
      <point x="369" y="-213" type="curve" smooth="yes"/>
      <point x="369" y="-275"/>
      <point x="411" y="-315"/>
    </contour>
  </outline>
</glyph>
